<svg id="Layer_1" data-name="Layer 1" xmlns="http://www.w3.org/2000/svg" viewBox="0 0 1040.18 137.33"><defs><style>.cls-1{fill:#9e9e9e;}</style></defs><title>studio_2</title><path class="cls-1" d="M-1120,1282.47c2,2.36,0,4.36-.82,6s-.12,4.61-3.15,4.82c.69,1.55-1.11,6.61-2.51,7.34,1.41,1.13,1.34,2.46.77,4-.75,2.06-1.28,4.19-1.91,6.29l.53.2,4-4.47,3.63,1.4-1.86.89.06.37,2.1.3c-.75,1.91-2.69.92-3.76,1.88l.75.32a17.47,17.47,0,0,1-1.57,3.15,4.92,4.92,0,0,1-2.08,1.17,30.3,30.3,0,0,1-3.32,1.15,2,2,0,0,1-1.23-.14c-1-.41-1.93-.92-3-1.44.52-2.33.12-2.82-2.8-2.59a10.35,10.35,0,0,1,.37-1.75c.36-.91.83-1.65-.41-2.41-.33-.21,0-1.57.1-2.38a19.79,19.79,0,0,1,.58-3.07c.72-2.43,1.52-4.84,2.31-7.25.28-.82.67-1.62,1-2.44.74-2.1,1.44-4.21,2.19-6.3.82-2.29,1.69-4.57,2.79-7.53l-3.49,1.36.1.54,1.26.5-.08.58-2.63-.38c-1.2,2.72-2.43,5.48-6.14,5.94-1,.12-2,1.21-3,1.9l.62,1.1c-.85.62-1.49,1.11-2.16,1.56-.33.22-.81.58-1,.48a7.54,7.54,0,0,1-1.48-1.29c-.84,1.76-1.74,3.62-2.69,5.62l1.4.47c-1.42,1.31-2.63,2.45-3.89,3.54-.17.15-.58,0-.88,0-1.32-.14-2.63-.29-3.94-.45l.1.6-.47,2-1.57-.85a5.45,5.45,0,0,1-5.28,2.15,31.33,31.33,0,0,1-6.33-1c-1.28-.46-2.31-1.84-3.27-3-1.56-1.83-1.64-4-1.27-6.31a34.28,34.28,0,0,0,.29-4.31,1.11,1.11,0,0,0-.45-.75c-1.28-.86-3.6.43-3.67,2l-6.35-.3-.07.8a9.71,9.71,0,0,1,1.88.31,6.7,6.7,0,0,1,1.36.93,7.33,7.33,0,0,1-1.24,1.19,6,6,0,0,1-1.59.36l1,1.77-.54-.13-1.74,4.87c-.13.34-.23,1-.38,1a4,4,0,0,1-1.33-.31c-.51-.16-1-.36-1.5-.54a5.5,5.5,0,0,0,.34,1.49c.69,1.24,1.61,2.11,3.53,1.1l-1.17,2.43c-2.27-2.19-3,1.34-5,.77l2.82-2-.18-.24-2.63.8a28.13,28.13,0,0,1-2.33,2.77c-.15.15-1-.4-1.45-.62a4.69,4.69,0,0,1-5.67,4.16c-.39,0-.72-.46-1.1-.66a11.83,11.83,0,0,0-2.51-1.21c-2-.52-2.07-.45-2.44-2.64l-1.83-.38,2.16-1.89c-1.19-.51-2.26-1-3.48-1.46l-1.16-3.82,2.64-1.62-.3-.54c-.34.07-.67.13-1,.21-1.73.4-2.62-.55-2.42-2.3.17-1.49,1.09-2.9.22-4.59-.25-.47,1-1.7,1.48-2.54-.34-.22-1.18-.47-1.35-1a5.58,5.58,0,0,1,.25-2.23,5.27,5.27,0,0,0-1.11.19,6.4,6.4,0,0,0-1.08.6l-.53-.42a10.53,10.53,0,0,1,1.42-1.8,27.74,27.74,0,0,1,2.65-1.77c-1.66-.22-2.87-.44-4.09-.51a6.69,6.69,0,0,0-1.72.33l.54,1.52-1.6,1.32c1.16,1.08,2.27,2.11,3.69,3.45L-1218,1292l3.52.36c-.45,1.87-.35,4.56-1.64,6-1.74,2-1.94,4.66-3.85,6.4a22.3,22.3,0,0,0-2.14,2.67l1,.49,0,.58-3.58.18c1.44,2.08,1.09,1.9-1,3.28s-3.72.22-5.53.51c-.48.07-1.08-.58-1.81-1-1.34.7-2.56.33-3.6-1.19s-1.54-2.79.16-4.06c-1.47-1.79-1.25-3.81.42-5.6.39-.43.44-1.16.76-1.68.71-1.19,1.49-2.34,2.25-3.5,2-3,3.92-6,6-9a23.38,23.38,0,0,1,3-2.91,4.93,4.93,0,0,1,2.46-3.58c.3-.21.89-.33.91-.55.34-2.7,2.49-4,4.16-5.76a43.33,43.33,0,0,0,3-4.06c.67-.89,1.44-1.7,1.93-2.28,1.82-1.29,3.38-2.41,4.94-3.5.92-.64,1.86-1.24,2.79-1.85.1-.07.3-.07.34-.15.94-2.32,3.16-1.37,4.95-1.91l.7,1.76a5.82,5.82,0,0,1,1.55-.66,4.75,4.75,0,0,1,1.52.34,6.1,6.1,0,0,1-.67,1.81c-.24.3-.94.35-1.42.31-1-.08-1.26.31-1.41,1.28-.09.57-.82,1.19-1.41,1.47-.36.16-1-.29-1.92-.6l-1.62,1,.11.32,1.1-.12c.28,3,.27,3-2.69,4a9.6,9.6,0,0,0-1.92,1.4l3.9,1.1c-.62,1.62,1.2,4-1.56,5.2l1.47,1.48-4.91,1.67.09.34a10.37,10.37,0,0,0,2.34-.53c1.78-.84,3,.21,3.61,1.44.37.73-.22,2.11-.7,3a10.11,10.11,0,0,1-2.06,2.1l3.18,0c-.62,1.78,0,4.1-3.41,4.43,1.47.71,2.41,1,3,1.55.27.26-.19,1.24-.56,1.9.55,1.17,2.08,2.12,1,4a3.21,3.21,0,0,0-.87-.58c-.63-.14-1.41-.42-1.88-.17a1.73,1.73,0,0,0-.29,1.68,2.48,2.48,0,0,0,1.71.87,13.92,13.92,0,0,0,2.64-.23c.08.26.15.53.23.79a22.61,22.61,0,0,1-2.69,1c-.94.24-2.3-.15-2,1.53l2.37-.64.33,1.58,4.51,1.7c.91-.87,1.68-1.59,2.44-2.33q2.47-2.43,4.93-4.88c.27-.26.58-.48.82-.76,1-1.21,2.08-2.41,3.07-3.65.47-.59.83-1.26,1.44-2.2-.53-3.2,2.9-3.61,4.75-5.28-1-2.34-.85-2.54,1.43-2.65-.12.4-.23.78-.38,1.3,2.59-.49,4.82-1.19,6-3.88l-3.18-.28c-.57,1.79-2,1.82-3.58,1.42.24-2,3.39-5.46,5.5-6-1.08-1.41-.11-2.21.88-3,.38-.3,1-.54,1.09-.88.22-1.63.71-2.92,3.14-2.83-1.52-1.59-1.36-2.43.37-2.74a.93.93,0,0,0,.59-.66c-.09-3.07,2.89-4.26,4-6.57a14.25,14.25,0,0,1,1.61-2.53c2-2.51,4.54-2.93,7.31-1.25a19.65,19.65,0,0,1,1.85,1.46l-.9.87c.25.63.72,1.4.58,1.53-1.82,1.7-1.08,5.06-4,6.06-.43.15-.64,1-.77,1.2a19.79,19.79,0,0,0-3.53.79,20.15,20.15,0,0,0-3.18,2.25l6.53-1-.78,2.66-.4-.3-2.25,2.7,1.67,1.85-4.36,1.84,0,.21,2.39-.5.37.51c-.8.78-1.66,1.52-2.39,2.37a2.41,2.41,0,0,0-.63,1.57c0,.33.74.61,1.27,1l.88-1.85c.78,1.19.6,1.82-.38,3.39a4.16,4.16,0,0,0-.39,2.1c0,1.36,0,2.7-1.27,3.67,1.5,2.46-.76,6,2.31,8.62,3.34-2.55,6.76-5.14,10.16-7.76,2.35-1.81,4.62-3.73,7-5.46a14.37,14.37,0,0,1,3-1.28c.28-.12.7-.16.82-.38,1-1.69,1.54-.86,2.07.55l.54-.21c0-.66,0-1.33.14-2s.12-1.55.53-1.84a8.17,8.17,0,0,1,3.4-1.71,5.59,5.59,0,0,0,3.89-2.19c.8-1,2.4-1.22,3.62-1.84.73-.37,1.66-.68,2-1.3,1.55-2.42,3-4.92,4.32-7.45a10,10,0,0,0,1-3.13c.51-3.24,2.92-3.54,5.69-3.67l-1.18-1.5-1.86,1.3-.68-.46c.86-1.78,1.78-3.53,2.56-5.34a8,8,0,0,0,.36-2.08c.78-1.53,1.45-2.92,2.17-4.28.25-.47.56-1.14,1-1.24,1.52-.39,1.3-1.5,1.44-2.62.21-1.76.69-3.49,1-5.23a7.28,7.28,0,0,0,0-1.15c-2.18.92-4.19,1.77-6.19,2.63-1.23.53-2.22.51-2.55-1.21a18.3,18.3,0,0,0-3.51,1.56c-1.79,1.31-1.59,0-1.72-1.35l-3,.64-2.44.49.1-2.65-2.89-.18a4.32,4.32,0,0,1,4.47-2.18,10.91,10.91,0,0,0,4.09-.7c1.86-.55,3.65-1.32,5.49-1.93.81-.27,1.7-.28,2.47-.6,4.11-1.73,8.19-3.52,12.28-5.3.28-.12.76-.4.74-.5-.46-1.7.91-2.75,1.36-4.12.71-2.14,1.51-4.12,3.62-5.14.12-2.81,1.56-5.1,2.8-7.43.21-.4,1.13-.4,1.71-.62s1.41-.59,1.77-.74a10.39,10.39,0,0,0,2.16-.05c1.31-.33,4,.43,4.42,1.37l-5.07,1.51-.26-1.27-.29,0-.32,3.12,4.2-.88.42.67-5.72,5.32,1,2.59c3.11-.11,4.67-3.57,7.66-4.31l1.22,2.11-1.42.78c1.69.91,2.54.51,3.23-1.59l-1.52-.4c1.35-2.06,3.88-3,5.4-2l1.79-1.48c.21,3.14-2,4.25-3.75,5.79-1.24,1.09-3,1.43-3.91,3.16-.46.86-2.41.92-3.7,1.33a1.74,1.74,0,0,0-1.15.76l1.17.12.19.4a31.3,31.3,0,0,1-2.89,1.32c-.3.1-.77-.28-1.26-.49-.15,3.27-3.41,3.5-4.91,5.4a12.76,12.76,0,0,0-1.81,2.19c-.85,1.79-.87,4.06-3.26,4.87-.39.13-.67.92-.78,1.45-.28,1.41-.27,2.89-.68,4.26a38.6,38.6,0,0,1-2.11,5.33,26.85,26.85,0,0,1-1.8,2.78,12.58,12.58,0,0,0-.57,1.29,14,14,0,0,1-1.56,3.15,4.48,4.48,0,0,0-1.42,3c-.1,1.49-1.26,2.9-1.95,4.35-1.31,2.72-2.52,5.48-3.94,8.14a43.58,43.58,0,0,1-2.78,3.92,1.83,1.83,0,0,0-.38,1C-1116.82,1281.18-1117,1281.54-1120,1282.47ZM-1224.61,1296l.69,0c-.15.73-.07,1.63-.48,2.16-1.26,1.68-2.83,3.14-4,4.85a5.5,5.5,0,0,0-.53,2.79c0,.21.64.6,1,.66,1.4.21,2.81.31,4.22.46.25-.52.51-1.08.83-1.73l-3.13-.29c1.82-4.27,3.73-8.25,7.73-11.11a9.38,9.38,0,0,0-2.41-.27,14.66,14.66,0,0,1-1.46-.21,9.51,9.51,0,0,1,1-1.12,6.26,6.26,0,0,1,1.14-.64c-.64-1-1-2-2.4-1.29-2.43,1.19-2.83,2-2,4.33l-2,.43.28,1.34-4.32,1.78C-1227.92,1299-1225.28,1298-1224.61,1296Zm9.45-20.34c-.6,2.59,2,1.43,3.18,1.86,1.35.51,1.9-.84,2.39-1.85a.85.85,0,0,0-.21-.8,2.24,2.24,0,0,0-1.18-.08C-1212.32,1275.07-1213.65,1275.37-1215.16,1275.69Zm-4.35,15.84a7.41,7.41,0,0,0,1.18-.45c1.07-.69,1.66-2.32,3.39-1.71.12-.44.5-1.06.33-1.28-.55-.76-3.57-.64-4.51.18C-1217.09,1289.34-1219,1290.15-1219.51,1291.53Zm-.88,6.69a8.12,8.12,0,0,0,4.2-2.68C-1218.33,1294.63-1218.86,1295-1220.39,1298.22Zm11.35-18.6c-2.61-.21-2.91.14-2.34,1.94Zm38.37.15c-2.31.13-2.31.13-2.55,2Z" transform="translate(1487.39 -1189)"/><path class="cls-1" d="M-691.31,1283.78c1.43-1.82,2.82-3.67,4.3-5.46a6.82,6.82,0,0,1,1.62-1.14c1-.68,1.67-1.9,3.33-1.79.8,0,1.68-1.15,2.37-1.67-.38-.63-.93-1.15-.89-1.61s.85-.58,1.28-.92c1.56-1.26,3.12-2.52,4.63-3.84a1.17,1.17,0,0,0,.13-.95c-.41-.2-1.09-.49-1.32-.31-2.43,1.87-5.37.73-8,1.45-1.89.52-4,0-6,.36-2.33.45-3.26-1.42-4.7-2.37a6.3,6.3,0,0,1-1.79-2.56c-.18-.38.16-1,.31-1.55a3.68,3.68,0,0,0,.21-2l2-1.47v3.09l.29,0c.61-1.24.93-2.91,1.92-3.6s2.6-.19,3.92-.38a36.08,36.08,0,0,1,12.9.24,7.93,7.93,0,0,0,1.88,0c1.59,0,3.18,0,4.76-.14,1.1-.07,2.39,0,3.23-.51,1.64-1.05,4.2-1.25,4.34-4.05,0-.21,1.29-.46,2-.51a6.89,6.89,0,0,1,1.87.49c-.13-1-.22-1.76-.32-2.63,1.78.36,2.78.11,3.43-2.09.51-1.75,2.56-3.09,4-4.5a19.49,19.49,0,0,1,3.11-2.37c1.21-.78,2.46-1.39,3.92-.3.39.3,1.19,0,1.87,0,.25.53.67,1,.65,1.53a2.53,2.53,0,0,1-.77,1.44,7.79,7.79,0,0,1-1.4,1c.6.13,1.2.29,1.82.37a1.82,1.82,0,0,0,.7-.2c.12,1.36.11,1.32-1.72,1.65-1,.19-2,.56-3.19.9l.94,1.67-2.71,1c-.05,2.69-.05,2.69-3.43,3.6,1.14,2.42,3.38,2.4,5.57,2.58a13.52,13.52,0,0,1,2.08.59,5.8,5.8,0,0,0,1.55.17c1.94-.13,3.89-.38,5.83-.45.56,0,1.12.41,1.61.27a22.39,22.39,0,0,1,2.9-.63c1.78-.14,3.56-.18,5.34-.19a16.13,16.13,0,0,1,1.78.3c.55.06,1.28.25,1.63,0,2-1.48,4.12-.7,6.22-.55,1,.07,1.31.44,1.16,1.45A14.86,14.86,0,0,0-614,1260c-1.36.78-3.11,1.82-4.9,2.78q-2.4,1.27-4.88,2.4a1.65,1.65,0,0,1-1.29,0c-2.07-1-4-.16-6,.24-2.26.45-4.61,1.3-6.88-.11a.94.94,0,0,0-.88,0c-2.47,2.55-5.73,1.8-8.7,2s-5.91.12-8.86.25c-2.59.11-5,.52-6.79,2.85-1.32,1.68-3.31,2.82-5,4.25-1.86,1.62-3.67,3.3-5.53,4.92s-3.76,3.2-5.63,4.79c-.19.16-.5.35-.49.51.18,2.85-2.88,2.18-4,3.64-.11.14-.46.11-.83.19.56,2.17-.6,2.56-2.53,2.16-1.3,5.48-5.08,7.2-10.32,6.58l-.34.5,1.64.85c-1.07.39-2.24.46-2.63,1.06s.11,1.65.22,2.63l-3.89,4.46c-1-.13-2.46-.06-2.75,2.16-.06.42-1.43,1.08-2,.92-1.89-.53-3.37.49-5,.8v.49l4.81.45c-.29,1.49-1.45,2.18-4,2.41-.67.06-1.29.62-2,.85a5.52,5.52,0,0,1-1.75.28A11.36,11.36,0,0,1-717,1315c.83,2.25.57,2.78-1.72,4s-3,2.93-2.19,5.43a18.48,18.48,0,0,1-2.66,1.26,4.82,4.82,0,0,1-1.81-.2c.36-.49.7-1,1.09-1.47.15-.17.45-.21.87-.4l-2-.91c-.77,2.39-.77,2.39-2.32,1.53l1-1.59-1.49-1.39,2.57-.82-.07-.44-2.4.27c-.14-1-.29-2.14-.48-3.47,0,0-.45-.14-1-.3,3.19-2.46,6.23-4.78,9.23-7.17a10.14,10.14,0,0,0,1.4-1.75c.3-.38.63-1.09.92-1.08,2.71.09,3.41-2.34,4.92-3.74.26-.24.65-.34.94-.56,1.16-.88,2.33-1.76,3.47-2.67.28-.23.43-.74.73-.83a3.21,3.21,0,0,0,2.46-2.13c.5-1.28,2.12-2.12,3.24-3.16,1.43-1.34,3.56-2,4.19-4.13a.67.67,0,0,1,.43-.33c2.25-.51,3.21-2.53,4.7-3.93a9,9,0,0,1,1.79-1Zm1.67,7.72-2.93-1.41c.43,1.12.68,1.75.92,2.39Z" transform="translate(1487.39 -1189)"/><path class="cls-1" d="M-967.89,1289.1c-1.27.72-2.58,1.56-4,2.22-1.66.79-2.41,2.35-3.46,3.66a1.61,1.61,0,0,1-.81.51c-1.14.3-2.31.55-3.72.87l.84,1.12-4.7,4-2.57-1.58c.44,1.06.69,1.55.84,2.06.25.84.85,1.9.55,2.51a2.68,2.68,0,0,1-3,1.82,19.92,19.92,0,0,0-4.27.23l0,.69,2.68-.33,1.33,1.87-3.65,1.19.32,1.15c-.79,2.11-6.07,2.69-8.44.86-1.32,1.65-2.07.85-2.79-.65-.28-.59-1-1-1.48-1.48l-.45.56,1.06.63-.11.38-2.27-.56c.8-3.94,1.07-4.31,3.06-4.1-.07-2.06,1.28-3,2.92-3.85.34-.16.55-.6.82-.92l1.75-2.12c-.62-.83-.11-1.44,1.29-2.19s2.12-2.31,3.38-3.17,1.1-2,1.65-3c.45-.8,1.49-1.26,2.27-1.87l.43.41c.31-1.32.25-3,1-3.87s2.58-1.43,4-2c.42-.18,1,0,1.57-.34l-1.37-.63c-.61-3,1.83-4.52,3.27-6.48a6.14,6.14,0,0,1,4.19-2.16c2.11-.35,2.52-.15,2.85,2.27l2.85-.15c-.35.91-.61,1.66-.92,2.39-.11.28-.5.64-.43.76.82,1.37-.22,1.76-1.12,2.25-.2.11-.52.43-.48.52.79,1.82-1.25,2.71-1.41,4.41l2.06.44.13-.27-1.11-.8,7.62-2.14a4.68,4.68,0,0,1,.38-2.18c.3-.46,1.45-.38,2.74-.65.25-1.88,2.33-1,3.94-1.3s3-1.34,4.49.64l.41-.87-1.66-.52.44-.55a12,12,0,0,1,8.23,2.31c.6.45.79,1.51,1,2.33a11.09,11.09,0,0,1,.41,2.37,14.93,14.93,0,0,1-.12,2.11l-1.77-.18c-.19,1.2-.36,2.48-.65,3.73,0,.16-.76.17-1.16.21-.86.07-1.73.11-2.59.17l0,.48,1.4.9-2.38,2.72-4-.86-.1.37c.28.24.55.49.84.72,2.26,1.71,2.19,1.68.93,4.37a8.61,8.61,0,0,0-.33,2.86c0,.23.13.48.08.69-.6,2.44.56,3.5,3.09,3.08s5.31-.65,8-1a1.68,1.68,0,0,0,.72-.2c2.3-1.55,5-1.81,7.59-2.33,2-.4,3.9-1.3,5.87-1.87,4.31-1.26,8.64-2.41,12.94-3.7,1.83-.55,3.56-1.47,5.4-2s3.7-.69,5.5-1.21c4.44-1.27,8.85-2.66,13.28-4,.72-.21,1.48-.31,2.21-.5,1.8-.47,3.59-1,5.4-1.45s3.65-.55,5.27-1.29c3.68-1.69,8.13-1.68,11-5.28,1.25-1.56,3.18-2.61,4.89-3.77,1.19-.81,2.46-.72,3.86.31l-1.64,1.29a8.05,8.05,0,0,0,1.54.55c2.22.31,2.63,1,1.82,3a1.83,1.83,0,0,0-.14.89c.36,2.63-.28,3.21-3,2.67a4,4,0,0,0-1,.15l1.69,1.41c-.33.14-.68.39-.81.31-1.65-1-2.86.16-3.53,1.14-2.09,3.06-5,3.76-8.39,3.59-.12,0-.31-.11-.36-.06-1.65,1.85-3.85.42-6.14.8l1.44,1.19a1.89,1.89,0,0,1-.55.26c-1,.16-1.95.29-2.93.45-.62.09-1.34.48-1.82.28-2.66-1.17-4.64.33-6.76,1.49a7.55,7.55,0,0,1-1.8.46l-.24-.73,2.58-1.26c-2.48-.81-2.71-.61-3.85,2.86-.14-.71-.27-1.42-.51-2.6-.64,1.18-1.1,2-1.57,2.89s-.72.91-1.72.37-2.47-.11-4-.11l.56,1.78h-6.83l.14.35-2,.86c-1.16.5-2.3,1-3.47,1.5-.84.32-1.73.5-2.58.81a40.56,40.56,0,0,0-5.51,2.2c-1.5.82-5.47.94-6.81-.14a6.16,6.16,0,0,0-1.31-.65l-.28.38,1.69,2.22c-1.31.63-2.34,1.22-3.87.6-.82-.34-2.13.1-3.07.51-2.16,1-4,2.8-6.74,1.85a9.59,9.59,0,0,0-2.71,0l.72,1.25-4.07.34-1.21-2.62c-1.73.66-3.68,1.12-4.58,3.43v-2l-2.57-2.73c-.32,1-.6,1.76-1,3a18.55,18.55,0,0,0-2.5-3,10.14,10.14,0,0,0-3.56-1.72c-1.82-.45-2.73-1.41-2.71-3.33a6.62,6.62,0,0,0-.27-1.53c.35-1,.59-2,1-2.86.57-1.32,1.24-2.58,1.86-3.88a7.25,7.25,0,0,0,.73-1.79c.21-1.24,2.36-3.25,3.7-3.31.37,0,.74-.06,1.12-.11,0,0,.09-.08.26-.25-1.69-2.68,1.82-3.8,2.09-6.13.16.39.32.79.51,1.24l1.24-1.19-3.21-3.2.34-.44-1.88-.2c1.42,2.07.84,3.27-1.74,4.14a9.69,9.69,0,0,0-2.63,1.27c-2,1.42-2.51,1.45-5-.6Zm44.44,18.43.27-.45-2.38-1.68-1.06,1.67Zm-39.74-24.48,0,.68c.81,1,1.64,1,3-.51Zm-21.9,11.29c.84,2.14,1.27,2.28,3.19,1.11Z" transform="translate(1487.39 -1189)"/><path class="cls-1" d="M-654.41,1310.35l-2.3.39,0,.33,1.61.53a45.09,45.09,0,0,1-12.72,7.2c.32-.68.56-1.21.81-1.73l-.15-.44a12.08,12.08,0,0,1-1.69.75,4.82,4.82,0,0,1-1.32.06v-1.16l-3.37-2.21c.35-.83.8-1.86,1.3-3a2.5,2.5,0,0,1-2.61-2.57c-.09-1.51-.05-2.76,1.51-3.37-.66-2.44-.66-2.44,2-3.29l-1.09-1.34a5.68,5.68,0,0,0,1.41-.94c.58-.71,2-1.13.88-2.6a2.31,2.31,0,0,1,.6-2.2,53,53,0,0,1,5.18-2.71,4.89,4.89,0,0,0,.68-.58l-2-.59c1.52-1.24,1.31-4.13,4.79-3.76l-1.94-1.24v-.45l2.46-.41c-2-1.66-.23-3,.53-4,1.07-1.45,2.46-.32,3.71.54-.16.52-.33,1.1-.53,1.78l1.9,1.09-2.57,2.89,2.09.52a19.08,19.08,0,0,0-1,1.62,16.38,16.38,0,0,0-1,2.14,25.45,25.45,0,0,1-1.11,3.43,23.38,23.38,0,0,1-2.6,3.87c-1,1.2-1.61,2.89-3.67,2.8-.45,0-.92.5-1.3,1.09h2.39l.18.5-2.88,2c0,.41-.1,1.14-.19,2.24.79,1,2.07.42,3.13-.11a52.55,52.55,0,0,0,5.09-3.08,9.6,9.6,0,0,0,1.34-1.49,3.9,3.9,0,0,1,1.12-1c2-.87,4-1.65,6-2.52.3-.13.46-.59.68-.89s.27-.53.44-.56c3.44-.57,5-4.13,8.23-5.06a23.55,23.55,0,0,1,2.72-.69c.93-.16,1.33-.28,1.8-1.47s2.47-2.16,3.92-3c.82-.47,2.06-.25,2.14-1.68,0-.22.47-.64.63-.6a28.75,28.75,0,0,1,4.33,1.27,9.84,9.84,0,0,1-.33,2.45l1.11.59c-.74.3-1.21.52-1.7.68s-1,.25-2.07.49c2.25,1.21,1.86,2.34.7,3.59-.83.9-1.55,1.9-2.69,3.3,0,1.36-.63,2.16-1.89,1.92l-1.55,3.38c.39.92,1.25,2.43-.59,3.36a19.21,19.21,0,0,0,4.15,2.13c1.29.32,2.76-.09,4.15-.19l.35.45-2,1,.48.86c1.81-.43,3.61-.91,5.44-1.25,1.33-.25,2.71-.25,4-.47a10.4,10.4,0,0,0,2-.71l-.15-.71-2.65-.18c1.19-1.82,3.38-1.58,6.34.67a7.49,7.49,0,0,1,1.93-1.29,2.12,2.12,0,0,1,1.73.43c1.56,1.38,1.92,1.33,2.81-.71a1.32,1.32,0,0,0-.26-.22c-.56-.31-1.13-.6-1.69-.89a7.46,7.46,0,0,1,1.85-.24c1.24.14,2.47.45,3.46.64l4.56-5.71-.41-.41,2.76-.44-.34-.42a15.05,15.05,0,0,1,2.66-2.74c1.87-1.15,3.94-2,6.14-3.07,0-1.43,1.78-1.27,2.92-1.91a18.8,18.8,0,0,1,1.77-1.28,33.05,33.05,0,0,1,3.34-1l-1-.78a1.8,1.8,0,0,1,2.61-.23,1.88,1.88,0,0,0,1.73-.11c1.27-1.21,2.38-2.58,3.45-3.78l2.59,1,.51-.79-1.87-1.18c2.26-.6,4.68,1.61,6.17-1.61.81,4.07,3.61,1,5.11,2.43l-.63,1.58,1.85,1-2.94,1c.15,1.07,0,2.17-1.67,1.52-.5,2.61-1.23,3.06-3.85,2.35.67,2.16-1.51,2-2.34,2.95l1.3.69c-2.84.86-5.82.53-7.48,3l1.6.51,0,.59-3,.37c-1,2.35-4.12,1.34-5,2.88.09,1.08.16,1.93.23,2.84l-2,.42c0,.48.1.88.13,1.18l-4.05,2.41c.05.25.15.81.26,1.38-1.76-1.33-3.56-1.2-5.56-.48.25.53.5,1.06.66,1.42l2,.19v.63l-1.87.51c.35,2.34-1,3.17-3.11,3.44a29,29,0,0,0-3.4,1.06c-2.07.55-4.12.78-5.76-1.27a3.63,3.63,0,0,0-.76-4.69c-.55-.5-1.72-.4-2.62-.42s-1.7.31-1.85-1a.71.71,0,0,0-.54-.41,34.38,34.38,0,0,0-5.84.26c-1.35.27-2.68,1.17-1.84,2.76-3.16.3-6.26.64-9.37.86a32.79,32.79,0,0,1-4-.11c-.25,0-.64-.06-.7-.2-.81-1.88-3-1.47-4.24-2.69-.67-.68-2.22-.74-1.63-2.3-2.67-1.21,0-4.21-1.93-5.71-.41-.33-.74-1.13-1.08-1.12a20.3,20.3,0,0,0-3.87.56,1.24,1.24,0,0,0-.6,1c.26,2.14-1.23,2.55-2.76,2.81-.92.15-1.83,0-2.27,1.15-.11.29-1,.34-1.56.41A3.84,3.84,0,0,0-654.41,1310.35Zm74-10.23c-1.3.18-2.36.29-3.41.47-2.56.46-5.12.91-7.65,1.47a6.85,6.85,0,0,0-1.86,1.1l.27.47,4.39.87c-.06-.2-.11-.4-.17-.6a12.29,12.29,0,0,1,1.54-.86c1.22-.45,2.49-.75,3.69-1.24C-582.66,1301.4-581.76,1300.82-580.45,1300.12Zm-7.9,6.79v-.42l-7.21-.84c.72,1.74,1.69,2.38,2.56,1.56s1.6-.58,2.52-.33A8.82,8.82,0,0,0-588.35,1306.91Zm-78.77,7.51.09.58a7.61,7.61,0,0,0,1.95.09c.42-.1.74-.63,1.11-1-.45-.17-.92-.54-1.33-.47A7.37,7.37,0,0,0-667.12,1314.42Zm68.79-.7c1.45,2,2,2,2.56.39Z" transform="translate(1487.39 -1189)"/><path class="cls-1" d="M-1326.41,1258.62c-.36-.2-.57-.43-.76-.41-2.4.23-4.79.56-7.19.75-1.58.13-3.17,0-4.75.14-.47,0-1.2.33-1.32.68-.54,1.6-1,2.36-2.3.46-.26-.4-1.16-.39-1.43-.79a27,27,0,0,1-2.46-4.34c-.33-.77,2.17-2.7,3.43-2.76,2.85-.13,5.7-.21,8.55-.32a2.69,2.69,0,0,0,.74-.14c4.23-1.32,8.46-2.69,12.71-4,1.94-.57,4.22-.47,5.82-1.49s2.23-3,3.41-4.51a14.94,14.94,0,0,1,2.8-2.87c.58-.41,1.58-.22,2.8-.75l-1.69-.75.09-.63,3.21-1-.08-1.56c2-.76,3.66-2.6,6-1.85a6.07,6.07,0,0,1,2.09,1.23c.69.6,1.16,1.49,1.87,2.06,1.19,1,.69,1.48-.35,1.85a15.92,15.92,0,0,1-2.56.62c-1.12.19-2.26.18-2.5,1.77-.07.44-1.06.73-2,1.34.69.41,1.37,1.13,1.83,1a59,59,0,0,0,5.71-1.93c2.56-.94,5.09-2,7.68-2.86a12.43,12.43,0,0,1,3.54-.58c.59,0,1.19.48,1.81.69s1.52.43,2.29.65c-1,2.91-4.41,4.17-9.21,3.37,1.13,1.84,0,3.84-2.32,4-1.51.12-2.81-.11-4,1.54-.56.79-2.77.47-4.23.57a9,9,0,0,1-1.95-.43l1.23,2.18c-1.44.19-2.68.41-3.92.49-.86.05-1.48-.18-2,1-.37.85-2,1.38-3.22,1.56-2.47.37-3.55,2.44-5,3.9-2.14,2.12-3.89,4.61-5.86,6.89A12.76,12.76,0,0,1-1322,1265l2,.16-5,4.69,1,.56-4.54.79a2.12,2.12,0,0,1-.56,3,18.38,18.38,0,0,0-3.71,4.22l-2-.11c.53,2.67-1.6,3.23-3.19,4-1.29.64-2.75.74-3.21,2.56-.2.79-1.14,1.5-1.91,2-1.17.77-.95,2.65-2.6,3a7.8,7.8,0,0,0-1.77.93,5.81,5.81,0,0,1,.48,1.06c.28,1.09-.45,1.3-1.18,1-1.74-.66-2,.26-1.94,1.62a3.32,3.32,0,0,1-.25.93h-1.72c-.56,1.82-1.09,3.47-3.38,4.09-1.31.35-2.36,1.7-3.52,2.6a7,7,0,0,1-1,.75c-.44.23-.92.38-1.39.57.3.51.58,1,.88,1.54a5.13,5.13,0,0,0,.43.52c-1.47,1.07-2.91,2.09-4.33,3.14-.24.17-.61.43-.61.64.09,3.13-3.27,4-4.12,6.4a7.41,7.41,0,0,1-4.49,4.88c-.17.06-.22.41-.37.72l2,.26-3.4,1.75c.24-1.51.37-2.48.55-3.44.22-1.13,1.47-2.25,0-3.39a13.13,13.13,0,0,1,1.53-1.7,6.6,6.6,0,0,1,1.79-.65c-2.07-1.76-1.77-1.61-.58-4,.84-1.7,2.1-3.4,2-5.49a.58.58,0,0,1,0-.19c.26-1.8,2.39-2.28,2.85-3.38.65-1.57,1.23-2.5,2.86-2.79.31,0,.85-.37.84-.52-.3-2.72,2.31-3.47,3.46-5.19.37-.54.79-1,1.18-1.59.14-.2.23-.59.37-.61,1.92-.21,3-1.35,4-2.93a22,22,0,0,1,2.74-3,10.21,10.21,0,0,1,.78-.83c2-1.74,4.07-3.43,6-5.24.8-.74,1.3-1.79,2-2.6,1.7-1.84,3.41-3.69,5.25-5.38.64-.59,1.71-.73,2.27-1.33.36-.55.68-1.13,1.09-1.65s.83-.81,1.21-1.25c1.24-1.44,2.45-2.9,3.69-4.33C-1328.42,1260.82-1327.49,1259.83-1326.41,1258.62Zm33.46-14.36-.17-.45a17.92,17.92,0,0,0-2.56.34c-.35.1-.58.63-.86,1,.43.16.94.56,1.26.44A15.69,15.69,0,0,0-1292.95,1244.26Z" transform="translate(1487.39 -1189)"/><path class="cls-1" d="M-491,1208.52l9.66-3.14-1.79-.62,1.14-2,.45.1c0,.49,0,1,.08,1.6l2.9-.57-2.39-1.34,8.47-7.44c-.77-1.48.32-2.06,2.18-2.25.43,0,1.21-.74,1.16-.94-.77-2.81,1.31-2.6,3-3-.08.5-.15.9-.24,1.47,2.39-.52,2.47,1.43,3,2.75.37,1-.06,1.76-1.41,1.37s-2.24-.07-2.27,1.51l2.77,1.7a11.07,11.07,0,0,1-2.55,1.6c-2.23.58-3.05,1.78-2.53,4.1a4.08,4.08,0,0,1,0,.74l-4.31,1.12,1.38,1.77c-2.27,1-4.41,2-6.59,3-.41.17-1-.18-1.47-.08-1,.22-1.91.58-2.86.89l.19.49,5.32-.66a3.27,3.27,0,0,1-2.76,2.89c-1.13.18-1.93.42-1.63,1.9.08.41-.52,1-.92,1.45-.92,1-1.87,1.91-2.87,2.8a22.1,22.1,0,0,1-2,1.42c2.09,1.71,0,2.88-1,3.5s-2.71.43-4.3.61l2.71,1.6c-1.93,1.2-1.63,4.17-4.8,3.83.12.18.24.37.35.56l1.63.89a13,13,0,0,1-3,1.77c-2,.45-2,1.89-1.77,3.25.33,1.59-.14,2.4-1.59,2.88-.74.25-1.75.37-1.16,1.64a.7.7,0,0,1-.17.66c-2.63,1.26-2.75,4.4-4.69,6.21a6.78,6.78,0,0,1-5.54,1.79,8.16,8.16,0,0,0-2.3.54l.15.54,5.8-.46a12.79,12.79,0,0,1-.6,2.22c-.42.86-1.06,1.62-1.49,2.49-1,2-1.58,4.29-4.81,3.66,0,.21,0,.42,0,.63l1.11.56-.59.08a11,11,0,0,1-.09,2.57,33.41,33.41,0,0,1-1.54,4.19c-.95,2.25-2,4.48-3,6.7-.15.33-.63.84-.79.78-1.66-.57-1.42.51-1.46,1.5a11.62,11.62,0,0,1-4.13,9c-1.26,1-3.19,1.22-4.87,1.81a1.94,1.94,0,0,0,.36.15l2.74.51c-.38.88-.53,2-1.18,2.59-2.15,1.92-2.83,4.51-3.7,7a4.41,4.41,0,0,1-.8,1.23c-.23.28-.81.48-.81.72,0,1.92-2,2.76-2.33,4.51,0,.19,0,.47-.16.54-1.94,1.12-1,3.72-2.89,4.92l1.67,1.21a7.54,7.54,0,0,1-2.37,1c-1.52,0-1.49.66-.86,1.88h-3.78l0,.32a6.25,6.25,0,0,0,1,.23c1.66.07,2.19.49,1.42,2.33-1.37,3.24-1.21,3.3-3.58,4.73l1,1.37c-1.71,1.28-3.32,2.53-5,3.72-.77.57-2.92-.54-3.43-1.76-.59-1.42-1.14-2.86-1.59-4l3.73-4.06c-.77-2-.26-2.73,2.93-4.57-1-1.35-.38-2.2.86-3,.54-.35,1.25-1.22,1.14-1.69-.5-2.19.53-3.2,2.69-3.64l-1.11-1.31c.59-2.52,2-3.95,4.88-3.36l-.09-.55-2.29-.7-.22-.45,2.23-1-.63-1.36c2.36-.54,2.7-2.18,2.12-4l3.34-1.11-2.23-1.33c1.68-2.39,3.5-4.66,4.13-7.81h6.19l0-.71h-4.83a19.43,19.43,0,0,1,2-2.91,4.37,4.37,0,0,1,2-.85,36.59,36.59,0,0,0,5.08-1.33l-5.5-1a2,2,0,0,1,1.06-2.44c.58-.34.67-1.5,1.08-2.55l-.64-.61c.87-1.82,5-1.42,3.17-4.74l1.55-1.94c4.85.76,4.89.75,5.2-1.57l-2.51.9-2.05-1.23,1.45-1.8c-.48-2-.35-2.13,1.85-2.29a6.48,6.48,0,0,0,1.71-.68c-.22-.77-.22-1.52-.59-1.93-.73-.8-.58-1.29,0-2.09a5.27,5.27,0,0,0,.64-2.25c.26-1.46.37-2.86,2.26-3.37,1-.25,1.72-1.21,2.69-2-1.23-1.23-.46-1.68.71-2.2,1.46-.65,2.81-1.55,4.29-2.39a8.11,8.11,0,0,1-1.07-.93c-.4-.49-1.14-1.22-1-1.56.38-1,.53-2.27,2.05-2.38a20.89,20.89,0,0,0,3.35-.54,3.34,3.34,0,0,0,1.84-1.23l-3-.46c0-.16,0-.31-.07-.46l5.53-2.75c0-.17.05-.34.07-.51l-3.4-.36c1.16-1.23,2.4-2.48,3.54-3.81a2,2,0,0,0,.35-1.45,2.51,2.51,0,0,1,2.58-3,1.82,1.82,0,0,0,1.3-1.18c.07-.79.54-2-1-2.23-.58-.07-1.17-.08-1.76-.11l-.06-.55c1.8-.34,3.59-.72,5.39-1s3.84-.6,5.76-.9l-.06-.8-6.15.47-.34-.6,3.09-3c2.95,2,4.67,1.93,5.8-.21Zm-33.56,74.23-.14-.58-4.22,1.55C-527.59,1284.38-527.59,1284.38-524.61,1282.75Zm50.49-85.18c1,1.51,2.35,1.37,3.28-.41Z" transform="translate(1487.39 -1189)"/><path class="cls-1" d="M-1392.92,1266.51c-.33-.9-.79-2.08,1.35-2.19.61,0,1.2-1,1.72-1.63,1.93-2.24,3.73-4.61,5.78-6.72,1.62-1.68,2.08-1.37,3.66.31a14.88,14.88,0,0,1,2.56,4.17,2,2,0,0,0,1.75.68,32.48,32.48,0,0,0,3.93-1.23c.92-.3,1.79-.49,2,1.08a20.26,20.26,0,0,1,3.47-2.11c.67-.26,1.62.15,2.43.34s1.39.43,2.09.65l.25-.57-1.57-2c3,0,5.54-.09,8.11.06.68,0,1.22,1.43,1.44,1.54,2.54,1.29,1.33,3.11,1.18,5-.15,2.06-.55,3.36-2.75,4.08-.89.3-1.31,2-2,3a4.46,4.46,0,0,1-1.25,1.34c-1,.58-1.88.73-2,2.44a4,4,0,0,1-3.91,3.83c.77,1.32.94,1.93-.57,2.57-1.1.45-1.64,2.15-2.52,3.21-.7.86-1.06,2.73-2.85,1.18-.16-.13-.85.35-1.39.58l.63,1.12a13.3,13.3,0,0,1-2.13,2.38,13.82,13.82,0,0,1-3.9,2c-2,.58-3.34,1.6-3.26,3.07l-4.37,2,1.32.54.22.53c-3,1.5-6.49,2-10,3.41l1.8,1.15c-.87,1-4.25.85-6.08-.37a18.41,18.41,0,0,1,2.59-2.82c2.69-1.93,4.66-4.47,6.79-6.93,2-2.27,4.53-4,6.83-6,.19-.17.53-.25.61-.44,1.49-4,5.52-5.57,8-8.61,1.87-2.25,4.19-4.13,6.07-6.37s3.32-4.59,5.1-7.09l-3.87-2c-.66.2-1.5.39-2.29.71a1.79,1.79,0,0,0-1,.86c-.52,1.53-1.56,1.91-3,1.73a30,30,0,0,0-4.54-.21c-.34,0-1,1-.91,1.28.48,1.62-.35,2.09-1.67,2.55-2.25.76-4.39,1.67-5.54,4.09-.31.65-1.58,1-2.47,1.16-1.22.24-2.61,0-2.7,1.87a1.78,1.78,0,0,1-.55,1c-1.38,1.49-2.74,3-4.2,4.4-.94.91-2.16,1.54-3,2.5A53.85,53.85,0,0,0-1401,1288c-.68.92-2.51.57-2.5,2.32a11.64,11.64,0,0,1-2,.3,5.83,5.83,0,0,1-1.1,1.3,8.72,8.72,0,0,1-1.93.63l1.14,1.36c-1.3.84-1.16,3.11-3.34,2.92-.12,0-.23.56-.43.77-.57.6-1.2,1.15-1.8,1.73s-1,1-1.53,1.56c-.76.77-1.39,1.81-2.31,2.24-1.56.74-1.79,3-4,3.09-.37,0-.61,1.4-1.09,2-1.31,1.66-2.71,3.26-4.07,4.87a2.27,2.27,0,0,1-3.41-.22,4.35,4.35,0,0,0-3.12-2.2.92.92,0,0,1-.47-.32,7.78,7.78,0,0,1,.68-2.64,28.32,28.32,0,0,1,2.77-2.7c.54-.54,1-1.15,1.5-1.73,1.39-1.62,2.68-3.33,4.17-4.86,3-3,6.07-5.93,9-9,1.28-1.3,2.29-2.86,3.56-4.16,1.91-2,4-3.79,5.93-5.69,1.27-1.23,2.59-2.41,3.77-3.72,1.77-2,3.39-4.06,5.15-6C-1395.36,1268.77-1394.25,1267.81-1392.92,1266.51Zm21.49-4.71-.28-.51-2.55.61-.06.64c.57.26,1.22.83,1.68.7S-1371.83,1262.31-1371.43,1261.8Z" transform="translate(1487.39 -1189)"/><path class="cls-1" d="M-1309.78,1271.61c.74-1,1.14-1.64,1.6-2.21.59-.73,1.2-1.44,1.84-2.12a3.28,3.28,0,0,1,1.08-.73,12.16,12.16,0,0,0,6.38-5.54c.21-.4.76-.64,1.18-.9.21-.13.69-.17.69-.23-.13-2.09,2-2,3-2.85.68-.59,1.84-.64,2.77-1s1.68-.64,2.53-1c.25-2.23,1-2.89,3.5-3.22a1.32,1.32,0,0,0,.8-.36c2.25-2.82,5.35-2.81,8.52-2.61a9.21,9.21,0,0,1,2.05.26c1.3.41,2.81.46,2.86,2.55,0,.77,1.15,1.53,1.82,2.35l-3.14,2.69,2.8.33.57.82c-.51.22-1.06.69-1.54.63-1.5-.19-1.9.34-1.77,1.79,0,.41-.75,1-1.27,1.32-.87.57-1.83,1-3.31,1.79l1.6.73c-.58,1.59-3.36.73-2.75,3.17-2.23,1.5-5.57,1.91-5.87,5.41l-3.55,1.11c-1.13-1.56-2,.77-3.38.82,1.24,1.34,1,1.78-.68,2.22a50.75,50.75,0,0,0-6.32,2.62c-1.83.78-3.65,1.59-5.48,2.35-2.22.92-4.45,1.83-6.69,2.71-.57.23-1.21.29-1.75.56a6,6,0,0,0-1.58,1.09c1,2-.62,1.75-1.79,1.93l.46,1-3.86,2.68.92,1.6a11.6,11.6,0,0,1-1.91.34,7.32,7.32,0,0,0-2.36.12l1.89.88-.45,6c.75.93,1.62,1.91,2.38,3,1.74,2.42,4.13,1.9,6.29,1.13,2.81-1,5.37-2.94,8.23-3.52,2.22-.46,3.06-2.25,4.74-3.06a1.12,1.12,0,0,0,.49-.52c1.84-4.16,5.57-5.81,9.84-4.2l.82-1.23c-.65-.6-1.41-1-1.62-1.59-.13-.39.49-1.08.84-1.58a8.55,8.55,0,0,1,5-3.42,1.22,1.22,0,0,0,.59-.44,3.83,3.83,0,0,1,4.73-1.73l-1.56-1.45,4.48-3.09-.25-.14c.65-1,1.11-2.25,2-2.75.57-.32,1.79.53,2.72.86l0,.6-2.13,1.17.79,1.5-2.71.2c-2.49,5.16-5.89,9-11.84,10.1l.24.5h4.51l.1.63a6.11,6.11,0,0,1-2.14.46,1.75,1.75,0,0,0-2.24,1.43c-.36,1.26-.82,2-2.41,1.18-.79-.44-1.76-.41-2.4,1a10.33,10.33,0,0,1-3,3.17c-.24.19-1.16-.44-2-.79-.06.24-.16.65-.27,1.07l4,.56-3,2.15a8,8,0,0,1-2,1.3,9.09,9.09,0,0,1-2.62-.11,11.08,11.08,0,0,0-.85,1.23,1.78,1.78,0,0,1-2.29,1.08c-.49-.13-1.14.35-1.72.57a8.19,8.19,0,0,1-2.55.92c-1.12,0-1.32.48-1.31,1.34a2.41,2.41,0,0,1-3.17,2.32c-2.63-.65-5.3-1.11-8-1.64a1.26,1.26,0,0,1-.89-.51l3.46-.78c-.54-1.39-1.44-1.35-2.46-1-2.19.76-5.32-1.48-5.49-3.74,0-.6-.93-1.11-1.4-1.7s-.87-1.16-1.3-1.75l.43-.38,2.42.31a37.88,37.88,0,0,1-3-2.4,1.44,1.44,0,0,1-.18-1.35,61,61,0,0,1,3-5.37c.32-.52,1.09-.75,1.66-1.1s1.13-.67,2-1.17l-5.08-3.55c.35-1-.28-1.39-1.68-1.41a1.79,1.79,0,0,1-1.34-1,1.72,1.72,0,0,1,1-1.37,13.39,13.39,0,0,1,4.54-1c2.7.12,5.3.37,7.49-1.67.33-.31.93-.33,1.4-.48C-1315.2,1276.14-1310.85,1271.81-1309.78,1271.61Zm26.72-14.51,1.61.91c-1.17.36-2.57-.07-3.25.45-1.44,1.1-2.56,1.15-3.29.5l-6,.58v.25l6.53,1.31c-1.35,1.71-2.9,1.7-4.56,1.3-.89,2.43-2.5,3.36-5.58,3.22a3,3,0,0,1,0,3.79c-.63,1-.78,2.49-2.56,2.35-.47,0-1,.54-1.47.84.57.24,1.24.79,1.69.65a25.62,25.62,0,0,0,4.7-1.92c2.16-1.2,3.62-3.71,6.55-3.52.15,0,.45-.17.45-.27,0-1.87,1.85-2,2.82-3,2.21-2.18,4.18-4.72,6.71-6.45,1.79-1.23,2.55-2.29,2.1-4.29C-1278.23,1253.26-1281.81,1255-1283.06,1257.1Zm-20.8,16.24c-1.27-.77-2.33-1.93-3.14-1.77-1.26.24-.42,1.36,0,2.09C-1306.14,1275.14-1305.31,1274.28-1303.86,1273.34Zm4.7-3.27-.07-1.14-2.23.17a4.37,4.37,0,0,0,.1.93C-1300.63,1270.09-1299.9,1270.07-1299.16,1270.07Z" transform="translate(1487.39 -1189)"/><path class="cls-1" d="M-761.55,1315.06c0,1.36-1,1.52-2.26,1.45-2.78-.15-5.5-.53-8.16,1.2-1.26.82-3.27.5-4.95.66a19.43,19.43,0,0,1-2.75.16c-1.39-.06-2.77-.25-4.16-.37-2.07-.16-4-.87-6.25-.07-2.91,1-4.2.13-3.66-3h2.27l.09-.52a15.2,15.2,0,0,1-2.87-.79,8.11,8.11,0,0,1-1.73-1.6,15.4,15.4,0,0,1,2.24-.73c1.4-.22,2.83-.23,4.22-.48s2.86-.48,3.64,1.48l-1.71.21a7.12,7.12,0,0,0,8.24-1.54c1.24-1.26,2.62-2.36,4.68-1.84a2.58,2.58,0,0,0,1.9-.47c1.52-1.17,3.17-1,4.94-1s4-.13,5.21-1.14c1.69-1.38,3.44-1.18,5.21-1.52,2.33-.45,4.61-.86,6.55-2.48a13.54,13.54,0,0,1,3.69-1.7c2.41-1,4.87-1.83,7.26-2.88a2.53,2.53,0,0,0,1.34-1.57c.08-.4-.67-1.14-1.2-1.41-1.33-.66-2.78-1.06-4.11-1.71-.93-.45-1.68-1.3-2.63-1.69-2.93-1.2-5.3-3.21-7.7-5.16a31,31,0,0,1-4.39-4.33c-.5-.61-.35-1.76-.32-2.72-.6-.67-2.58.56-2.37-1.53.07-.61,1.1-1.13,1.9-1.89-.2-1.65,1.91-1.32,2.9-2.11.19-.15,1.23.76,2.09,1.31a6.16,6.16,0,0,0,1-2.3c0-1.48,1-1.43,2-1.77,2.07-.75,4.06-1.74,6.14-2.47.8-.28,1.84.09,2.62-.22a46.42,46.42,0,0,0,5.1-2.52c2.62-1.44,5.12-3.12,7.81-4.39a18.92,18.92,0,0,1,4.75-1c1.72-.31,3.46-.56,5.36-.86l4.21,3.35-2.35,1.12c.66.38,1.33.54,1.52.93a10.13,10.13,0,0,1,.56,2.31c-.69.12-1.37.26-2.07.37a8.82,8.82,0,0,0-1.48.17c-3.71,1.33-7.75,2.16-11,4.21-3,1.9-6.46,2.63-9.47,4.41-1.84,1.09-4,1.66-5.93,2.6a33,33,0,0,0-4.44,2.62c-.36.26-.44,1.16-.34,1.7,0,.27.79.48,1.25.59,1.66.37,3.34.68,5.12,1-.34.89-.54,1.4-.65,1.67,1.84,3.67,5.87,2.05,8.66,3.8l-1.24,1.51a6.51,6.51,0,0,1,.85.26c.77.34,1.8-2.82,2.38.2.19,1,1.88,1.52.89,2.93-.1.15.12.59.28.83,1.54,2.41,1.22,4.1-.93,5.86-1.22,1-3,1.49-3.25,3.5,0,.24-.71.42-1.09.59l-7.28,3.24c-.86.39-1.76.7-2.58,1.16s-1.42,1.06-2.19,1.47a6,6,0,0,1-2.09.66c-.8.07-1.71-.37-2.42-.15-1.26.4-3-.49-3.77,1.56C-758.68,1314.83-760.38,1314.79-761.55,1315.06Z" transform="translate(1487.39 -1189)"/><path class="cls-1" d="M-1031.8,1270.84c-4.31-1-7.16.5-8.25,4.92.16,0,.66.22,1.17.37.35.1,1,.18,1,.28.06,2,2.42,2.41,2.92,4.16l-7.3,2c2,1.52,4.16,1.8,5.13.65l.51.2c-.38,1-.51,2.2-1.21,2.76a12.69,12.69,0,0,1-3.57,1.43c1.15,1.7-.68,2.6-1.44,3.92l.93,1-4,3.29c1,1.52-.06,2.9-.88,4.32-.18.33-.64.58-.67.89-.18,1.85-.28,3.71-.43,5.79.21,0,.76.06,1.09-.17,2-1.36,4-2.73,5.92-4.2,2.19-1.69,4.32-3.47,6.45-5.23a8.89,8.89,0,0,0,.75-1c1.22-1.38,2.43-2.77,3.73-4.08.2-.2.83,0,1.34.06,1.06-5.11,6.49-7.53,8-12.77a3.3,3.3,0,0,0,1.93-3.66,9.38,9.38,0,0,1,1.89-4.49c-.18-.33-.75-.87-.68-1.3.26-1.53-1.79-2.26-1.2-3.83a6.58,6.58,0,0,0-1.48-.38,13.37,13.37,0,0,0-1.92.2c-.28-1-.48-1.86-.69-2.66l-.63.11c-.09.59-.18,1.18-.31,2l-8.15.56c.05.8.1,1.41.15,2.16-1.9-1.65-3.46.2-5.39.09l-.76-1.21-1.13.7c-.09-.64-.4-1.32-.18-1.62.84-1.17,1.8-2.3,3.67-1.56.35-2.44,2.18-2.61,4.07-2.46.61.06,1.18.61,2,1.05l2-2.38a30.5,30.5,0,0,1,5.13-.85,8.37,8.37,0,0,1,4.28,1.06,49.19,49.19,0,0,1,5.45,4.65l-3.92.4-.1.54c.54.1,1.08.25,1.63.32a27.38,27.38,0,0,1,4.55.62c.47.14.9,1.46.8,2.17a8.52,8.52,0,0,1-1.29,2.5c1.36,1.82,1.26,2-2,3.24.65,1.34,1.29,2.65,2,4.17l-4.13.32-.08.88,3,.6c-.34.75.11,2.15-1.63,2.18a3.83,3.83,0,0,0,.29,1.87c-.69.81-1.36,1.64-2.08,2.42a1.47,1.47,0,0,1-.81.39c-1.74.32-3.48.61-5.23.9l-.3.7,1.25,1,2.54-1.15c.21,3.12.11,3-2.55,4.06a53.11,53.11,0,0,0-5.81,3.13l3.15,1.26-6.22,4.35-1.06-.5c-.76.86-1.44,1.56-2,2.34a1.86,1.86,0,0,0-.32,1.21c.19,1.58-.73,2.28-2,2.58-1.57.37-3.18.59-5.35,1l2.44,1.72a4.67,4.67,0,0,1-1.07.68c-1.65.45-3.31.88-5,1.22a6.57,6.57,0,0,1-1.62-.17,17.77,17.77,0,0,1-2.64-.11c-1.19-.26-2.59-.43-3.42-1.18-1.28-1.16-2.35-.84-3.73-.15l-1.11-1.42,1.92-2.37h-2.64c.22-1.59.41-2.91.6-4.26-1-.26-1.34-1.54-.45-3s2-2.93,3-4.43c.17-.26-.06-.74.06-1.05a16.51,16.51,0,0,1,1.2-2.42c1-1.53,2-3,3-4.49a11.13,11.13,0,0,1,2.32-3c2-1.39,1.68-3.77,2.78-5.51a22.3,22.3,0,0,0,1.11-2.4l-.69-2.45,1.09-1.63-2.16-.61c2.91-.83,2.76-3.32,3.43-5.2,1.53.77,2.92,1.36,4.2,2.14s2.52,1.28,4.08.58c.5-.22,1.31.27,2,.44Zm-16.48,33.58c-.61-1-.86-2.13-1.44-2.36-2.11-.82-1.93,1.61-3,2.57Z" transform="translate(1487.39 -1189)"/><path class="cls-1" d="M-1475.55,1308.73a10.15,10.15,0,0,1,1.16-1.5c1.28-1.14,2.67-2.17,3.92-3.34,3.43-3.19,6.82-6.42,10.21-9.66,1.49-1.42,2.88-2.94,4.4-4.32,1.71-1.55,3.57-2.92,5.26-4.49,1.49-1.38,2.83-2.9,4.22-4.38a13.85,13.85,0,0,1,2.35-2.57c3.56-2.24,5.64-5.87,8.51-8.74q3.45-3.45,6.87-6.93c1.43-1.45,2.79-3,4.28-4.4,2.7-2.54,5.34-5.17,9.21-5.93,1.22-.24,2-.43,2.18,1.28.1,1,1,1.94,1.37,3,.48,1.47.09,2.41-1.66,2.9a10.37,10.37,0,0,0-6.12,4,1.61,1.61,0,0,1-.57.5,15,15,0,0,0-6.21,6.15c-.78,1.48-2.55,2.42-3.82,3.66a17.37,17.37,0,0,0-2.7,3.06c-1.66,2.72-3.49,5.14-6.71,6.19a11.94,11.94,0,0,0-2.59,1.67l.76,1.29a41.39,41.39,0,0,1-3.26,2.61c-1.13.73-2.87.34-2.89,2.77,0,1-2.3,2.38-3.8,3-2.21.93-3.24,2.82-4.67,4.43a22.36,22.36,0,0,1-3.54,3.41c-.8.58-1.93.54-2,2,0,.29-1.6.45-2.8.75l2.26.56a27.66,27.66,0,0,1-2.17,2.1c-1.33,1-2.75,1.94-4.11,2.93a1,1,0,0,0-.37.61c-.1,1.53-1.12,1.76-2.37,1.87a6.2,6.2,0,0,0-1.7.67c1,2.35.74,2.94-1.68,3.55-.73.18-1.49.22-2.23.36-.35.06-1,.19-1,.33-.18,2.16-2.18,2.52-3.57,3.53l1.6,1.11c-.81.89-1.49,1.67-2.21,2.41-1.64,1.7-3.51,1.26-4.22-1-.08-.24-.11-.57-.28-.68-2.26-1.48-.45-2.69.3-3.89.64-1,1.67-1.87,2.16-3,1-2.16,2.91-2.78,4.84-3.51.4-.15.83-.27,1.23-.4-.41-2.7-.37-2.74,2.45-3.56Z" transform="translate(1487.39 -1189)"/><path class="cls-1" d="M-1070.06,1256.57c1.28-1.17,2.64-.59,3.89,0a34.85,34.85,0,0,1,4.5,2.33c2.33,1.46,1.52,3.59,1,5.36l-3.22,1,.19.64a7.92,7.92,0,0,1,1.17-.19c.5,0,1,.08,1.49.13a5,5,0,0,1-.24,1.68c-.32.59-1,1-1.35,1.56-.7,1.18-1.2,2.5-2,3.64s-2.34,2.23-2.73,3.57c-.82,2.75-3.15,3.89-4.94,5.63a2.77,2.77,0,0,0-.57.89c-1,2.58-3.14,3.83-5.52,4.8.39.35,1.08.67,1.1,1a2,2,0,0,1-.7,1.59c-1.4.93-2.5,1.95-2.65,3.78,0,.35-.68.64-1,1a4.18,4.18,0,0,0-.84.84,6.51,6.51,0,0,0-.45,1.33c-.47-.26-1.11-.42-1.33-.82s.09-1,.22-1.42a1.43,1.43,0,0,0,.19-.91l-2.46,1.54c.37.52.7,1,1,1.4.82,1.28.25,3.43-.84,4.63-.61.67-.74,1.79-1.24,3.12l1.81-.75c.41,1.9-.46,2.79-2.34,3,1.6,1,1.77,2.65.31,4,.06-.73.1-1.3.17-2.14-1.1.93-1.46,1.61-.57,2.66s.49,1.66-.69,2.12c-3.25,1.24-6.46.55-9.51,0-1.68-4.33-.36-8.15,1.85-11.91l2,.83c-1.61-2.36,0-4.27.54-6.31a5.16,5.16,0,0,1,.94-1.37c.47-.68,1-1.36,1.4-2s.7-1.69,2-2c.7-.14,1.1-1.79,1.61-2.78a8,8,0,0,1,.59-1.33,41.19,41.19,0,0,0,3.66-4.75,21.11,21.11,0,0,1,3.17-3.85c2.13-2.34,3.66-5.21,5.52-7.81q2.09-2.91,4.39-5.66c1.69-2,1-4.37-1.48-5-.47-.11-.88-.5-1.35-.58s-1.25-.19-1.57.09c-1.48,1.27-2.26,1.46-4,.49v2.14c-2.49.38-5.23-.18-6.77,2.58-.24-2-.24-2,2.52-2.77l-.77-1,1.85-1.18c.08.54.14,1,.22,1.52a3,3,0,0,0,.89-.15c1.71-.93,3.38-1.9,5.08-2.83a4.87,4.87,0,0,1,1.2-.46c1.58-.34,3.17-.64,4.75-1l.22,2.41,2.36-1.77Zm-5.82,18.67,0,.84,2.15.32c-.07-.46-.1-1.32-.2-1.32A9,9,0,0,0-1075.88,1275.24Z" transform="translate(1487.39 -1189)"/><path class="cls-1" d="M-1242.91,1265l-2.29,1.77c.18.55.36,1.13.59,1.84l-2.64.3.89,1.7a5.36,5.36,0,0,0-.65.31c-1.48,1-3,2.08-4.44,3.13-.2.14-.45.34-.49.55-.53,2.49-3,3.44-4.19,5.42a11.59,11.59,0,0,1-6,4.88c-2.16.92-2.2,2.39-.27,4.24-1.15.79-2.25,1.53-3.47,2.35-.47,2.5-3.66,2.57-5,4.66.47.82,2.76-.35,2.07,1.72s-2,.49-3.08.41c0,.12-4,4.4-4.24,4.54l2.29.84c-2.26,1.63-4.14,3.11-6.15,4.37-.49.31-1.47,0-2.16-.18-1.11-.37-2.16-.92-3.23-1.39-1.33-.59-1.05-1.72-.59-2.56a39.24,39.24,0,0,1,2.91-4.35c1.21-1.64,2.54-3.18,3.72-4.83a18.29,18.29,0,0,0,1.24-2.51,2.88,2.88,0,0,1,.59-1c2-1.75,4.1-3.43,6.06-5.24a10,10,0,0,0,2-2.69c.92-1.74,2.09-2.8,4.2-2.46a4,4,0,0,0,1.33-.3l0-.52-2.43-.69a23.71,23.71,0,0,1,3.2-3.27,17.24,17.24,0,0,1,3.76-1.49c-1.36-1.58-1-3.21.87-4,1.21-.51,2.24-.86,1.87-2.5-.06-.26.33-.63.51-1l.86-1.46c-.63-.07-1.25-.15-1.87-.19a3.84,3.84,0,0,0-.75.09l.31.48a15.9,15.9,0,0,0-2.37,1.92,22.64,22.64,0,0,0-1.79,3c-.7-1.94-1.21-2.15-2.54-1a17.13,17.13,0,0,1-8.36,4.4,14.41,14.41,0,0,1,1.75-3.23,3.11,3.11,0,0,1,2.34-.51,3.08,3.08,0,0,0,2.85-.87,7.63,7.63,0,0,1,3.49-1.43c1.15-.27,1.83-1.16,1.35-2.27-.65-1.5.81-3.74,2.53-3.9.69-.06,1.37-.17,2.06-.26l-1.18-1.61c1.78-.59,3.59-1.14,5.36-1.78a26.14,26.14,0,0,0,2.51-1.19c1.08-.53,2-.79,3,.43.64.77,1.95,1,2.88,1.41l-2.06,1.57a44.4,44.4,0,0,1,4.51,2.21c.34.21.46,1.27.25,1.75C-1241.44,1265.75-1242.24,1265.91-1242.91,1265Zm-11.38-3.66c-.59.8-.91,1.64-1.5,1.92a8.49,8.49,0,0,1-2.61.36l.12.67,7.32-1.53v-.37Z" transform="translate(1487.39 -1189)"/><path class="cls-1" d="M-467.61,1300.29c.31-.71.71-1.67,1.13-2.62a.64.64,0,0,1,.21-.31c.34-.21.69-.41,1-.59,3.06-1.53,6.15-2.77,9.5-1.07l.05.62-3.59.18,1.69,2.84-7.43,2.45.19.67,2.13-.37.34.42c-.83.6-1.69,1.16-2.48,1.8s-2.23.7-2.61,2.32c-.18.79-1.91,1.21-2.7,2-.41.48-.84,1-1.22,1.45a17.21,17.21,0,0,0-1.89,2.64c-.72,1.41-1.68,2-3.21,1.48-1-.32-1.76-.64-1.91,1-.07.75-1.12,2-1.66,2-2.09-.14-3.11,1.71-4.8,2.2a10.12,10.12,0,0,1-2.27.67c-1.66.07-3.33,0-5-.1a1.64,1.64,0,0,1-.88-.31c-1.1-.81-2.16-1.67-3.33-2.59,1.28-1,1.33-2.31.53-3.94l-2.07,1.82c-.47-.94-.83-1.66-1.18-2.38l.38,0a23.71,23.71,0,0,1,0-3c.15-1.13.51-2.24.85-3.68-1.35-1.44-1.29-1.55,3.47-5.07l-2.1-.26c-.25-1.76-.14-1.84,1.95-1.47-.39-1.16-1.55-2-.31-3.61a8.3,8.3,0,0,1,8.21-3.61,1.16,1.16,0,0,0,.54-.11c.1,0,.15-.18.38-.5-.52-.16-1.1-.15-1.32-.43s-.67-1.2-.48-1.51c1.17-2,7.34-4.86,10-4.68l-2.09,5.77c-1.16.63-4-.2-3.21,3.14l-4,.64,0,.53,2.3,1-7.14,4.16,3.22.87A5.66,5.66,0,0,1-489,1302c-.95,1.07-2,2.07-2.94,3.16a1.89,1.89,0,0,0-.3,1.23c.09,2.31-2.75,4.81.3,6.9a3.76,3.76,0,0,0,2.82.73c2.4-.91,4.6-2.3,7-3.29,2.85-1.18,5-3.21,7.23-5.25a23.4,23.4,0,0,1,2.34-1.51C-470.94,1302.79-469.35,1301.59-467.61,1300.29Z" transform="translate(1487.39 -1189)"/><path class="cls-1" d="M-461.24,1293.33c1-1.28,1.43-3.18,3.71-2.42-.05-.82-.09-1.36-.1-1.56a11.37,11.37,0,0,0,2.54-1.3c.17-.14-.43-1.2-.78-2.08l1.81-1.1c-1-2.12,0-2.7,3.05-2.63l-1.28-.72a7.28,7.28,0,0,1,.72-1.42,11.07,11.07,0,0,1,1.67-1.27l-2.44-1.49c.32-.83-.78-2.19-2.08-2.18-1.13,0-2.16.12-2.6-1.26-.05-.19-.56-.4-.8-.34-2.87.75-5.42-.26-8-1.3a4.13,4.13,0,0,0-1.45,0c0,.16-.07.32-.1.47l1.08.85-.08.43-3.28-.76c.11.46.25,1,.32,1.29l-2.89,3.24-.8-1.53,1.82-2.12c-2.16-3.36-.9-5.54,3.16-5.87,3-.25,6-1,9-.21a11.72,11.72,0,0,1,1.74.55c1.2.51,2.19,1.41,3.77,1,1.36-.33,1.82.78,1.7,2.28,3.71-.55,3.39,3,4.58,4.51a36.07,36.07,0,0,0-1,4.48c-.27,2.65-.19,2.65-2.29,4.59l.56,1.43-2.05.68a6.62,6.62,0,0,1-.73,4.78C-454.17,1293.84-459.26,1294.47-461.24,1293.33Z" transform="translate(1487.39 -1189)"/><path class="cls-1" d="M-517.31,1292.13c.42-3.33,1.78-4.1,5-2.83l-2.36,1.48.11.45,5.24-1.12c-.56,1.64-.88,2.81-1.38,3.89a2.68,2.68,0,0,1-1.23,1.09c-2,1-2.09,1.11-2,3.15a11.41,11.41,0,0,1-1.1,3.12,4.81,4.81,0,0,1-2.47,1.49c-2,.59-2.25.92-1.11,2.87l-2.19,1.52,1.82,1c-.95,1.91-2.08,2.91-4.13,2.54-.92-.17-1.9,0-2.83-.09a2.84,2.84,0,0,1-1.52-.77,1.33,1.33,0,0,1,.16-1.12,2.44,2.44,0,0,1,1.56.07c1.47.69,2.24.09,2.92-1.49l-4.92-1c1.29-2,4.93-1.79,3.2-5.53h7.2l-.06-.46-3.82-1.66.2-.62,1.53-.28c.07-.16.14-.32.2-.49l-1.91-.73,1.9-2.13C-518.73,1293.59-520.14,1291.46-517.31,1292.13Z" transform="translate(1487.39 -1189)"/><path class="cls-1" d="M-1396.17,1208.92l-3.42-1.88c4.91-1.34,7.1-1.11,8.14.43l-5.72,5.38c-.23.21-.51.55-.74.53-2.49-.21-2.72,1.85-3.49,3.38-.92,1.84-1.89,2.14-4.08,1.14.35-.17.6-.28.84-.41l1.38-.81a7.41,7.41,0,0,0-1.61-.62,7.8,7.8,0,0,0-1.82.21C-1405.83,1209.76-1401.2,1209.15-1396.17,1208.92Z" transform="translate(1487.39 -1189)"/><path class="cls-1" d="M-1226.83,1257.15c.34-.75.82-1.83,1.29-2.9l.67.18a24.17,24.17,0,0,1-.47,2.7c-.37,1.32-1.37,1-2.3.74a1.1,1.1,0,0,0-.56.07l-8.33,2.36,1.55,1c-2.45,1.54-4.7,1.6-6.89,0,1.36-.61,1.67-2.84,3.81-1.76a.66.66,0,0,0,.55,0c1.55-1,3-2.07,4.63-3a7.32,7.32,0,0,1,3.3-1.26C-1228.77,1255.3-1228,1256.34-1226.83,1257.15Z" transform="translate(1487.39 -1189)"/><path class="cls-1" d="M-494.15,1261.52c-2,.35-3.83,1.07-6.07-.42l3.28-1.45a7.94,7.94,0,0,1-2-.61,6.28,6.28,0,0,1-1.11-1.37,5.47,5.47,0,0,1,1.41-.62,14.28,14.28,0,0,1,2.07,0c2.19,0,2.53.39,2.27,2.65A9.82,9.82,0,0,0-494.15,1261.52Z" transform="translate(1487.39 -1189)"/><path class="cls-1" d="M-574,1316.38l-4.09-.73.71-1c-.65-.29-1.33-.57-2-.86l-.16-.58c.69-.3,1.42-.91,2-.82a35.36,35.36,0,0,1,4.38,1.1,9.29,9.29,0,0,1,.08,3.14,7.61,7.61,0,0,1-1.92,2.37s-.71-.26-.71-.4a2.2,2.2,0,0,1,.33-1.35c.27-.29.86-.3,1.3-.42C-574,1316.67-574,1316.52-574,1316.38Z" transform="translate(1487.39 -1189)"/><path class="cls-1" d="M-1420.52,1228.63a18.83,18.83,0,0,0,2.55-.3c1.35-.38,3.13-.1,3.49-2.13a.45.45,0,0,1,.24-.28c.8-.37,1.6-.71,2.4-1.06a7.44,7.44,0,0,1-.76,2.29C-1414.41,1229.51-1417.34,1230.13-1420.52,1228.63Z" transform="translate(1487.39 -1189)"/><path class="cls-1" d="M-1412.33,1223.19c2-2.71,4.75-3.21,7.58-3.2-1.37,1.09-2.74,2.22-4.15,3.29A2.59,2.59,0,0,1-1412.33,1223.19Z" transform="translate(1487.39 -1189)"/><path class="cls-1" d="M-1117.08,1315.93a9.15,9.15,0,0,1-3-.37c-.27-.14.11-1.43.08-2.18a15.71,15.71,0,0,0-.34-2c.59-.38,1.41-.93,2.6-1.72,0,.81.1,1.5-.14,1.7-1.46,1.22-1.05,2.19.2,3.2C-1117.44,1314.69-1117.41,1315.08-1117.08,1315.93Z" transform="translate(1487.39 -1189)"/><path class="cls-1" d="M-1269.22,1223.11c-1.23,3.57-2.53,4.06-6.5,2.8Z" transform="translate(1487.39 -1189)"/><path class="cls-1" d="M-551.55,1280.09l-7.16.44C-556.73,1277.91-553.16,1277.77-551.55,1280.09Z" transform="translate(1487.39 -1189)"/><path class="cls-1" d="M-1114,1301.24a31.49,31.49,0,0,1-3.17.58c-1.11.1-2.24,0-3.63,0,.13-.27.23-.8.41-.82,2.1-.31,4.21-.53,6.31-.78C-1114,1300.58-1114,1300.91-1114,1301.24Z" transform="translate(1487.39 -1189)"/><path class="cls-1" d="M-1110.93,1308.26a28,28,0,0,1-3.29,1.76c-.33.13-.94-.46-1.59-.81C-1114.07,1307.84-1112.8,1306.26-1110.93,1308.26Z" transform="translate(1487.39 -1189)"/><path class="cls-1" d="M-1391.39,1304.28c-1,1.07-4.79,1-5.36.11-.12-.21.22-1,.28-1C-1394.82,1303.66-1393.18,1304-1391.39,1304.28Z" transform="translate(1487.39 -1189)"/><path class="cls-1" d="M-1217.38,1254.2l-5.23,3.23c-.33-1.41-.06-2.14,1.48-2.4a16.1,16.1,0,0,0,3.35-1.4Z" transform="translate(1487.39 -1189)"/><path class="cls-1" d="M-522.24,1244.54l4.71-1.24c.09.35.17.7.25,1l-4.77,1Z" transform="translate(1487.39 -1189)"/><path class="cls-1" d="M-1406.89,1218.74l-5.07,1.16C-1410.41,1217.87-1408.32,1217.58-1406.89,1218.74Z" transform="translate(1487.39 -1189)"/><path class="cls-1" d="M-1419.56,1231.54a13.37,13.37,0,0,1-2.16,1.64c-.36.19-1-.14-1.5-.23.24-.41.37-1,.72-1.2a18.15,18.15,0,0,1,2.63-.91Z" transform="translate(1487.39 -1189)"/><path class="cls-1" d="M-661.44,1311.41c-1.39,1.11-2.76,2.27-4.79.59l4.67-1.09Z" transform="translate(1487.39 -1189)"/><path class="cls-1" d="M-498.47,1264.61c1.07-.4,2.55.29,2.25-1.46l1.8-.22C-495.65,1265.69-495.65,1265.69-498.47,1264.61Z" transform="translate(1487.39 -1189)"/><path class="cls-1" d="M-528.95,1254.45l-4.2.55C-532.06,1252.87-530.48,1252.69-528.95,1254.45Z" transform="translate(1487.39 -1189)"/><path class="cls-1" d="M-548.42,1273.79c-.05.56,0,1.54-.17,1.6a16.57,16.57,0,0,1-2.83.33l-.21-.6,2.65-1.64Z" transform="translate(1487.39 -1189)"/><path class="cls-1" d="M-726.32,1284l-2.52-.93c.34-.38.8-1.13,1-1.07a10.85,10.85,0,0,1,2,1.16Z" transform="translate(1487.39 -1189)"/><path class="cls-1" d="M-527.26,1249.43c.46-1.52,1.87-1.7,4-.24Z" transform="translate(1487.39 -1189)"/><path class="cls-1" d="M-1265,1267l1.63-2.85,1.4,1.16-2.54,2.12Z" transform="translate(1487.39 -1189)"/><path class="cls-1" d="M-1109.33,1294.64l-3,3.8-.4-.36C-1112,1296.71-1111.69,1295.05-1109.33,1294.64Z" transform="translate(1487.39 -1189)"/><path class="cls-1" d="M-544.93,1267.69l4.95-1.58.2.55-4.9,1.76Z" transform="translate(1487.39 -1189)"/><path class="cls-1" d="M-1200.23,1255.32c-1.28,1.72-2.3,1.73-3.28,0Z" transform="translate(1487.39 -1189)"/><path class="cls-1" d="M-544.93,1271.62l-2.48,1-1.22-1.36C-547.24,1271.28-546.1,1270.17-544.93,1271.62Z" transform="translate(1487.39 -1189)"/><path class="cls-1" d="M-624.85,1295.26l3.82-1.06C-621.9,1295.56-622.88,1296.53-624.85,1295.26Z" transform="translate(1487.39 -1189)"/><path class="cls-1" d="M-1274.08,1229.4l2-1.87.64.65-1.92,2Z" transform="translate(1487.39 -1189)"/><path class="cls-1" d="M-525.13,1251.76l-3.22.75C-528.47,1250.47-528.21,1250.38-525.13,1251.76Z" transform="translate(1487.39 -1189)"/><path class="cls-1" d="M-511.47,1230.69l2.82,1,.11.45a11.25,11.25,0,0,1-2.35.28C-511.07,1232.41-511.2,1231.53-511.47,1230.69Z" transform="translate(1487.39 -1189)"/></svg>