<svg id="Layer_1" data-name="Layer 1" xmlns="http://www.w3.org/2000/svg" viewBox="0 0 135.26 143.2"><defs><style>.cls-1{fill:#fbc1ad;}.cls-2{fill:#faf1d7;}</style></defs><title>horse</title><path class="cls-1" d="M134.51,152.71a2.44,2.44,0,0,0,.71-1.41,3.36,3.36,0,0,0-2.12-3.53c-2.12-.7-14.12,0-14.12,0s-4.24-1.41-4.24-2.82,2.82-2.83,4.94-2.83,14.13.71,15.54-1.41-3.53-2.82-11.3-2.82-9.18-2.83-9.18-2.83-1.41-3.53,9.18-4.24,12,0,12-2.11-4.94-1.42-12.71-1.42-9.18-3.53-9.18-4.23,2.12-4.24,9.18-4.24,12,0,12-1.41S125.33,116,121.8,116s-7.06-1.41-7.06-2.11,3.53-1.42,6.36-1.42l-8.48-1.41s-5.65,4.94,3.53,7.06c0,0-4.94,2.83-4.94,5.65s5.65,5.65,5.65,5.65-5.65,2.83-5.65,5.65,4.94,4.94,4.94,4.94-4.24,2.83-4.24,4.95,2.83,4.23,2.83,4.23l.71.71s-4.24.71-4.24,2.82,1.41,5.65,10.59,5.65,13.42-2.82,13.42-2.82S136.63,153.42,134.51,152.71Zm-14.83,2.83c-7.06-.71-2.82-3.53-2.82-3.53A64.45,64.45,0,0,0,131,154.13S126.74,156.25,119.68,155.54Z" transform="translate(-40.05 -36.35)"/><path class="cls-2" d="M174.41,95.87c-1.41,0-9.18-6.36-9.18-6.36V83.16c0-1.42-2.82-7.06-4.94-9.89s-1.41-9.18-1.41-9.18c1.41-12.71-.71-16.24-3.54-19.07s-7.06-2.82-12-1.41-8.47,7.77-8.47,7.77c-2.12,0-4.24,2.12-4.24,2.12s-4.24-2.12-7.06,10.59S98.85,78.21,98.85,78.21C98.14,76.1,95.32,74,95.32,74s-1.41-6.36-2.12-8.48-.7-7.77-.7-7.77c-.71-3.53-5-10.59-6.36-13.41s-5.65-5.65-5.65-5.65a21.07,21.07,0,0,0-4.24-2.12c-2.12-.71-5.65.71-5.65.71-2.11-.71-3.53,2.11-3.53,2.11C65,37.26,62.84,37.26,61.42,38s0,1.41-2.11,2.83-2.83,5.65-2.83,6.35-11.3,14.13-13.42,17S39.53,71.86,40.24,74s5.65,6.35,7.77,7.76a5.15,5.15,0,0,0,4.23.71c-3.53,4.24-3.53,12-2.82,19.77s7.77,14.13,7.77,14.13-2.12,10.59-2.83,13.41.71,2.83.71,2.83,10.59,11.3,11.3,12,.7,0,1.41,0a2.45,2.45,0,0,0,1.41-.7h2.12a1.38,1.38,0,0,0,1.41-1.41s.71.7,2.83,0,3.53-4.95,3.53-4.95a4.27,4.27,0,0,0,5.65-.7c2.82-2.83,3.53-14.13,3.53-15.54s5.65-8.47,5.65-8.47a40.84,40.84,0,0,0,6.35,3.53c2.12.7,25.43-4.24,27.54-4.95s12-9.18,12-9.18c3.53,1.42,31.78,2.12,32.48,2.12s2.12-3.53,2.83-4.94S174.41,95.87,174.41,95.87ZM57.19,112.82S51.54,108.58,51.54,98c0,0,0-9.18,1.41-10.6l2.12-4.94,6.35-2.12S60,108.58,57.19,112.82Z" transform="translate(-40.05 -36.35)"/><polygon class="cls-1" points="53.5 131.19 53.5 129.07 81.75 119.19 111.41 131.19 111.41 133.31 83.86 143.2 80.33 143.2 53.5 131.19"/></svg>