<svg id="Layer_2" data-name="Layer 2" xmlns="http://www.w3.org/2000/svg" viewBox="0 0 137.05 140.36"><defs><style>.cls-1{fill:#fbc1ad;}.cls-2{fill:#faf1d7;}</style></defs><title>horse-move</title><path class="cls-1" d="M134.51,153.71a2.44,2.44,0,0,0,.71-1.41,3.36,3.36,0,0,0-2.12-3.53c-2.12-.7-14.12,0-14.12,0s-4.24-1.41-4.24-2.82,2.82-2.83,4.94-2.83,14.13.71,15.54-1.41-3.53-2.82-11.3-2.82-9.18-2.83-9.18-2.83-1.41-3.53,9.18-4.24,12,0,12-2.11-4.94-1.42-12.71-1.42-9.18-3.53-9.18-4.23,2.12-4.24,9.18-4.24,12,0,12-1.41S125.33,117,121.8,117s-7.06-1.41-7.06-2.11,3.53-1.42,6.36-1.42l-8.48-1.41s-5.65,4.94,3.53,7.06c0,0-4.94,2.83-4.94,5.65s5.65,5.65,5.65,5.65-5.65,2.83-5.65,5.65,4.94,4.94,4.94,4.94-4.24,2.83-4.24,4.95,2.83,4.23,2.83,4.23l.71.71s-4.24.71-4.24,2.82,1.41,5.65,10.59,5.65,13.42-2.82,13.42-2.82S136.63,154.42,134.51,153.71Zm-14.83,2.83c-7.06-.71-2.82-3.53-2.82-3.53A64.45,64.45,0,0,0,131,155.13S126.74,157.25,119.68,156.54Z" transform="translate(-38.7 -40.19)"/><path class="cls-2" d="M174.61,91c-1.4.12-9.7-5.53-9.7-5.53l-.56-6.33c-.12-1.41-3.43-6.78-5.79-9.41s-2.21-9-2.21-9c.29-12.79-2.13-16.12-5.2-18.69s-7.28-2.19-12.08-.35-7.76,8.48-7.76,8.48c-2.11.19-4,2.49-4,2.49s-4.41-1.74-6.11,11.17S97.79,80,97.79,80c-.89-2.05-3.88-3.91-3.88-3.91s-2-6.21-2.86-8.26-1.39-7.67-1.39-7.67c-1-3.46-5.85-10.12-7.5-12.81S76,42.26,76,42.26a20.84,20.84,0,0,0-4.41-1.74c-2.17-.52-5.56,1.2-5.56,1.2-2.17-.52-3.33,2.42-3.33,2.42-2.3-1.92-4.41-1.74-5.75-.91s.12,1.41-1.87,3-2.31,5.87-2.25,6.58S42.84,67.87,41,70.87,38.15,78.92,39,81s6.18,5.83,8.42,7a5.18,5.18,0,0,0,4.28.33c-3.15,4.53-2.46,12.27-1.08,20s9,13.38,9,13.38S58.46,132.42,58,135.3s1,2.75,1,2.75,11.54,10.32,12.31,11,.7-.06,1.4-.12a2.45,2.45,0,0,0,1.35-.83l2.11-.18a1.38,1.38,0,0,0,1.28-1.53s.77.64,2.82-.25,3.08-5.24,3.08-5.24a4.26,4.26,0,0,0,5.56-1.2c2.57-3.06,2.28-14.38,2.16-15.78s4.88-8.94,4.88-8.94a41,41,0,0,0,6.64,3c2.17.52,25-6.45,27-7.34s11.15-10.2,11.15-10.2c3.64,1.09,31.84-.68,32.55-.75s1.8-3.7,2.38-5.17S174.61,91,174.61,91ZM59.33,118.17s-6-3.73-6.93-14.28c0,0-.81-9.14.48-10.68l1.67-5.11,6.15-2.66S61.77,113.7,59.33,118.17Z" transform="translate(-38.7 -40.19)"/><polygon class="cls-1" points="54.85 128.36 54.85 126.24 83.1 116.35 112.76 128.36 112.76 130.48 85.22 140.36 81.69 140.36 54.85 128.36"/></svg>