<svg id="Layer_2" data-name="Layer 2" xmlns="http://www.w3.org/2000/svg" viewBox="0 0 137.92 116.15"><defs><style>.cls-1{fill:#faf1d7;}</style></defs><title>Untitled-1</title><path class="cls-1" d="M137.2,49.14c-1.39.27-10.22-4.5-10.22-4.5l-1.2-6.24c-.27-1.39-4.11-6.4-6.73-8.77s-3.12-8.75-3.12-8.75c-1-12.75-3.77-15.81-7.08-18s-7.47-1.44-12.06.88-6.85,9.23-6.85,9.23c-2.08.4-3.76,2.89-3.76,2.89s-4.56-1.28-4.92,11.73-21.6,18.55-21.6,18.55c-1.09-2-4.27-3.49-4.27-3.49s-2.59-6-3.68-7.92-2.17-7.49-2.17-7.49c-1.36-3.34-6.86-9.47-8.78-12s-6.61-4.47-6.61-4.47a20.69,20.69,0,0,0-4.57-1.28c-2.21-.29-5.41,1.76-5.41,1.76C22,11,21.1,14,21.1,14c-2.48-1.68-4.56-1.28-5.81-.32s.27,1.39-1.55,3.18-1.7,6.08-1.57,6.77-8.42,16-10,19.18-2,8.3-.9,10.25,6.75,5.17,9.09,6.15a5.18,5.18,0,0,0,4.3-.11c-2.67,4.83-1.2,12.46,1,20S26,91.44,26,91.44s-.08,10.8-.24,13.71S27,107.79,27,107.79s12.54,9.09,13.37,9.65.69-.13,1.39-.27a2.45,2.45,0,0,0,1.25-1l2.08-.4a1.38,1.38,0,0,0,1.12-1.65s.83.56,2.77-.54,2.53-5.52,2.53-5.52a4.29,4.29,0,0,0,5.42-1.76c2.24-3.31.79-14.54.52-15.93s4-9.39,4-9.39a41.09,41.09,0,0,0,6.91,2.27c2.21.29,24.16-9,26.1-10.07s10-11.29,10-11.29c3.74.72,31.61-3.93,32.3-4.07s1.41-3.86,1.84-5.38S137.2,49.14,137.2,49.14ZM25.3,88S19,84.88,17,74.48c0,0-1.74-9-.62-10.67l1.14-5.25,5.84-3.28S27.27,83.28,25.3,88Z" transform="translate(-0.7 -1.5)"/></svg>