<svg id="Layer_1" data-name="Layer 1" xmlns="http://www.w3.org/2000/svg" viewBox="0 0 128.99 119.19"><defs><style>.cls-1{fill:#fff;}</style></defs><title>flower</title><path class="cls-1" d="M-202.54,353.93c-.59,0-.59,0-1.14.54a1.76,1.76,0,0,1-1.21.54,10.79,10.79,0,0,0-1.47.26.88.88,0,0,1-.28,0c-.69,0-1.38-.06-2.06-.13a21.49,21.49,0,0,1-2.13-.35,9.51,9.51,0,0,1-.95-.39c-.25-.09-.52-.09-.77-.16a9.18,9.18,0,0,1-.93-.3c-.48-.18-1-.36-1.42-.57a2.65,2.65,0,0,1-.8-.55,3.85,3.85,0,0,0-1.08-.64c-.13-.07-.25-.17-.38-.25a3.44,3.44,0,0,1-1.05-.93,4.7,4.7,0,0,0-.91-.8c-.14-.11-.3-.21-.44-.33s-.43-.44-.67-.62c-.43-.33-.9-.61-1.33-.95s-.66-.65-1-1-.83-.67-1.23-1-1-.86-1.46-1.32a3.6,3.6,0,0,1-.41-.63c-.58-.1-.88-.6-1.28-1a7.36,7.36,0,0,1-.63-.62c-.35-.38-.82-.68-1-1.21a.26.26,0,0,0-.11-.14c-.38-.17-.55-.55-.82-.83a6.76,6.76,0,0,0-.72-.58.62.62,0,0,1-.27-.47.91.91,0,0,0-.23-.43c-.42-.54-.85-1.07-1.26-1.62s-.42-.57-.83-.71a.65.65,0,0,0-.25.6.35.35,0,0,1,0,.22,3.85,3.85,0,0,0-.24.61c-.2,1-.72,1.92-1,2.92a15.11,15.11,0,0,1-1,2.46c0,.07,0,.17-.1.2-.48.28-.59.83-.9,1.23s-.81,1.08-1.2,1.62a7.33,7.33,0,0,0-1.14,1.82,2,2,0,0,1-.85,1.09,3.28,3.28,0,0,0-.91.91c-.17.21-.28.51-.5.62-.54.28-.84.81-1.35,1.12-.81.5-1.54,1.11-2.34,1.62a2.53,2.53,0,0,1-1.36.58c-.17,0-.34.14-.52.18s-.68.13-1,.2a.94.94,0,0,1-.79.72,1.32,1.32,0,0,1-.44,0,2.89,2.89,0,0,0-.53-.16,4,4,0,0,1-1.7-.71c-.11-.06-.25-.22-.24-.32,0-.31-.19-.49-.3-.72-.31-.59-.66-1.16-1-1.75a3.31,3.31,0,0,1-.22-.76,12.83,12.83,0,0,0-.57-1.72c-.1-.3-.19-.6-.29-.88s-.32-.78-.47-1.17c0-.09,0-.18-.06-.27a1.12,1.12,0,0,0-.1-.31,4.73,4.73,0,0,1-.55-1.78c0-.18-.16-.33-.21-.5a7.58,7.58,0,0,1-.28-1,1.42,1.42,0,0,1,0-.46,1.22,1.22,0,0,0-.11-.67,2,2,0,0,1-.31-1.47,1.28,1.28,0,0,0,0-.51c0-.12,0-.24-.08-.36s-.09-.38-.13-.58-.11-.29-.06-.35.07-.41,0-.61a1.14,1.14,0,0,1,0-.73,1.73,1.73,0,0,0,0-.59c0-.23-.07-.46-.08-.69a4.29,4.29,0,0,1,0-.8c.15-.84.07-1.7.14-2.54a1.18,1.18,0,0,1,.24-.55,1,1,0,0,0-.18-1.43,2.88,2.88,0,0,1-.87-.9.24.24,0,0,0-.09-.11c-.56-.25-.66-.77-.79-1.29a.78.78,0,0,0-.29-.34c-.17-.12-.34-.22-.36-.46,0-.06-.08-.12-.13-.17a1.19,1.19,0,0,1-.31-.67,2,2,0,0,0-.3-.77,3.43,3.43,0,0,1-.45-1.41c0-.57-.17-1.11-.22-1.66,0-.31-.09-.62-.14-.93a2.28,2.28,0,0,0-.12-.33c-.12,0-.23,0-.32.09a12,12,0,0,1-1.37.62,8,8,0,0,1-2.71.52,5.78,5.78,0,0,0-1.48.19,1.82,1.82,0,0,1-1.08,0c-.27.35-.68.28-1.06.3-.77,0-1.53.07-2.3.08a6.38,6.38,0,0,1-1.15-.1c-.9-.17-1.78-.37-2.67-.56l-.37-.07a2.33,2.33,0,0,1-.46-.08,3.82,3.82,0,0,0-1.45-.32,3.81,3.81,0,0,1-.45-.13c-.39-.08-.79-.18-1.19-.23a3,3,0,0,0-1.26,0c-.44.14-.91.21-1.35.36a2.77,2.77,0,0,0-.7.37c-.45.33-.9.67-1.34,1a1,1,0,0,0-.27.31.44.44,0,0,1-.57.2,2.65,2.65,0,0,0-1.42-.18.91.91,0,0,1-.23,0c-.4-.06-.54-.31-.36-.67a6.58,6.58,0,0,1,.47-.7,1.93,1.93,0,0,0,.22-.36c.13-.29.25-.59.36-.89s.08-.33.13-.49.09-.29.14-.44.07-.25.12-.41a1,1,0,0,0-.25,0,5.39,5.39,0,0,1-1.38.42c-.59.08-1.16.24-1.75.32a12.26,12.26,0,0,1-1.36.08l-.56,0c-.26,0-.53,0-.79,0l-1.29-.09h-.59c-.16,0-.35.06-.46,0-.55-.32-1.23-.34-1.74-.75a.67.67,0,0,0-.39-.15,1.62,1.62,0,0,1-1.06-.43,1.38,1.38,0,0,0-.71-.33c-.34,0-.53-.36-.75-.61a1.1,1.1,0,0,1-.09-.14l-.28,0a.9.9,0,0,1-.1-.12c-.16-.42-.59-.49-.91-.68a3.64,3.64,0,0,1-.77-.65,3.9,3.9,0,0,1-.64-1.25A.52.52,0,0,0-300,316a3.4,3.4,0,0,1-.73-1.44,9,9,0,0,1-.3-.92,1.44,1.44,0,0,0-.84-.94c-.41-.2-.9-.26-1.06-.79-.46-.16-.71-.68-1.24-.76-.12,0-.23-.12-.38-.2a1.94,1.94,0,0,1,1-.89,1.2,1.2,0,0,0,.28-.13l1.17-1,1-.81c.22-.18.46-.33.66-.53a5.57,5.57,0,0,0,.6-.76c.41-.61.83-1.21,1.21-1.84.25-.4.42-.86.68-1.25a9,9,0,0,1,.87-1c.43-.47.88-.92,1.3-1.41a2.51,2.51,0,0,1,.88-.74,1.05,1.05,0,0,0,.29-.23,1.88,1.88,0,0,1,.3-.27,5.27,5.27,0,0,0,1.35-.89,3,3,0,0,1,.66-.43,8.79,8.79,0,0,1,1.52-.87.58.58,0,0,0,.32-.19,1,1,0,0,1,.65-.41,1.36,1.36,0,0,0,.43-.18,6.28,6.28,0,0,1,1.5-.66,1,1,0,0,0,.26-.16,3.09,3.09,0,0,1,.57-.4,7.65,7.65,0,0,1,1.56-.57c.54-.12.62-.24.56-.79s-.12-.88-.18-1.32a.93.93,0,0,1,0-.23,13.91,13.91,0,0,0,.13-1.93c0-.33.11-.65.14-1s.17-.64.18-1,.24-.82.24-1.26c0-.26.23-.5.31-.77a6.78,6.78,0,0,1,1.78-2.69c.21-.25.25-.3.05-.55a1.37,1.37,0,0,1-.21-.5c-.12-.4-.3-.77-.45-1.16a5.27,5.27,0,0,1-.68-1.87L-284,280a.67.67,0,0,0-.21-.84,1,1,0,0,1-.3-.56.6.6,0,0,0-.11-.26,4.47,4.47,0,0,1-.59-1.61c-.08-.28-.2-.55-.29-.83a1.49,1.49,0,0,1,0-1.06c0-.07.08-.17.05-.23a2.56,2.56,0,0,1-.1-1.23,6.22,6.22,0,0,1,.1-1.05c0-.29.08-.58.13-.87a1.9,1.9,0,0,1,.45-1.05,7.35,7.35,0,0,0,1.3-1.58.53.53,0,0,0,.09-.33,2,2,0,0,1,1-1.9s.07,0,.08-.05c.27-.52.74-.37,1.15-.28a8.27,8.27,0,0,1,2.39.78c.52.29,1.17.35,1.71.62a6.17,6.17,0,0,0,1.39.3c.54.13,1,.36,1.58.53.18.06.38.09.66.15-.25-.52-.3-1-.53-1.41a8.34,8.34,0,0,1-.52-1.65,3.57,3.57,0,0,1-.1-.35c-.08-.33-.16-.66-.25-1s-.15-.57-.23-.85a1.26,1.26,0,0,1,.09-1.1.72.72,0,0,1-.15-.57c.08-.74,0-1.49.1-2.23a10.6,10.6,0,0,1,.27-1.34c.13-.52.25-1.06.41-1.57s.32-.81.48-1.21a3.45,3.45,0,0,0,.16-.52c.1-.51.19-1,.26-1.52a4,4,0,0,0-.19-1.32,2.51,2.51,0,0,1-.11-1.46.76.76,0,0,1,.44-.52c.62.21.88.77,1.18,1.27a2.71,2.71,0,0,0,1.26,1.13,5.19,5.19,0,0,1,.65.37c.26.17.42.15.56-.12,0-.07.05-.15.08-.22a11.85,11.85,0,0,0,.76-2.41,1.26,1.26,0,0,1,1.18-1c.6-.08,1.2-.19,1.8-.32a3.16,3.16,0,0,1,1.3,0c.42.08.84.21,1.27.26s.87,0,1.3,0h.38a15.56,15.56,0,0,0,2.05.12,2.61,2.61,0,0,1,.55.08l1.78.41.83.16,1.59.38a2.73,2.73,0,0,0,.41.1c.31.05.44-.06.45-.37s0-.66,0-1a3.68,3.68,0,0,1,.78-1.81c.09-.15.29-.23.44-.34s.15-.06.2-.12a1.62,1.62,0,0,1,1.2-.5,8.62,8.62,0,0,1,1.35.05c.31,0,.63,0,.94.07s.6-.28.82-.53a7.39,7.39,0,0,0,1.19-1.93c.15-.36.23-.75.4-1.1.26-.55.22-1.21.6-1.72a.22.22,0,0,0,0-.18,1.45,1.45,0,0,1,.5-1.07,2.4,2.4,0,0,0,.27-.47,3.58,3.58,0,0,1,.24-.6,4.53,4.53,0,0,0,.65-1.3c.13-.44.51-.66.81-.94s.35-.06.49.07.51.59.81.83a19.67,19.67,0,0,0,2,1.76s.06.05.08.05c.5-.18.81.31,1.26.35a7.26,7.26,0,0,1,1.16.34c.21.06.42.1.63.14.43.08.86.19,1.29.24s1,.08,1.51.15a3.36,3.36,0,0,1,1.37.52,9.13,9.13,0,0,1,1.77,1.29c.41.43,1,.69,1.34,1.15.12.14.36.18.54.26a.71.71,0,0,1,.49.45,3.64,3.64,0,0,0,.53.79s.07.07.08.11a17.86,17.86,0,0,0,.8,1.78,2,2,0,0,1,.1.32c.13.5.22,1,.38,1.49s.34.87.52,1.33c.07,0,.15,0,.18-.08a6.9,6.9,0,0,1,.48-.89,6,6,0,0,0,.57-.76,3.54,3.54,0,0,1,1-1.07l0,0a5.57,5.57,0,0,1,2.23-1.17c.46-.2.93-.37,1.4-.54a7.18,7.18,0,0,1,.92-.33,15.29,15.29,0,0,1,2.32-.53c.43,0,.85-.2,1.27-.28a5.27,5.27,0,0,1,.79-.07c.47,0,.94,0,1.41,0a4.43,4.43,0,0,1,1.88.73,3.94,3.94,0,0,0,.55.26,1.06,1.06,0,0,1,.64.57,3.57,3.57,0,0,0,.46.64l.33.51c0,.06.07.15.13.17a1.3,1.3,0,0,1,.69.71s0,.06,0,.08a3.49,3.49,0,0,1,.76,1.21,20.41,20.41,0,0,1,1,2.11,9.78,9.78,0,0,1,.51,2,3.43,3.43,0,0,0,.43,1.31.57.57,0,0,1,0,.14c.14.57.27,1.14.43,1.71.1.33.25.65.37,1a.93.93,0,0,1,.1.26c.07.45.38.86.25,1.34a0,0,0,0,0,0,.05,8.38,8.38,0,0,1,.39,1.57,4.72,4.72,0,0,1,.13,1c0,.22.06.43.08.65a1.91,1.91,0,0,1,0,.47,1.88,1.88,0,0,0,.07,1,.83.83,0,0,1,0,.41,3,3,0,0,0,0,1.19c.43-.38.81-.72,1.2-1.05a2.13,2.13,0,0,1,.47-.31,4.88,4.88,0,0,0,1.58-1.06,3.45,3.45,0,0,1,1.13-.58,2.62,2.62,0,0,1,.63-.14,1.78,1.78,0,0,1,.64-.07,2.54,2.54,0,0,0,.83,0c.24,0,.47-.08.7-.07s.71.08,1.06.12c.08,0,.18.06.23,0,.41-.25.76,0,1.14.1.82.24,1.57.67,2.4.9a7.06,7.06,0,0,1,2.32,1.21,1.08,1.08,0,0,0,.35.22,4.28,4.28,0,0,1,1.47,1.16,3.07,3.07,0,0,1,.42.62.32.32,0,0,0,.38.19c.33-.1.48.13.59.34a5.71,5.71,0,0,1,.28.79c0,.12.07.27.16.33s.14.31,0,.5a.81.81,0,0,1,.43.71,3.26,3.26,0,0,0,.32,1.26,6.6,6.6,0,0,1,.39,1.76,1.28,1.28,0,0,1,0,.82c0,.06.07.17.1.26a6.49,6.49,0,0,1,.19.76,2.81,2.81,0,0,1,0,.65,30.58,30.58,0,0,0,.28,3.17,2.37,2.37,0,0,1-.2,1.5.28.28,0,0,0,0,.13c0,.34.05.67.06,1a1.13,1.13,0,0,1-.08.59,1.45,1.45,0,0,0-.13.7c0,.29-.11.58-.13.87a15.11,15.11,0,0,1-.71,2.74c-.14.48-.35.93-.53,1.4,0,.08,0,.18,0,.27-.09.31-.2.61-.3.92s-.2.69-.31,1a2.06,2.06,0,0,1-.15.48,3.49,3.49,0,0,0-.37,1.1,3.08,3.08,0,0,1-.31.81c-.16.34-.35.67-.5,1a4.38,4.38,0,0,1-.22.64c-.3.42-.62.82-1,1.21s-.68.76-1,1.15a1.48,1.48,0,0,0-.14.25l1.27.5a.33.33,0,0,1,.14,0c.65.5,1.47.66,2.16,1.1a26.23,26.23,0,0,1,3.09,2.1,26.7,26.7,0,0,1,3.32,3.32,10,10,0,0,1,1.75,3c0,.13,0,.28.11.4a.64.64,0,0,0,.16.2,8,8,0,0,0,0,.85.59.59,0,0,1-.19.51,1.13,1.13,0,0,0-.22.82,4.28,4.28,0,0,1,0,1.19,2.41,2.41,0,0,0,.08.83c0,.12.08.28,0,.36-.2.34,0,.6.11.88a1.12,1.12,0,0,1,.1.41,5.7,5.7,0,0,0,.91,2.32.64.64,0,0,0,.33.25c.48.19,1,.34,1.45.52a4.8,4.8,0,0,1,.55.28c-.46.49-.77,1-1.52,1a5.58,5.58,0,0,0-1.33.21.49.49,0,0,0-.32.24,2.82,2.82,0,0,1-1.12,1.1c-.05,0-.14.05-.16.1-.11.28-.24.53-.61.55,0,0-.11.12-.12.18,0,.6-.44.94-.79,1.33s-.55.55-.8.84a2.91,2.91,0,0,0-.65,1.33,1.47,1.47,0,0,1-.59.88c-.21.14-.4.29-.61.44a5.42,5.42,0,0,1-2,.73,14.06,14.06,0,0,0-1.43.47c-.08,0-.17.1-.26.09a6,6,0,0,0-2,.29,2,2,0,0,1-.23,0,12.84,12.84,0,0,1-2.48,0c-.5,0-1-.11-1.49-.14a1.73,1.73,0,0,0-.51.05,1.74,1.74,0,0,1-1.15-.08,1.14,1.14,0,0,0-.37-.05,6.91,6.91,0,0,1-1.3-.12,3.1,3.1,0,0,1-1.73-.9,1.26,1.26,0,0,0-.61-.39c-.36-.11-.63-.5-1-.37l-1.05-.93a.51.51,0,0,0-.48-.1c-.27.06-.56.1-.83.14a.53.53,0,0,0-.48.38.78.78,0,0,1-.64.49c-.13,0-.27.06-.4.11-.44.16-.5.46-.19.82a1.5,1.5,0,0,1,.28.47c.33.87.63,1.76,1,2.63a7.73,7.73,0,0,1,.57,1.7.36.36,0,0,0,.09.21,1.66,1.66,0,0,1,.29.83.54.54,0,0,0,.09.27,5.68,5.68,0,0,1,.66,2.42c0,.09,0,.21,0,.27a3.84,3.84,0,0,1,.5,1.74c.06.3.15.6.23.9a1.16,1.16,0,0,1,0,.18,11.66,11.66,0,0,0,.48,2.2c.1.52.1,1.06.16,1.59a6.8,6.8,0,0,0,.17,1.1,2.24,2.24,0,0,1,.1,1.06,4.58,4.58,0,0,0,0,.74c0,.8,0,1.6,0,2.4v1.22a1.21,1.21,0,0,1,0,.19c-.14.59-.29,1.18-.43,1.77,0,.12-.08.24-.1.36a9.45,9.45,0,0,1-.48,2.09c-.22.59-.36,1.2-.58,1.78a10.67,10.67,0,0,1-.53,1C-202.38,353.44-202.44,353.66-202.54,353.93Zm-39-96.7a1.2,1.2,0,0,0,.13.39,15.65,15.65,0,0,0,1,1.61.84.84,0,0,1,.11.21c.09.21.17.43.27.64s.31.6.46.9.24.8.46,1.17a11.11,11.11,0,0,1,.48,1.25,20.49,20.49,0,0,1,.78,2c.18.58.4,1.15.52,1.74.07.31.19.43.46.47.27-.23.11-.5.1-.76a15.09,15.09,0,0,0-.92-3.86,4.91,4.91,0,0,0-.65-1.09,2.46,2.46,0,0,0-.44-.7,1.59,1.59,0,0,1-.53-.87s-.05-.07-.08-.12c-.18-.32-.38-.63-.54-1a5.52,5.52,0,0,0-1.25-1.73,2.23,2.23,0,0,0-.4-.24c.17-.29-.15-.93-.4-1.05s-.7-.42-.66-.92a.25.25,0,0,0-.08-.16c-.41-.23-.38-.68-.58-1.08-.28.08-.39-.14-.39-.36a1.41,1.41,0,0,0-.4-.87c-.19-.26-.46-.46-.5-.82,0,0-.08-.09-.11-.14l-.74-1.24a5.09,5.09,0,0,0-.48-.78c-.28-.3-.58-.59-.86-.9a2,2,0,0,0-1.06-.8A1,1,0,0,1-248,248a7.77,7.77,0,0,0-1.3-.63,5.08,5.08,0,0,0-2.32-.22,1.59,1.59,0,0,0-1.43,1.25,6.35,6.35,0,0,0-.08,1c0,.19.06.37.06.55,0,.59.09.65.65.82a11.27,11.27,0,0,1,2.34.64c.62.35,1.3.61,1.92,1s1,.66,1.47,1l.42.3,1,.64c.37.23.75.44,1.09.7a18.45,18.45,0,0,1,2,1.73A6.38,6.38,0,0,0-241.56,257.23Zm31.95,39.84-.31-.1c.08.18.2.14.32.09l-.13.65a.17.17,0,0,1-.09.06c-.14,0-.33.12-.42.06s0-.27.06-.41,0-.05,0-.12l-.3.2-.8.56a3.58,3.58,0,0,1-.46.29,3.15,3.15,0,0,1-.88.51,12.84,12.84,0,0,0-2.42,1c-.35.18-.71.33-1.06.49a1.38,1.38,0,0,0-.3.14,1.09,1.09,0,0,1-.73.26.25.25,0,0,0-.19.09,1.83,1.83,0,0,1-1.08.6,1.78,1.78,0,0,0-.45.13,16.9,16.9,0,0,1-2.11,1,3.74,3.74,0,0,0-.43.23,2.76,2.76,0,0,0,.29.67,2.53,2.53,0,0,1,.42,1.69,4.16,4.16,0,0,0,.08,1.49,6.35,6.35,0,0,1,.4,2.25,4,4,0,0,0,.07.46c.05.32.14.64.16,1,0,.59,0,1.18,0,1.77a14.72,14.72,0,0,1,0,2.1c0,.17,0,.34,0,.51l-.27,1.94a1.5,1.5,0,0,1,0,.37,1,1,0,0,0,.32,1.15,4.7,4.7,0,0,0,1.27,1.07c.75.33,1.47.74,2.24,1,.48.18.91.56,1.47.51l0,0a4.19,4.19,0,0,0,1.52.57,11.69,11.69,0,0,0,2.68.42.9.9,0,0,0,.37,0,5.05,5.05,0,0,1,1.45-.23c.45-.06,2.61-.55,3-.6a7.9,7.9,0,0,1,2.43-.3,6.67,6.67,0,0,0,.71.35,3,3,0,0,0,.79.28,3.41,3.41,0,0,0,1.66-.28,2.88,2.88,0,0,1,.75-.25,1.84,1.84,0,0,0,1.35-.79,1.12,1.12,0,0,1,.43-.41,1,1,0,0,1,.85-.15,12.1,12.1,0,0,0,1.2.41,3.71,3.71,0,0,0,1.78.2.87.87,0,0,0,0-.1c-.47-.41-.94-.83-1.42-1.22a.79.79,0,0,1-.34-.63,3.14,3.14,0,0,0-.13-1.11c-.27-.62-.06-1.28-.25-1.89a.27.27,0,0,1,0-.18.71.71,0,0,0,0-.59,2.05,2.05,0,0,1-.1-.54,1,1,0,0,0-.38-.83c-.48-.39-.57-1-.85-1.48a10.52,10.52,0,0,1-.53-1.49,9.32,9.32,0,0,0-.6-1.37c-.41-.7-.94-1.32-1.37-2a26.25,26.25,0,0,0-2.72-3.5c-.3-.33-.6-.67-.92-1-.55-.57-1.11-1.13-1.68-1.69-.38-.36-.75-.73-1.15-1.08s-1-.8-1.45-1.24A5.61,5.61,0,0,0-209.61,297.07Zm-58.86,2.53c-.09-.36-.43-.4-.71-.49s-.72-.17-1.08-.28-.8-.32-1.21-.45a.83.83,0,0,0-.4.07l-.77.32a1.84,1.84,0,0,0-.47.22,16.46,16.46,0,0,0-1.39,1.26c-.41.44-.74,1-1.14,1.42s-1,1-1.43,1.55a2.17,2.17,0,0,0-.57.91,1.14,1.14,0,0,1-.15.29,7.51,7.51,0,0,0-1.12,2.46c-.14.44-.21.91-.33,1.36-.2.8-.42,1.6-.64,2.4-.09.33-.21.65-.3,1a7.25,7.25,0,0,0-.32,1.36,7.19,7.19,0,0,0-.09,2.12c0,.1,0,.21-.07.32-.18.71-.72,1.28-.77,2.05a.43.43,0,0,1-.05.13c-.23.47-.32,1-.6,1.46-.17.27-.17.65-.42.91a.7.7,0,0,0-.06.23c-.06.17-.11.35-.17.53-.15.46-.32.91-.47,1.36,0,0,0,.06,0,.07.31-.05.63-.08.94-.16s.8-.27,1.2-.4a3.64,3.64,0,0,1,.89-.27,8,8,0,0,1,2.53,0l2.82.64c1.18.27,2.37.54,3.56.77a3.92,3.92,0,0,0,1.4.1,12.16,12.16,0,0,1,1.81-.15c.77,0,1.53-.14,2.29-.21s1.5-.13,2.25-.23A.78.78,0,0,0-263,322a.7.7,0,0,1,.69-.3,3.77,3.77,0,0,0,1.67-.4.41.41,0,0,0,.27-.4.77.77,0,0,1,.44-.72,5.87,5.87,0,0,1,1.19-.56,5.43,5.43,0,0,0,1.77-.92,13,13,0,0,0,1.85-1.39,7.22,7.22,0,0,1,1.17-.83,3.92,3.92,0,0,0,.37-.34c.08-.08.13-.19.22-.24a2.91,2.91,0,0,0,.74-.62c.42-.5.88-1,1.32-1.44.16-.17.3-.37.47-.55s.37-.32.53-.51c.29-.34.57-.69.83-1.06a2.44,2.44,0,0,0,.58-1.31,1.41,1.41,0,0,1,.42-.92,1.07,1.07,0,0,0,.33-.69.85.85,0,0,1,.13-.44,5.67,5.67,0,0,0,.85-1.77,22,22,0,0,0,.68-2.13,3.64,3.64,0,0,0,.16-.63c.08-.47.15-.94.23-1.42l-.1,0c-.35-.13-.38-.16-.2-.49a1.86,1.86,0,0,1,.5-.66c.26-.2.46-.37.4-.72a.18.18,0,0,1,.07-.17c.26-.24.22-.63.41-.88a1.15,1.15,0,0,0,.13-.87,1.62,1.62,0,0,1,.11-1c0-.07,0-.19,0-.29a1.17,1.17,0,0,0-.28.11c-.38.27-.74.57-1.12.84s-.71.45-1.08.66a1.4,1.4,0,0,1-.39.14c-1.5.33-3,.71-4.51.9-.27,0-.53.1-.8.13a2.58,2.58,0,0,1-.83,0,4.18,4.18,0,0,0-1.58.06,4.87,4.87,0,0,1-1.71-.19,2.1,2.1,0,0,1-.76-.22.86.86,0,0,0-1,0,7.64,7.64,0,0,1-1.38.59c-.81.23-1.64.41-2.47.58a1.54,1.54,0,0,1-1-.09,2.5,2.5,0,0,0-.73-.16,10,10,0,0,1-1.89-.26c-.31-.1-.65-.14-.95-.27s-.81-.11-.92-.62Zm47.37,21.88a5.65,5.65,0,0,0-1.3,2.17,2.89,2.89,0,0,1-.64,1,.69.69,0,0,0-.22.34.72.72,0,0,1-.32.5,3.52,3.52,0,0,0-.6.62c-.6.7-1.24,1.37-1.88,2a12.61,12.61,0,0,1-1.19,1.12.74.74,0,0,0-.28.66c0,.4.08.8.11,1.21,0,.14,0,.28,0,.42a2.37,2.37,0,0,0,0,.46c.17.53.34,1.07.55,1.59.11.25.07.37-.16.49s-.23.15-.36.21a.53.53,0,0,1-.58,0c-.3-.23-.69-.38-.83-.78a.87.87,0,0,0-.16-.23l-1.09-1.23a1,1,0,0,0-.24-.21c-.36-.19-.73-.36-1.09-.53a1.43,1.43,0,0,0-.33,1.18.65.65,0,0,1-.1.56,1.85,1.85,0,0,0-.22.93,2.31,2.31,0,0,0,.44,1,17.85,17.85,0,0,0,1.3,1.46c.39.41.83.78,1.2,1.21s.59.84.88,1.26l.94,1.34c.28.4.6.77.84,1.19a2.08,2.08,0,0,0,.73.77,1,1,0,0,1,.38.4,2,2,0,0,0,.68.69c.15.11.35.16.49.28a4,4,0,0,1,1.12,1.09,2.84,2.84,0,0,0,.68.6l.52.39c.52.42,1,.85,1.58,1.25s1.23.83,1.85,1.24a4.76,4.76,0,0,0,.79.5c.59.27,1.21.49,1.82.72l.77.31c.75.34,1.51.66,2.24,1a7.42,7.42,0,0,1,1.7.76c.06.06.18,0,.27.07a8.6,8.6,0,0,1,1,.35,5.34,5.34,0,0,0,2.25.53c.18,0,.37,0,.56,0,.42,0,.84.07,1.26.06a2.32,2.32,0,0,0,1.37-.27c.44-.28.94-.46,1.39-.76a2.31,2.31,0,0,0,.83-1,4.89,4.89,0,0,0,.45-2.17c0-.23.07-.46.09-.69a2.6,2.6,0,0,0,.06-1.11.66.66,0,0,1,0-.28c0-1.09.1-2.19.13-3.28a3.43,3.43,0,0,0-.12-1.39,1.27,1.27,0,0,1-.1-.5,10.65,10.65,0,0,0-.13-2.18,8.56,8.56,0,0,0-.19-1c-.09-.38-.21-.75-.3-1.13s-.1-.68-.21-1-.12-.94-.46-1.31c0,0,0-.06,0-.09a8.29,8.29,0,0,0-.25-.85,1.74,1.74,0,0,1-.19-.9.57.57,0,0,0,0-.32,7.37,7.37,0,0,1-.88-2.25.55.55,0,0,0-.06-.18,13.64,13.64,0,0,1-.92-2.15c-.25-.77-.62-1.5-.94-2.24a.84.84,0,0,0-.15-.18c-.15-.2-.31-.4-.45-.6s-.32-.49-.49-.75l-.79.26a4.91,4.91,0,0,1-2.64.45,1,1,0,0,0-.38,0,6.35,6.35,0,0,1-2,0,.21.21,0,0,1-.13,0,.68.68,0,0,0-.57-.11,1.91,1.91,0,0,1-.47,0l-.83-.14c-.31-.07-.64-.14-.94-.24-.11,0-.17-.18-.23-.26a2,2,0,0,0-.53-.09,1.1,1.1,0,0,1-.71-.16,2.44,2.44,0,0,0-.94-.39,1.78,1.78,0,0,1-.86-.33c-.38-.24-.78-.45-1.14-.72A6.34,6.34,0,0,1-221.1,321.48Zm-19-17.18a1.89,1.89,0,0,0-.25-.54c-.26-.33-.48-.73-1-.77s-.77-.11-1.15-.17l-.89-.09a.36.36,0,0,0-.44.25c-.26.65-.52,1.3-.82,1.93a15.15,15.15,0,0,1-.94,1.73,1.11,1.11,0,0,0-.13,1.37.48.48,0,0,1,0,.61,1,1,0,0,0-.18.89,1.82,1.82,0,0,1,0,.33c0,.44,0,.89.09,1.34s.15,1,.21,1.52a.64.64,0,0,1-.17.57.38.38,0,0,0-.07.43c.14.41.23.84.38,1.24s.4,1,.61,1.47a.49.49,0,0,0,.18.2.82.82,0,0,1,.29.71,1.24,1.24,0,0,0,.06.51c.33.74.68,1.47,1,2.21.15.31.32.6.5.9s.31.42.44.65.25.58.42.84c.29.44.63.84.93,1.28a8,8,0,0,0,2.4,2.2,9.78,9.78,0,0,0,2.15.93,10.08,10.08,0,0,1,2.2.77,12.06,12.06,0,0,1,1.91,1.09.25.25,0,0,0,.37,0,1.68,1.68,0,0,1,.29-.25c.24-.12.48-.32.79-.11,0,.24,0,.49,0,.74a.44.44,0,0,0,.25.46l1.13.74.7.44c.06-.18.09-.31.13-.44.09-.32.17-.64.28-.95a3.15,3.15,0,0,1,1.06-1.23c.47-.41,1-.77,1.43-1.2s.7-.86,1.06-1.29a12.15,12.15,0,0,0,.92-1.12c.36-.54.65-1.13,1-1.7,0,0,0,0,0-.08.13-.5.25-1,.38-1.51a2.32,2.32,0,0,1,.13-.45,10.52,10.52,0,0,0,.67-2.65,18.4,18.4,0,0,0,.28-2.09,6.42,6.42,0,0,0,0-1,14.12,14.12,0,0,1,0-1.45,8.14,8.14,0,0,0-.17-2.51c-.08-.32-.06-.65-.11-1-.11-.79-.21-1.58-.36-2.36a5.76,5.76,0,0,0-.35-1.16,2.71,2.71,0,0,1-.26-.74,2.57,2.57,0,0,0-.25-.8c-.22-.45-.48-.87-.74-1.3-.07-.11-.18-.26-.29-.28-.54-.08-1.09-.13-1.63-.17a9.19,9.19,0,0,1-2-.07c-.17-.05-.34-.22-.49-.2a1.9,1.9,0,0,1-.86-.19,3.21,3.21,0,0,1-2-1.29,1.4,1.4,0,0,0-.18-.13,2.49,2.49,0,0,1-.43-.29l-1.25-1.19c-.09-.09-.19-.16-.32-.27a2.87,2.87,0,0,0-.27.46,1.43,1.43,0,0,1-.38.57c-.51.43-1,.87-1.52,1.33a4.5,4.5,0,0,1-1.43,1.09,1.26,1.26,0,0,0-.3.23c-.08.07-.16.17-.26.19A11.06,11.06,0,0,1-240.11,304.3Zm52.73-34c-.48-.16-.52-.27-.55-.78a4.34,4.34,0,0,0-.18-.94,4.77,4.77,0,0,0-1-1.84,6.21,6.21,0,0,0-1.84-1.58,2.14,2.14,0,0,1-.73-.43,2.86,2.86,0,0,0-.83-.51c-.36-.17-.72-.36-1.1-.5s-.77-.17-1.12-.33a2.22,2.22,0,0,0-1.11-.39l0,0a1.66,1.66,0,0,0-1.2-.3c-.73,0-1.46.06-2.19.09a.86.86,0,0,0-.23.06,4.69,4.69,0,0,0-1.6,1.19c-.28.34-.62.62-.93.94-.15.15-.29.32-.44.48s-.39.4-.6.59-.43.32-.63.49c-.56.5-1.1,1-1.66,1.5a20.09,20.09,0,0,1-1.61,1.28,17.61,17.61,0,0,0-1.87,1.7.7.7,0,0,0-.2.5c0,.72.06,1.43,0,2.15a2.13,2.13,0,0,0,.13,1.06c.28.68.62,1.33.95,2a.89.89,0,0,0,.29.29,3.13,3.13,0,0,1,.78.88c.19.28.29.66.65.75.05.31.1.6.16.89a.64.64,0,0,0,.18.26l1,.74s.12.06.15.11c.3.47.23,1.05.47,1.54,0,0,0,.06,0,.09-.08.44-.13.88-.23,1.32a5,5,0,0,1-.28,1.12,10.15,10.15,0,0,0-.47,1.12,1.33,1.33,0,0,1-.09.21,1.73,1.73,0,0,0-.26,1,8.64,8.64,0,0,1,0,.88,3.38,3.38,0,0,0,.07,1.7.81.81,0,0,1-.05.5.62.62,0,0,0,.59.88,25.89,25.89,0,0,1,2.9.29,10.07,10.07,0,0,1,2.6.68c.75.34,1.46.76,2.18,1.16a.86.86,0,0,0,.73.17.61.61,0,0,1,.36.08,7.16,7.16,0,0,1,.87.45,4.2,4.2,0,0,0,2.42.33.41.41,0,0,0,.17-.07,2.33,2.33,0,0,0,.77-.6,3.69,3.69,0,0,1,.85-.72,11.24,11.24,0,0,0,1.33-1.25.84.84,0,0,0,.36-.61.61.61,0,0,1,.43-.56,1,1,0,0,0,.43-.4c.23-.47.4-1,.61-1.43a13.2,13.2,0,0,0,.47-1.51,6.38,6.38,0,0,1,.63-1.69,5,5,0,0,1,.41-1.43,2.32,2.32,0,0,0,.14-.77,1.27,1.27,0,0,1,.09-.64,1,1,0,0,0,.09-.89c0-.08,0-.22,0-.32,0-.55.07-1.1.1-1.64a2.28,2.28,0,0,1,0-.27,3.92,3.92,0,0,0,0-1.77c-.21-1-.31-2-.46-3,0-.06,0-.15,0-.18s.06-.22,0-.34c-.11-.37-.21-.75-.31-1.13a2.18,2.18,0,0,0-.21-.75.58.58,0,0,1,0-.75C-187.44,270.74-187.46,270.68-187.38,270.33Zm-30-4.2c-.34.16-.65.3-1,.47s-.75.44-1.11.68-.62.56-1,.64a9.07,9.07,0,0,0-2.06,1.17c-.37.18-.61.61-.92.9a26.38,26.38,0,0,1-2.11,2.12c-.07.05-.1.15-.16.23a4,4,0,0,1-.49.66c-.41.38-.85.72-1.27,1.08a.26.26,0,0,0-.06.13c-.11.37-.43.55-.72.75l-.34.25-2.4,2.17a3.07,3.07,0,0,1-.42.28l-.4.23a3.56,3.56,0,0,0,.78,1.6,1.47,1.47,0,0,0,.25.5c.23.26,1.54,1.88,1.71,2.12s.36.57.53.86c.05.09.14.2.12.29-.06.28.1.5.17.75s.3,1.43.35,1.56.07.12.07.17c-.05.35-.1.71-.17,1.06-.11.58-.23,1.16-.37,1.73a5.78,5.78,0,0,1-.29.89,3,3,0,0,0-.27.63,1,1,0,0,1-.35.47,5.22,5.22,0,0,1-.52.4l.32,1.14s0,0,0,0a3.2,3.2,0,0,1,1.05.85c0,.07.14.17.21.17a2.5,2.5,0,0,1,.93.27.38.38,0,0,1,.32.38,2.64,2.64,0,0,0,.07.3c-.05.17-.4.07-.3.31.25.1.46.21.69.28a1.52,1.52,0,0,0,.59.09c.85-.09,1.7-.22,2.55-.33a12.46,12.46,0,0,0,3.06-.7c.44-.18.9-.34,1.34-.54s1.08-.56,1.63-.82a1.36,1.36,0,0,0,.58-.38.42.42,0,0,1,.48-.19c.12,0,.29-.06.42-.13a5.39,5.39,0,0,0,.52-.3,6.75,6.75,0,0,0,1.16-.7,11.1,11.1,0,0,0,1.74-1.47l.11-.09a9.26,9.26,0,0,0,1.89-1.65,3.72,3.72,0,0,0,.79-1.13c.11-.3.32-.58.42-.89a6.06,6.06,0,0,0,.33-2.24c0-.2.1-.41.06-.59-.12-.55.16-1.13-.17-1.65.12-.5-.15-.95-.21-1.43a1.82,1.82,0,0,0-.11-.3,4.21,4.21,0,0,1-.12-.48,1.63,1.63,0,0,0-.62-1.26.67.67,0,0,1-.24-.39c-.11-.51-.18-1-.27-1.54a14.42,14.42,0,0,0-.45-2,4.52,4.52,0,0,1,0-.91c0-.42,0-.85-.29-1.19a1.4,1.4,0,0,0,.21-1.12A.49.49,0,0,1-211,270a2.08,2.08,0,0,0-.22-1.65c-.21-.48-.71-.85-.54-1.47,0,0,0-.08-.06-.12a5.79,5.79,0,0,1-.42-.59,2.93,2.93,0,0,0-1.76-1.38,1,1,0,0,0-.54-.05c-.45.11-.9.27-1.34.41a.61.61,0,0,0-.41.4C-216.55,266.17-216.94,266.33-217.38,266.13Zm18,55.42a1.57,1.57,0,0,0,.25.43,3.38,3.38,0,0,0,1.8.94c.8.11,1.6.28,2.41.41.52.08,1,.16,1.58.21s1,0,1.49,0h1.26l1.43,0a1,1,0,0,0,.23-.05l.45-.1a13.6,13.6,0,0,0,1.92-.39,7.36,7.36,0,0,0,2.86-1.77,4,4,0,0,0,.77-.76,5.65,5.65,0,0,1,.6-.71,3.18,3.18,0,0,1,.62-.7.53.53,0,0,0,.22-.29,1,1,0,0,1,.4-.6c.17-.11.19-.46.36-.57a2.53,2.53,0,0,0,.9-.91,4.85,4.85,0,0,1,.35-.48c.21-.3.21-.71.54-1,.05,0,0-.27-.06-.38-.15-.28-.33-.54-.49-.81a.72.72,0,0,1-.08-.22c-.11-.47-.2-1-.35-1.41a2.53,2.53,0,0,1-.06-1.25,1.22,1.22,0,0,0,0-.32,10,10,0,0,1-.19-1.07c0-.51,0-1,0-1.54,0-.28,0-.56,0-.84s-.05-.49,0-.74a1.36,1.36,0,0,0-.29-1,3.88,3.88,0,0,1-.22-.46,7.25,7.25,0,0,0-.48-.86c-.18-.25-.4-.47-.6-.7s-.58-.73-.9-1.07-.81-.81-1.23-1.22l-.32-.27-1.45-1.07s-.05,0-.06-.07a1.89,1.89,0,0,0-.9-.73,4.73,4.73,0,0,1-.46-.32,1,1,0,0,0-.26-.19,5.56,5.56,0,0,1-1.46-.83c-.06-.07-.17-.09-.25-.13l-1.37-.69a2,2,0,0,0-.29-.15c-.5-.13-1-.23-1.5-.39a10.42,10.42,0,0,1-1.44-.55,1.46,1.46,0,0,0-1.22-.14c-.33.11-.7.32-1,.09a5.33,5.33,0,0,1-1.05-.67,2.84,2.84,0,0,0-1-.61c-.51-.21-1.06-.36-1.59-.54l-.48-.17-1.44-.52-.25-.11.41-.18c-.21,0-.46.08-.55,0-.28-.24-.59-.07-.88-.15a3.53,3.53,0,0,0-.65-.11c-.66-.09-1.32-.2-2-.25a10,10,0,0,0-1.22,0c-.2,0-.28.17-.36.32s-.27.53-.4.8l-.46.85a5.15,5.15,0,0,0,.81.62,2.94,2.94,0,0,1,1,.8s.14.06.21.1a3.17,3.17,0,0,1,.34.28c.1.1.17.22.27.32s.54.37.69.63a.77.77,0,0,0,.58.39.4.4,0,0,1,.32.24c.09.25.19.51.51.57.06,0,.12.13.16.21a16.53,16.53,0,0,0,1.33,2c0,.06.13.08.17.14.24.32.66.52.7.94.2.16.5.29.53.46s.41.27.47.53a.34.34,0,0,0,.06.12,4.47,4.47,0,0,0,.83,1.19.78.78,0,0,1,.19.32c.08.16.13.33.21.5.19.41.41.8.57,1.22s.25,1.16.71,1.6a1.22,1.22,0,0,1,.3.47,4.34,4.34,0,0,0,.64,1.54,4.76,4.76,0,0,0,.64,1.5,4.22,4.22,0,0,1,.52,1.93c0,.44.08.87.1,1.31a10.27,10.27,0,0,1,.09,2.15,1.07,1.07,0,0,0,.44,1.19,1.64,1.64,0,0,1,.27.26,2.63,2.63,0,0,0,1,.67,6.22,6.22,0,0,1,1,.5.42.42,0,0,1,.09.75,1.36,1.36,0,0,1-.44.25,3.05,3.05,0,0,0-.82.28,2.87,2.87,0,0,1-1.67.54,3.53,3.53,0,0,1-2.34-.62.32.32,0,0,0-.49.06,1,1,0,0,1-.3.29C-198.54,321.1-198.95,321.31-199.41,321.55Zm-46-.81c-.23-.32-.46-.62-.66-.94s-.3-.34-.52,0a2.17,2.17,0,0,1-.9.8,7.38,7.38,0,0,0-1,.63,2.41,2.41,0,0,0-.64.59c-.19.29-.26.67-.63.84-.05,0-.07.13-.11.2-.36.63-.74,1.26-1.09,1.9a20,20,0,0,0-1.11,2.16c-.33.83-.54,1.7-.79,2.55a5.54,5.54,0,0,0-.12.69c-.1.59-.24,1.18-.28,1.77a15.23,15.23,0,0,1-.13,2.43,8.71,8.71,0,0,0-.15,1.35c-.05.82-.1,1.63-.12,2.45a9.34,9.34,0,0,0,.18,3.07,2.64,2.64,0,0,1,.1.74,25.6,25.6,0,0,0,.56,2.9c0,.05.05.09.06.13a4,4,0,0,1,.23,2.07.66.66,0,0,0,0,.37,2.84,2.84,0,0,0,.53,1.19,1.11,1.11,0,0,1,.17.43c.1.49.21,1,.28,1.47a6.83,6.83,0,0,0,1.43,3,.48.48,0,0,0,.47.23,7.06,7.06,0,0,1,1.3,0,6.33,6.33,0,0,0,1.94-.17,3,3,0,0,0,1.7-1.21c.39-.45.83-.84,1.23-1.27s.64-.53.73-.94a1.08,1.08,0,0,1,.45-.63c.52-.4,1-.82,1.51-1.26a8.27,8.27,0,0,0,.71-.74,1.16,1.16,0,0,0,.14-.24c.08-.13.15-.28.24-.4a1.68,1.68,0,0,0,.39-.79.51.51,0,0,1,.22-.33.51.51,0,0,0,.22-.44,3.55,3.55,0,0,0,0-.46.4.4,0,0,1,.26-.4.57.57,0,0,0,.35-.56,1.34,1.34,0,0,1,.3-.8,2.09,2.09,0,0,0,.55-1.2,1,1,0,0,1,.61-1.06s0-.14.08-.21c.17-.33.14-.78.54-1l.33-1.24c-.19-.24,0-.41.08-.51s-.06-.5,0-.54c.31-.19.22-.49.28-.75s0-.3.11-.38a1.32,1.32,0,0,0,.3-.77,2.09,2.09,0,0,1,.09-.51,1.24,1.24,0,0,0,.06-1,1,1,0,0,0,.33-.86c0-.09.06-.18.08-.27a3.16,3.16,0,0,0,.11-1.11,4,4,0,0,1-.14-1.33.3.3,0,0,0-.09-.25c-.21-.16-.09-.32,0-.47a2.66,2.66,0,0,0-1.14-.69,2.3,2.3,0,0,1-.57-.21,2,2,0,0,0-.75-.21,6.87,6.87,0,0,1-2.06-.32,4.24,4.24,0,0,1-1.65-1.19,2.86,2.86,0,0,0-1.32-1,1,1,0,0,1-.34-.25,8.35,8.35,0,0,1-1.48-2c-.09-.17-.21-.34-.32-.51s-.39-.64-.57-1-.23-.44-.34-.66S-245.49,321.07-245.36,320.74Zm-26.77-67.46c-.07.25-.13.46-.17.66-.16.75-.31,1.51-.48,2.25-.05.23-.15.45-.2.68-.15.62-.3,1.24-.41,1.87a7,7,0,0,0-.26,1.9,21.18,21.18,0,0,0,.15,3.08c.17.75.3,1.51.54,2.23.3.9.69,1.78,1.06,2.66a1.57,1.57,0,0,0,.5.78.67.67,0,0,1,.22.44.78.78,0,0,0,.43.75.78.78,0,0,0,.07.72c0,.09.06.18.09.27l.78,1.8,0,0c.2.35.41.69.58,1.05.1.2.11.43.34.54,0,0,0,.11.06.17a5.52,5.52,0,0,0,.28.71c.42.8,1,1.48,1.49,2.26a9.93,9.93,0,0,0,2,2.3c.27.24.56.45.81.71a4.11,4.11,0,0,0,1.83,1.08,6.71,6.71,0,0,1,.68.3,3.09,3.09,0,0,1,.75-.3,2.8,2.8,0,0,0,1.55-.68,1.1,1.1,0,0,1,.31-.22,2.3,2.3,0,0,0,1.13-1.19,6.93,6.93,0,0,1,.48-.72l.29.18a4.73,4.73,0,0,1,.52-.5,4.58,4.58,0,0,1,2.14-.74,5.24,5.24,0,0,1,.88-.08c.49,0,1-.27,1.45-.07a2,2,0,0,0,.52,0c0-.15,0-.25-.07-.36a18.8,18.8,0,0,1-.81-3.47c0-.22-.17-.42-.21-.64-.1-.68-.17-1.36-.27-2s-.21-1.32-.31-2a5.73,5.73,0,0,0-.83-2.6,7.52,7.52,0,0,0-.47-.64c-.41-.44-.84-.85-1.25-1.27a9.15,9.15,0,0,0-1.6-1.31,18.32,18.32,0,0,0-1.69-1.05,5.46,5.46,0,0,0-2.39-.41,6.53,6.53,0,0,0-1.82,0s-.05,0-.11-.07a2.41,2.41,0,0,1,0-.38c.06-.38.14-.76.22-1.14a1.33,1.33,0,0,1,.12-.4,3.32,3.32,0,0,1,1-1.23,1.83,1.83,0,0,0,.36-.39l-1.42-1.77c.53-1.06.72-1,1.5-.82l.09,0a1.41,1.41,0,0,0,.86-.19,2.34,2.34,0,0,0-.42-.53,6.89,6.89,0,0,0-1.59-.89,1.91,1.91,0,0,1-.45-.23,1.44,1.44,0,0,0-.89-.27l-1.82.17a2.29,2.29,0,0,1-.37,0,2.34,2.34,0,0,0-.77-.09,3.34,3.34,0,0,1-1.3,0c-.26,0-.52-.08-.79-.09a4.52,4.52,0,0,1-2.58-.69C-271.85,253.43-272,253.38-272.13,253.28Zm-1.59,43.64a1.65,1.65,0,0,1-.94-.44c-.53-.43-1.15-.72-1.67-1.15a.11.11,0,0,0-.08,0,1.48,1.48,0,0,0-.73-.1,6.08,6.08,0,0,1-1.21,0c-.34,0-.68,0-1,0a2.88,2.88,0,0,0-1.2.07,3,3,0,0,1-.74.07,1.62,1.62,0,0,0-.63.14,6,6,0,0,1-2.05.65,7.11,7.11,0,0,0-1.49.66.45.45,0,0,0-.22.23.59.59,0,0,1-.5.38c-.54.06-.85.59-1.38.64a.21.21,0,0,0-.13.13c0,.21-.21.19-.35.25a7.17,7.17,0,0,0-1,.48c-.28.18-.75,0-.89.49-.63.21-1.05.79-1.72.95-.18,0-.33.23-.48.35s-.12.17-.2.2a3.28,3.28,0,0,0-1.18,1c-.24.27-.44.56-.68.82s-.69.73-1,1.1a1.59,1.59,0,0,0-.25.33,11.38,11.38,0,0,1-1.36,2.07c-.3.37-.61.73-.93,1.09a5.54,5.54,0,0,1-1.79,1.34,1.71,1.71,0,0,1-.87.28.87.87,0,0,0-.8.22,1.28,1.28,0,0,1-.4.25,2.12,2.12,0,0,0-1.05.94,6,6,0,0,0,1.11.91,4.15,4.15,0,0,1,1.87,1.79,10.37,10.37,0,0,1,.53,1.34,5.57,5.57,0,0,0,1.42,2.23,9.37,9.37,0,0,0,3,1.94,4.93,4.93,0,0,0,2.25.62.38.38,0,0,1,.18,0,5.4,5.4,0,0,0,2.67.31c.28,0,.56,0,.84,0a3,3,0,0,0,.79,0,9.38,9.38,0,0,1,1.27-.22,3.62,3.62,0,0,0,.91-.2c.27-.11.57-.16.84-.28a1.5,1.5,0,0,0,.64-.37,14.73,14.73,0,0,0,.89-1.42,3.54,3.54,0,0,0,.22-.57,5.65,5.65,0,0,0,.46-1.76c.05-.45,0-.94.39-1.31.06,0,.06-.17.08-.26l.06-.51c.06-.52.15-1,.16-1.56a1,1,0,0,1,.26-.77c.16-.16.27-.41.12-.59-.32-.37-.11-.67.06-1a.71.71,0,0,0,.12-.47c0-.16,0-.4.11-.47a.64.64,0,0,0,.28-.55,2.39,2.39,0,0,1,.41-1c.24-.37.45-.75.65-1.13a4.79,4.79,0,0,1,.72-1.31c.06-.06.06-.17.1-.26.28-.54.55-1.08.85-1.61a7.24,7.24,0,0,1,.54-.82,5.3,5.3,0,0,1,.54-.63,14.45,14.45,0,0,0,1.08-1,5.37,5.37,0,0,1,1.24-1.32s.08-.06.09-.1a1.48,1.48,0,0,1,.63-.61C-274.11,297.26-273.92,297.09-273.72,296.92ZM-259,258.05a1.74,1.74,0,0,1-1.08.9,2,2,0,0,0-1.46,1.13c-.16.42-.08.62.36.67s1,.08,1.54.14c.34,0,.67.11,1,.16a3.82,3.82,0,0,1,1.8.57c.35.25.72.49,1.1.71a4.44,4.44,0,0,1,1.7,1.17l0,0a6.4,6.4,0,0,1,.42.49c.18.28.35.56.51.85a2.26,2.26,0,0,1,.31,1.06,5.84,5.84,0,0,0,.18,1c0,.2.08.4.11.6s.08.55.14.82.11.45.14.68a8,8,0,0,1,.23,1.83l0,0c.08.41.17.82.23,1.24s0,.61.08.91c.1.68.21,1.36.31,2a1.89,1.89,0,0,0,0,.23c.14.54.28,1.08.41,1.62s.2,1,.35,1.53.38,1.16.6,1.73.48,1.14.72,1.72c.11.26.19.53.3.79s.22.53.34.79a9.37,9.37,0,0,0,.38.86c.12.21.36.26.45.08a1,1,0,0,1,1-.48,6.18,6.18,0,0,1,1.48.27c0,.26-.29.55.19.64.12-.49.58-.59,1-.77.07,0,.15.16.21.15.41-.07.56.26.77.5.07.07.11.22.19.24a1.59,1.59,0,0,1,.86.87h.2c.44.05.54,0,.73-.45a5.58,5.58,0,0,0,.41-1,.93.93,0,0,1,.37-.47.69.69,0,0,0,.31-.49c0-.17.07-.34.08-.51,0-.54,0-1.08,0-1.62a3.77,3.77,0,0,0-.21-1c-.14-.38-.42-.81-.1-1.25.05-.06,0-.18,0-.27a6,6,0,0,0-.08-.85c-.05-.24.17-.51-.07-.73l0,0c0-.37.05-.75.05-1.12a.43.43,0,0,0-.15-.33c-.27-.15-.16-.41-.2-.63s0-.27,0-.39c-.08-.31-.21-.6-.27-.91-.11-.57-.19-1.15-.29-1.72,0-.16-.11-.31-.14-.47-.09-.39-.18-.78-.26-1.17a5.28,5.28,0,0,0-.13-.67,1.65,1.65,0,0,1-.16-.76,1.17,1.17,0,0,0-.24-.84c-.14-.18-.23-.37,0-.59-.35-.26-.46-.57-.26-.87a4.75,4.75,0,0,1-.22-.54c-.07-.29-.1-.58-.17-.87s-.27-.47-.07-.75c0-.06,0-.21-.08-.31-.15-.33-.32-.66-.47-1a3.17,3.17,0,0,0-.17-.38c-.46-.7-.91-1.4-1.39-2.09a5.4,5.4,0,0,0-.78-1c-.62-.57-1.14-1.25-1.8-1.8a7.06,7.06,0,0,0-1.2-.85c-.35-.19-.73-.34-1.08-.53a10.22,10.22,0,0,0-3.85-1.15,5.65,5.65,0,0,0-2.67.3c-.29.12-.62.1-.91.21s-1,.06-1.26.52c0,0-.09,0-.13,0a.81.81,0,0,0-.58.27.51.51,0,0,1-.55.15.51.51,0,0,0-.27,0l-.83.19-.36.12c.06.1.08.22.13.23.23,0,.44.22.71.14a.83.83,0,0,1,.84.11c.07.06.18.06.26.1A3.39,3.39,0,0,1-259,258.05Zm26.91,18a3.06,3.06,0,0,0,.93-.09,3.65,3.65,0,0,0,1.08-.63,17.86,17.86,0,0,1,1.31-1.3,5.8,5.8,0,0,0,.8-.77c.28-.29.55-.59.82-.89a3.16,3.16,0,0,1,.63-.68,2.79,2.79,0,0,0,.78-.79,10.59,10.59,0,0,1,.66-.84c.4-.42.81-.83,1.24-1.22.25-.22.55-.38.82-.58l.27-.24a2.74,2.74,0,0,1,.5-.4c.42-.24.85-.46,1.28-.68s.84-.48,1.28-.68c.91-.41,1.84-.78,2.74-1.16a4.54,4.54,0,0,0,.13-.64c.07-1.11.14-2.22.17-3.32a3.14,3.14,0,0,0-.14-1.19c-.29-.74-.38-1.53-.74-2.27a13.16,13.16,0,0,0-1.05-2.13c0-.05-.06-.11-.1-.16a5.64,5.64,0,0,0-.5-.77,4.51,4.51,0,0,1-.93-1.4,12.88,12.88,0,0,1-.43-1.62,4.71,4.71,0,0,0-.73-1.73,3.18,3.18,0,0,0-.45.2l-1,.67a1.62,1.62,0,0,1-.41.22,9.67,9.67,0,0,1-1.94.29,2.33,2.33,0,0,0-2.09,1,1.31,1.31,0,0,1-.93.48,1.51,1.51,0,0,0-.61.19,8.08,8.08,0,0,0-1.73,1.46c-.07.1-.2.16-.28.25-.21.25-.4.51-.6.77,0,.08-.07.18-.12.25l-.9,1.43a2.67,2.67,0,0,0-.14.34l-.7,1.89a1.3,1.3,0,0,0-.14.86,1,1,0,0,1-.13.8,2,2,0,0,0-.31,1.2.71.71,0,0,1-.06.23,6.93,6.93,0,0,0-.44,1.68.64.64,0,0,1-.06.18,3.37,3.37,0,0,0-.23.65,4.75,4.75,0,0,1-.37,1.1,4.61,4.61,0,0,0-.54,2.06.52.52,0,0,1-.18.41.66.66,0,0,0-.13.37,5.23,5.23,0,0,0,0,.56,2.42,2.42,0,0,0,0,1c.2.44,0,.89.17,1.32a11.68,11.68,0,0,0,.08,2l.38-.34c.06-.06.11-.17.18-.19a1.49,1.49,0,0,0,.8-.49,3.87,3.87,0,0,1,.58-.38,4.36,4.36,0,0,1,.72-.42c.54-.21.62-.18,1,.29a.74.74,0,0,1,.15.42,1.4,1.4,0,0,1-.12,1c-.08.11,0,.33,0,.5a6.59,6.59,0,0,1-.18,1.27A1.07,1.07,0,0,0-232.06,276.05Zm-52.37-3.14a5.06,5.06,0,0,1,.14.77,5.08,5.08,0,0,0,.34,2,.61.61,0,0,1,0,.13,6.6,6.6,0,0,0,.77,2.25c.28.61.63,1.18.92,1.78a31.26,31.26,0,0,0,1.88,3.52.71.71,0,0,0,.41.33c.29.1.35.2.28.5a.79.79,0,0,0,.25.8,4.51,4.51,0,0,1,.94,1.34c.2.42.41.84.62,1.26.14.27.29.54.45.8.39.62.77,1.25,1.18,1.85.23.33.32.79.88.87l-.27.17c.08.64.59,1,1,1.41s.75.63,1.06,1,.85.52,1,1c0,0,0,0,.07.06l1,.76a1.43,1.43,0,0,0,.29.05c-.11-.16-.18-.23-.23-.32a.88.88,0,0,1-.17-.37,10.28,10.28,0,0,0,0-1.11,3.52,3.52,0,0,1,.18-1.14c.15-.67.35-1.34.48-2a1,1,0,0,1,.33-.59c.07-.07.16-.11.21-.19a14.84,14.84,0,0,1,2.51-2.37,1.07,1.07,0,0,0,.28-.51c.05-.22,0-.47.07-.69a2.22,2.22,0,0,0,.09-.73,1.28,1.28,0,0,1,.16-.8,2,2,0,0,1,1.54-1,1.52,1.52,0,0,0,.75-.25.69.69,0,0,1,.65-.1.55.55,0,0,0,.72-.24c-.16-.12-.3-.3-.47-.35a3.79,3.79,0,0,1-1.11-.72c-.12-.09-.29-.11-.41-.19s-.42-.31-.64-.45.18-.13,0-.24a3.1,3.1,0,0,1-1.08-1.05,7.67,7.67,0,0,0-.48-.73c-.26-.31-.54-.59-.81-.89,0,0-.06-.09,0-.11.12-.22-.06-.3-.17-.43a6.28,6.28,0,0,1-.59-.77,5.46,5.46,0,0,1-.35-.82c-.23-.58-.77-1-.93-1.61a1.13,1.13,0,0,1-.37-.87.23.23,0,0,0,0-.12c-.29-.31-.2-.82-.58-1.09,0,0,0-.09,0-.13a3.24,3.24,0,0,0-.33-.76,1.47,1.47,0,0,1-.27-.47.76.76,0,0,0-.3-.45,8.47,8.47,0,0,0-1-.44,10.7,10.7,0,0,1-1.26-.51,14.16,14.16,0,0,0-1.66-.69,9.79,9.79,0,0,1-1.46-.7,6,6,0,0,0-1.34-.66c-.27-.09-.56-.16-.84-.26s-.6-.23-.91-.33-.4-.08-.59-.14c-.48-.13-.67,0-.79.45a6.74,6.74,0,0,0-.15.88,2.17,2.17,0,0,1-.9,1.49,1.81,1.81,0,0,0-.27.18,3.32,3.32,0,0,0-.62.8,7,7,0,0,0-.21,1.88Zm36.53-26.18a6.25,6.25,0,0,0,.81.33.76.76,0,0,1,.5.31.66.66,0,0,0,.46.37.42.42,0,0,1,.23.15c.36.43.74.85,1.07,1.3s.49.8.79,1.16a5.94,5.94,0,0,1,.69,1.05c.17.32.36.63.55.93s.5.76.72,1.15a18.36,18.36,0,0,0,1.64,2.45,5.85,5.85,0,0,1,.45.54c.33.53.64,1.07,1,1.6a10.16,10.16,0,0,0,1,1.65,9.83,9.83,0,0,1,.61.83c.36.44.73.86,1.09,1.29l.29.37a3.84,3.84,0,0,1,.18-.65,8.13,8.13,0,0,0,.45-1.81,3.8,3.8,0,0,1,.91-2.18.91.91,0,0,0,.15-.33c0-.09.06-.18.1-.25.17-.3.33-.6.52-.89a4.77,4.77,0,0,1,.86-1.32c.3-.24.58-.51.87-.77,0,0,.06-.13.1-.19a.38.38,0,0,1,.14-.14c.07-.05.19-.07.23-.13a2.74,2.74,0,0,1,1.09-.91l1.87-1.13c.29-.18.47-.53.9-.57-.12-.4-.23-.76-.35-1.11-.18-.51-.39-1-.55-1.54a2.21,2.21,0,0,0-.53-1.07.67.67,0,0,1-.09-.21,5.16,5.16,0,0,0-1.21-2c-.28-.25-.51-.54-.77-.82a.72.72,0,0,0-.22-.17,1.15,1.15,0,0,1-.65-.63,1,1,0,0,0-.22-.25,2.83,2.83,0,0,0-1.4-1c-.06,0-.11-.1-.18-.14a5,5,0,0,0-1.9-.77q-1.71-.22-3.39-.54a6.42,6.42,0,0,1-1.28-.43c-.49-.2-.95-.48-1.45-.67a1.79,1.79,0,0,1-.73-.57c-.23-.27-.45-.55-.7-.81s-.28-.2-.43,0-.45.67-.64,1a8.29,8.29,0,0,0-1.13,2.91,1.14,1.14,0,0,1-.09.26l-.49,1.12a11.89,11.89,0,0,1-.68,1.5C-247,245.66-247.46,246.14-247.9,246.73Zm22.63,3.35.15,0c.63,0,1.25,0,1.87,0a.94.94,0,0,0,.59-.28,1.35,1.35,0,0,1,.59-.36,1.7,1.7,0,0,0,.57-.29,1.86,1.86,0,0,1,.85-.48.64.64,0,0,1,.9.54,1.81,1.81,0,0,0,.48,1.07.53.53,0,0,1,.13.39,4.09,4.09,0,0,0,.57,2.1,2.14,2.14,0,0,0,.3.51,3.41,3.41,0,0,1,.79,1,3.91,3.91,0,0,0,.4.79,9.68,9.68,0,0,1,1,2.19c.16.41.23.86.38,1.28a10.86,10.86,0,0,1,.36,2.94.39.39,0,0,1,0,.18c0,.15-.08.29-.1.44l-.12,1.68c0,.17,0,.34,0,.57l1.92-.55c.06.06.14.2.23.21a6.14,6.14,0,0,1,1,.38.78.78,0,0,1,.51.38,11.66,11.66,0,0,1,.71,1c.3.53.59,1.06.84,1.6a1.34,1.34,0,0,1,.12.24c.18.72.36,1.44.53,2.16a2.24,2.24,0,0,0,1.25-.63l.08-.05a9.58,9.58,0,0,0,.89-.49,1.85,1.85,0,0,0,.67-.63,1.65,1.65,0,0,1,.5-.63.33.33,0,0,0,.07-.17,18.5,18.5,0,0,0,.23-1.95,1.56,1.56,0,0,0-.09-.78,1.66,1.66,0,0,1,0-1.22,1.14,1.14,0,0,0,0-.41c-.08-.49-.19-1-.27-1.47a.89.89,0,0,1,0-.28,1.07,1.07,0,0,0-.18-.84.75.75,0,0,1-.12-.57.78.78,0,0,0-.05-.7,2.84,2.84,0,0,1-.09-.42c-.08-.23-.17-.46-.26-.73l.12-.19a2,2,0,0,1-.27-.33,2.5,2.5,0,0,1-.16-.43c-.18-.51-.35-1-.54-1.53s-.32-.81-.45-1.23c-.24-.75-.47-1.51-.7-2.27,0-.12-.12-.23-.15-.35a6.39,6.39,0,0,0-1.31-2.66c-.76-.89-1.57-1.74-2.36-2.61a2.12,2.12,0,0,0-.2-.12c-.35-.21-.7-.43-1.06-.62a1.8,1.8,0,0,0-.86-.31,13,13,0,0,0-1.84.28c-.62.12-1.24.31-1.87.41a11.07,11.07,0,0,0-2.26.74l-1.22.47a3.87,3.87,0,0,0-1.87,1.34c-.06.09-.17.14-.25.22A3.61,3.61,0,0,0-225.27,250.08ZM-251,280c-.34-.11-.61-.17-.86-.28a2.32,2.32,0,0,0-1.11-.31,11.82,11.82,0,0,0-2.64.42,5.85,5.85,0,0,0-.83.3,5.07,5.07,0,0,0-.55.49,7,7,0,0,1-1.51,1.15c-.08,0-.14.13-.21.18a7.34,7.34,0,0,1-1.81,1.06l-2.77,1-.28.07-1.75.48c-.22.06-.35.18-.27.4a3.44,3.44,0,0,1-.07,1.8c-.06.32-.15.64-.56.72a.42.42,0,0,0-.17.16c-.21.27-.4.55-.6.83l-1.43,2c-.23.33-.45.67-.66,1s-.11.45-.36.58c-.07,0-.09.19-.09.29,0,.62.06,1.24.1,1.86a1.67,1.67,0,0,0,.08.32,6.45,6.45,0,0,1,.27.85,3.38,3.38,0,0,0,1.38,2l1.39,1a1.44,1.44,0,0,0,.33.16l.93.3,1.24.41a4.82,4.82,0,0,0,2.5,0c.64-.15,1.28-.31,1.91-.49a3.08,3.08,0,0,0,.54-.28.24.24,0,0,0,.1-.32c-.16-.45-.3-.92-.47-1.37a1.21,1.21,0,0,1,0-.86.4.4,0,0,0-.14-.49,2,2,0,0,0-.9-.38,1.28,1.28,0,0,1-.95-.49,1.11,1.11,0,0,0-.63-.53c-.05,0-.09-.12-.13-.18s-.13-.24-.23-.29c-.53-.25-.69-.77-.93-1.23a.94.94,0,0,1-.07-.22c-.06-.47-.12-.93-.15-1.39a1.11,1.11,0,0,1,.09-.63,1.33,1.33,0,0,1,1.36-.8.34.34,0,0,0,.14,0,8.28,8.28,0,0,1,1.85-.22,8.8,8.8,0,0,0,1.54-.12,4.89,4.89,0,0,1,.64-.14c.28,0,.56-.06.83-.11a13.61,13.61,0,0,1,2.73-.51,2.32,2.32,0,0,1,.29-.39c.24-.22.52-.4.76-.61a.57.57,0,0,1,.57-.1c.27.07.54.13.82.18a3.14,3.14,0,0,1,1.49.6l.81.66c.07-.08.15-.15.21-.23.27-.38.53-.77.79-1.15a.67.67,0,0,0,.05-.67,8.31,8.31,0,0,1-.48-.94,14.87,14.87,0,0,0-1-2.15.44.44,0,0,1-.07-.27.85.85,0,0,0-.21-.64.84.84,0,0,1-.17-.34,3.81,3.81,0,0,0-.39-1.31A4.66,4.66,0,0,1-251,280Zm18.34-7.16a1.49,1.49,0,0,0-1.05.53,2.87,2.87,0,0,1-.53.46,2.23,2.23,0,0,0-1.29,1.5.12.12,0,0,1,0,.08,1.29,1.29,0,0,0-.24,1,10.59,10.59,0,0,1-.26,2.87,9.56,9.56,0,0,0-.29,2,.52.52,0,0,1,0,.18c-.12.37-.25.73-.38,1.09s-.06.51.29.65a1.68,1.68,0,0,1,.39.16c.5.38,1.12.63,1.41,1.26.07.14.23.24.35.37a1.84,1.84,0,0,1,.17.22c.26.4.5.82.78,1.2a3.37,3.37,0,0,1,.84,1.62.55.55,0,0,0,.13.25c.34.3.44.74.7,1.09a.6.6,0,0,1-.21.83.61.61,0,0,1-.8-.16,2.61,2.61,0,0,1-.19-.27l-.79-1c-.62-.21-.71-.91-1.18-1.28a10.06,10.06,0,0,1-.8-.8,5.57,5.57,0,0,1-.76-.68,1.93,1.93,0,0,0-1.1-.7,7.49,7.49,0,0,0-1.27-.22.91.91,0,0,0-1.06.8c-.13.73-.31,1.46-.46,2.19a10.22,10.22,0,0,0-.3,1.54,3.83,3.83,0,0,0,.09,1.3,1.44,1.44,0,0,1,0,1.06,1.22,1.22,0,0,1,.36,1.16,2.56,2.56,0,0,0,.07,1.29,1,1,0,0,1,.09.5,2.38,2.38,0,0,0,.11,1.42,1,1,0,0,1,0,.54c-.05.22-.3.44,0,.62l.1,1.15c.1.24.18.41.24.59s0,.27.06.36c.28.4.14.88.21,1.31a1.55,1.55,0,0,1,0,1.1c0,.09,0,.25.07.36a.29.29,0,0,0,.46.14c.34-.19.69-.37,1-.58a4.19,4.19,0,0,0,.83-.6c.46-.51.85-1.08,1.3-1.59.73-.84,1.52-1.62,2.23-2.47a9.53,9.53,0,0,1,1.48-1.43,8.19,8.19,0,0,1,2.34-1.45c.25-.09.49-.22.83-.37-.26-.2-.45-.36-.65-.49a3.21,3.21,0,0,1-.95-1.18,8.33,8.33,0,0,1-.34-.82c0-.07-.07-.16,0-.22.09-.26.23-.5.32-.75s.38-.35.55-.53a3.67,3.67,0,0,0,1-2,10.85,10.85,0,0,0,.16-1.26,13.54,13.54,0,0,0-.11-1.68c0-.22-.22-.42-.26-.65a3,3,0,0,0-.91-1.57,7,7,0,0,1-.79-.85,8.14,8.14,0,0,1-1.22-2c-.13-.4-.29-.79-.38-1.2s-.15-.7-.57-.81c0,0-.07-.09-.11-.16l.3-.21c0-.28-.13-.38-.38-.38s-.44,0-.61-.17a.68.68,0,0,1,.53-.68c.36-.06.38-.31.42-.54s0-.58.06-.86a4.29,4.29,0,0,1,.18-1A1.56,1.56,0,0,0-232.69,272.84Zm24.79,7.58c.05.17.07.28.11.39s.1.21.08.3c-.08.5.13,1,0,1.52a.19.19,0,0,0,.07.15c.19.15.1.31,0,.47a1,1,0,0,0-.13.48c.14.85-.42,1.48-.67,2.21l0,0a.46.46,0,0,0-.15.51.56.56,0,0,1-.16.61c-.31.3-.64.59-1,.89a1.35,1.35,0,0,0-.35.37,2,2,0,0,1-.51.61,2.81,2.81,0,0,0-.46.52,5.78,5.78,0,0,1-.84,1,11,11,0,0,1-3,2.18c-.65.34-1.31.65-2,1a13.11,13.11,0,0,1-2.18.93c-1.16.33-2.33.63-3.5.93a10.92,10.92,0,0,1-1.13.27c-.85.12-1.7.23-2.56.32a6,6,0,0,1-1.4.05c-.47-.05-1,.13-1.41-.11,0,0,0,0-.05,0a5.85,5.85,0,0,0-2.23.65,4.59,4.59,0,0,0-1.13,1c.49.46.95.9,1.42,1.32a6.54,6.54,0,0,0,.65.53c.41.29.82.57,1.24.84a16,16,0,0,0,1.44.85,3.26,3.26,0,0,0,2,.3,3,3,0,0,1,1.51.13,1.19,1.19,0,0,0,.33,0,2.81,2.81,0,0,1,.59.06.44.44,0,0,0,.64-.26l.6.56a4,4,0,0,0,1.61-.63,3.86,3.86,0,0,1,.81-.41c.21-.08.42-.15.62-.24a6.41,6.41,0,0,1,1.74-.75.75.75,0,0,0,.12-.07c.89-.42,1.76-.86,2.66-1.27.45-.21.93-.35,1.39-.54a10.41,10.41,0,0,0,2.13-1.48,2,2,0,0,0,.58-.71,1.49,1.49,0,0,1,.44-.52c.25-.21.58-.39.7-.66.24-.53.74-.84,1-1.33.08-.15.22-.29.23-.45s-.13-.25-.21-.4a5.39,5.39,0,0,0,.54-.83,2.64,2.64,0,0,0,.31-1.2c.06-.59.11-1.17.15-1.76s.07-1.33.16-2a8.6,8.6,0,0,0-.12-1.95,2.1,2.1,0,0,1,0-.5c.11-.57.23-1.14.35-1.71a5.28,5.28,0,0,0,.15-.87.89.89,0,0,0-.22-.81,6.86,6.86,0,0,0-.76-.53A1.09,1.09,0,0,0-207.9,280.42Zm-41.38-27.22s-.09,0-.13-.06l-.82-.33c-.51-.2-1-.42-1.53-.58s-1.12-.25-1.68-.41a4.31,4.31,0,0,0-1.53-.38.74.74,0,0,1-.14,0c-.75-.15-1.49-.32-2.24-.46-.6-.11-1.18-.28-1.78-.38s-1-.18-1.47-.22c-.93-.09-1.86-.09-2.79-.16-.51-.05-1-.17-1.53-.27a3.38,3.38,0,0,0-1.19-.14c-.32,0-.66,0-1,.06a6,6,0,0,0-1,.32l-.88,2.78a.46.46,0,0,0,.48.24,4.43,4.43,0,0,0,1,0,2.12,2.12,0,0,1,.66,0,4.88,4.88,0,0,0,.52-.06l1.16-.05,1.08,0c.35,0,.73-.19,1,.18h0c.49,0,.85.36,1.29.49a2,2,0,0,1,.61.31c.57.44,1.13.89,1.68,1.34a.43.43,0,0,0,.55.05,2.76,2.76,0,0,1,.74-.28c.56-.13,1.13-.21,1.69-.34s1-.25,1.44-.36a3.85,3.85,0,0,1,.83-.11c.26,0,.52,0,.78.05a16.79,16.79,0,0,1,2,.3,5,5,0,0,1,.93.3c.57.24,1.13.53,1.7.79a11.66,11.66,0,0,1,2.16,1.45c.5.39.82.95,1.34,1.32.27.19.38.56.7.72,0,0,0,.06.05.08.23.35.47.7.71,1a11.94,11.94,0,0,1,.71,1c.41.74.79,1.5,1.16,2.26a2.12,2.12,0,0,1,.21.84,2.85,2.85,0,0,0,.33,1.09,5.57,5.57,0,0,1,.3,1.45c.16.84.28,1.7.52,2.52a25.94,25.94,0,0,1,.74,2.51c.12.65.32,1.28.42,1.94.19,1.19.37,2.38.49,3.58.1.93.1,1.87.15,2.8s.09,1.56.14,2.34c0,.35.05.37.42.22a15.43,15.43,0,0,1,.39-2.84,6.1,6.1,0,0,1-.12-.68c0-.24-.08-2.33-.15-2.5a3.1,3.1,0,0,1-.12-.72,6.26,6.26,0,0,0,0-1.3c-.09-.3-.07-2.51-.09-2.61-.14-.66.15-1.33-.08-2,0,0,0-.09,0-.14a6.37,6.37,0,0,0-.07-.74c-.05-.3-.16-.59-.21-.89-.09-.55.13-1.18-.39-1.63.06-.25-.1-.35-.29-.45s0-.16-.08-.25-.09-.36-.14-.54a4.21,4.21,0,0,1-.12-.48.66.66,0,0,0-.27-.52c-.1-.07-.37-1.31-.85-1.68a6.56,6.56,0,0,0-1-2c-.14-.1-.75-1.38-1-1.81s-.77-.93-1.14-1.42a1.92,1.92,0,0,0-.82-.65c-.44-.17-.64-.58-.94-.87a.31.31,0,0,1-.05-.23.61.61,0,0,0-.37-.6A17.17,17.17,0,0,1-249.28,253.2ZM-254.74,329a11.72,11.72,0,0,0,.6-1.5c.17-.67.61-1.22.72-1.91,0,0,.06-.08.08-.12a5.68,5.68,0,0,0,.49-1.14,5.08,5.08,0,0,1,.66-1.68,3.93,3.93,0,0,0,.5-.95,3.2,3.2,0,0,1,.36-.85,11.83,11.83,0,0,1,.71-1c.38-.47.5-1.1,1-1.51a2,2,0,0,0,.34-.54,4.24,4.24,0,0,1,.47-.74c.45-.46.74-1,1.15-1.52.14-.18.16-.32,0-.49a.33.33,0,0,0-.5,0l-.51.42a10.14,10.14,0,0,1-3.76,2.14,1.47,1.47,0,0,0-.36.21,1.7,1.7,0,0,1-.22.15,7.08,7.08,0,0,0-2.17,1.27c-.77.57-1.56,1.12-2.28,1.73a3.46,3.46,0,0,0-.61,1,.3.3,0,0,0,0,.18,11.56,11.56,0,0,0,.76,2.79c.49,1,.91,2,1.45,2.95A2.32,2.32,0,0,0-254.74,329Zm2.47-40.44c0,.21,0,.31,0,.42a1.77,1.77,0,0,1-.4,1,1.44,1.44,0,0,0-.44.62c0,.06-.11.11-.16.16s-.35.24-.43.41c-.23.47-.7.68-1.07,1s-.93.67-1.4,1a2,2,0,0,0-.93,1.49,5.09,5.09,0,0,1-.21,1.1,1.83,1.83,0,0,0-.11.92c0,.18.15.34.19.51a1.9,1.9,0,0,0,1.24,1.48,3.34,3.34,0,0,0,1.46.22,9,9,0,0,0,2.19-.16,3.19,3.19,0,0,1,.87-.1,12.61,12.61,0,0,0,2.45-.37,2.1,2.1,0,0,0,.52-.21c.16-.08.3-.18.44-.26a9.27,9.27,0,0,0,1.82-1.14,1.62,1.62,0,0,0,.62-1.5c-.19.13-.34.23-.5.32-.4.22-.79.44-1.2.64-.22.11-.47.17-.68.29a3.33,3.33,0,0,1-1.38.56c-.07,0-.14.07-.21.1-.23.09-.46.19-.7.26-.72.2-1.44.41-2.17.58-.28.06-.63.17-.85-.07-.45-.49-1.11-.54-1.64-.84a.89.89,0,0,1-.52-.76,1.42,1.42,0,0,0-.13-.53.77.77,0,0,1,.26-.91c.09-.08.16-.18.25-.26a2.3,2.3,0,0,1,1.23-.71c1-.15,2-.35,3-.43a2,2,0,0,0,1.6-1.2.87.87,0,0,0,.18-.75,6,6,0,0,0-.35-.86,3.83,3.83,0,0,0-.6-.72c-.3-.33-.73-.53-1.07-.86S-251.84,288.71-252.27,288.55Zm-25.17,4.85a1.16,1.16,0,0,0-.17-.43c-.29-.28-.24-.77-.63-1,0,0,0-.09-.06-.13a5.66,5.66,0,0,0-.88-1.29.82.82,0,0,1-.23-.35,3.81,3.81,0,0,0-.94-1.58c-.12-.12-.27-.35-.23-.48.18-.62-.28-1.08-.37-1.63a.43.43,0,0,0-.26-.28c-.18-.05-.25.12-.31.28a3.33,3.33,0,0,1-.7,1.15,1.17,1.17,0,0,0-.28.48,10,10,0,0,1-.6,1.52,2,2,0,0,0-.17,1.05c.07.48,0,.95.09,1.43a4.54,4.54,0,0,0,.2,1.1.65.65,0,0,1,0,.31c0,.26,0,.52-.08.77.53.22.94-.29,1.42-.11,0,0,.1-.05.16-.07s.32-.12.49-.16c.53-.14,1.05-.28,1.58-.4.25-.06.5-.06.74-.11a1.87,1.87,0,0,1,.88,0C-277.7,293.51-277.61,293.44-277.44,293.4Zm23.09-4.32-1.74.25a1.75,1.75,0,0,0-.41.09,8.41,8.41,0,0,1-2.37.54c-1,.15-2.07.26-3.1.38-.23,0-.35.13-.32.37a2.93,2.93,0,0,1,.12.76c-.05.52.51.74.53,1.21,0,0,.1.07.16.09a1.06,1.06,0,0,1,.6.48,2.49,2.49,0,0,0,.68.62,14.86,14.86,0,0,0,1.51.62c.14-.43.58-.63.64-1.07,0,0,0-.05.06-.07.52-.48,1-1,1.55-1.43.32-.28.71-.49,1-.77a2.63,2.63,0,0,0,.84-1.06A9.87,9.87,0,0,0-254.35,289.08Zm2.47,5.55v0c-.67.07-1.34.11-2,.21s-.7.6-.28,1,.73.54,1.08.81a.79.79,0,0,0,.56.12,11.34,11.34,0,0,0,2-.55,7.94,7.94,0,0,0,1.44-.5,4.47,4.47,0,0,0,.59-.27c.29-.14.57-.3.86-.45a1.85,1.85,0,0,1,.29-.13,1.65,1.65,0,0,0,.94-.63c.17-.27.16-.31-.13-.41a7.35,7.35,0,0,1-1.13-.44.66.66,0,0,0-.84,0,4.9,4.9,0,0,1-2,1c-.24,0-.48.12-.73.17A5.17,5.17,0,0,1-251.88,294.63Zm11,5-1.51,1a3.07,3.07,0,0,0-.42.28c-.11.1-.25.24-.24.36a.47.47,0,0,0,.27.33,2.6,2.6,0,0,0,.74.12c.24,0,.49,0,.74,0s.69.12,1.06.18a2.1,2.1,0,0,0-.1-1.38A9.09,9.09,0,0,0-240.89,299.61Zm-6.21-14.45c-.19.28,0,.57-.2.78,0,0,0,.11,0,.14a2.71,2.71,0,0,0,1,.86,1.33,1.33,0,0,0,.25-.35,1.79,1.79,0,0,0-.19-1.26.4.4,0,0,0-.28-.16A4.62,4.62,0,0,0-247.1,285.16Zm.89,8a6.33,6.33,0,0,0,.24-.84c0-.28-.3-.22-.43-.36a1.8,1.8,0,0,0-.21-.19c-.3-.23-.5-.21-.84.09.31.2.2.47.07.78Zm3.55-1c.24-.18.35-.55.72-.58,0,0,.09-.08.11-.13a.84.84,0,0,0-.24-.63c-.19-.14-.4-.23-.6-.07a3.2,3.2,0,0,0-.5.54.27.27,0,0,0,0,.26C-243,291.77-243,292.1-242.66,292.18Zm1.7,5.31a1.41,1.41,0,0,0-1.15,1.65c.32-.12.65-.22,1-.36a.53.53,0,0,0,.28-.33A6.77,6.77,0,0,0-241,297.49Zm-6-8.54a11.59,11.59,0,0,0-.85-.8c-.21-.17-.41-.07-.5.19a.65.65,0,0,0-.06.32.62.62,0,0,1-.12.53c0,.05,0,.13,0,.23Zm2.37-.25s0-.08,0-.12c0-.22.06-.43-.14-.6a5.66,5.66,0,0,0-.54-.43c-.19-.11-.41,0-.41.15,0,.34,0,.67,0,1,.21,0,.38,0,.54,0Zm1.46-2.05c-.33-.34-.62-.66-.93-.94a.46.46,0,0,0-.56-.06l-.12.47,1.23.76Zm-1.46,6-.09.72c.34.07.61.49,1.07.2C-243.83,293.2-244,292.73-244.56,292.68Zm-.13-1.35a.83.83,0,0,0,.75-.23c.19-.2,0-.39-.1-.58s0-.16-.07-.22a1.73,1.73,0,0,0-.25-.21Zm2.18-2.23c.16-.29.15-.38-.14-.41a.37.37,0,0,1-.34-.26c0-.06-.13-.14-.16-.12a.3.3,0,0,0-.18.17,2.44,2.44,0,0,0-.12.45Zm-5.38.93.16.42.78-.13c.07-.46,0-.53-.43-.44A4.63,4.63,0,0,0-247.89,290Zm11.25-21.57c-.28,0-.37.07-.36.29a2.17,2.17,0,0,0,.36,1.17Zm-5.52,24.69a1.27,1.27,0,0,1,.55.68,3,3,0,0,0,.29.44,2.51,2.51,0,0,0-.14-.84C-241.56,293.16-241.77,293.08-242.16,293.15Zm-.13,3.18c0-.64-.2-.89-.72-.9,0,.24.23.29.39.41A1.75,1.75,0,0,1-242.29,296.33Zm.84-9.1c-.29,0-.28.17-.22.34s.12.11.19.16c0-.11.07-.22.09-.33S-241.42,287.31-241.45,287.23Zm.38,8.24-.06-.79A.57.57,0,0,0-241.07,295.47Zm-5-4.85c-.15-.13-.26-.41-.56-.1Zm9.23-22.76c-.12-.07-.17-.12-.19-.11s-.08.06-.11.1.07.1.1.1S-236.93,267.9-236.84,267.86Zm.29,2.3c0,.25,0,.25.13.34Z" transform="translate(304.58 -236.35)"/></svg>