<svg id="Layer_1" data-name="Layer 1" xmlns="http://www.w3.org/2000/svg" viewBox="0 0 756.57 113.65"><defs><style>.cls-1{fill:#9e9e9e;}</style></defs><title>lab</title><path class="cls-1" d="M-98.74-46c2.55-.57,4.67-1.09,6.82-1.52,6.62-1.33,11.45.51,15.6,6.8a16,16,0,0,1,2,13.75,68.74,68.74,0,0,1-3.19,10c-1.43,3.29-4.32,5.43-7.29,7.38a52.89,52.89,0,0,0-5,3.71C-92-4-94.41-2.34-97.63-2.42c-1.52,0-3,.26-4.57.27-4.63,0-8.63-4.32-8-8.87.94-6.36.3-12.61-.59-18.91-.62-4.39-1.39-8.8-.74-13.29a25.73,25.73,0,0,0-.07-3.92c0-4.79.09-9.58-.15-14.36-.17-3.37-.8-6.72-1.28-10.06-.38-2.59-.88-5.17-1.28-7.76a12.66,12.66,0,0,0-.66-3.75c-1.21-2.69,2.18-5.71,5.37-5.05a27.84,27.84,0,0,0,3.51.55,5.85,5.85,0,0,1,5.33,6c0,5.79.25,11.57.43,17.36.08,2.73.14,5.46.38,8.18C-99.62-52.82-99.16-49.6-98.74-46Zm1.66,29.33.78.67a13.27,13.27,0,0,0,2.68-1.29c1.28-1,2.36-2.29,3.59-3.38,3.19-2.84,3.65-6.61,3.63-10.52a4.11,4.11,0,0,0-2.88-3.61c-2.18-.54-6.85,2.11-7,4.39C-96.49-25.87-96.8-21.29-97.08-16.71Z" transform="translate(830.16 114.23)"/><path class="cls-1" d="M-222.75-94.55c-.71,6.61-1.44,13.21-2.13,19.82-.75,7.2-1.34,14.42-2.23,21.59A55.36,55.36,0,0,0-227.53-42c.2,2.72,0,5.48,0,8.21.08,4.6.23,9.19.33,13.78,0,1.31.05,2.63,0,3.93-.12,2.52.22,3.16,2.61,3,5-.27,10.06-.68,15.06-1.29,3.39-.42,6.67-.91,10,.6a7.15,7.15,0,0,0,3.21.33c1.62-.07,2.13.71,2.17,2.17a4.57,4.57,0,0,1-3,4.67c-6.37,2-12.8,3.81-19.58,3.67-.66,0-1.32-.11-2-.07-4.37.26-8.73.68-13.1.79-5.28.13-9.47-2.84-9.1-9,.28-4.79.25-9.6.33-14.4.14-8,.06-16,.43-24a167.82,167.82,0,0,1,1.78-17,167.74,167.74,0,0,0,1.32-20.64c.15-5.51,2-10.45,4.42-15.25a2.75,2.75,0,0,1,3.17-1.22c3.44.67,5.34,3.24,6.95,6,.45.78,0,2.1-.06,3.18Z" transform="translate(830.16 114.23)"/><path class="cls-1" d="M-637.75-22.31c0,2.75.83,3.92,2.74,4.72,2.42,1,2.46,2,1.48,4.47-1.48,3.75-4.41,5.79-7.94,7.26-5.81,2.42-11.7,4.29-18.12,4C-665-2-669.64-3.77-673.2-8c-.56-.67-1.15-1.32-1.74-2a7.87,7.87,0,0,1-2.44-5.53c0-1.35-.71-2.69-1-4a6.4,6.4,0,0,1-.1-2.88,8.73,8.73,0,0,0-.32-5.8,3.66,3.66,0,0,1,1.12-4.41c2.37-2.16,3.93-4.88,5.63-7.58,2-3.11,4.32-6.29,7.27-8.34A18.57,18.57,0,0,1-651.42-52c3.13.46,6.29.82,9.37,1.52,4.17,1,9.47,7.09,9.95,11.24a5.69,5.69,0,0,1-2.64,6c-3.25,2-6.51,3.95-10.36,4.78-2,.43-3.79,1.57-5.72,2.29a32.37,32.37,0,0,1-3.73,1.07c-2.34.56-4.74.9-7,1.63-3.68,1.19-4.94,3.86-3.59,7.45a4,4,0,0,0,1.84,2.12,10.83,10.83,0,0,0,8.29.72c4.69-1.59,9.19-3.46,13.08-6.64A34.36,34.36,0,0,1-637.75-22.31Zm-10.68-17.5c-1.45-2.07-2.91-2.29-4.38-1.43a38.3,38.3,0,0,0-4.76,3.37c-.53.44-.71,1.32-1,2C-654.8-36.52-651.25-37.09-648.43-39.81Z" transform="translate(830.16 114.23)"/><path class="cls-1" d="M-655.56-64.54c-4.82,2.17-9.24,5.1-14.77,5.75-4,.47-8,.4-12,.88-3,.35-5.3,1.36-6.59,4.15-.92,2-1.9,4-2.62,6-1.63,4.64-2.83,9.45-4.75,14-2.14,5-3,10.53-6,15.27-1.42,2.29-2.2,5-3.28,7.47-1.53,3.56-3.56,6.71-7,8.7a4.41,4.41,0,0,1-3.47-4,17.57,17.57,0,0,0-1.36-4.33,4.59,4.59,0,0,1,.06-4.39c1.58-2.87,3-5.85,4.57-8.71a45.74,45.74,0,0,0,4.14-11c.61-2.32,1.76-4.49,2.55-6.76,1.19-3.42,2.36-6.84,3.39-10.31.66-2.25,0-3-2.29-3.16a8.23,8.23,0,0,0-2.94.22c-4,1.33-7.28-.59-10.64-2.18-1.7-.8-1.72-2.47-1.46-4A3.55,3.55,0,0,1-717-64.17a21.85,21.85,0,0,1,2.29-.18c4.55-.34,9.12-.62,13.66-1,3.74-.34,6.79-1.38,8.43-5.5,1.44-3.61,3.93-6.8,6-10.13a6.77,6.77,0,0,1,1.6-1.65c2.21-1.69,5-1.8,6.68-.31a6.24,6.24,0,0,1,1.23,7.43c-1,2-3,3.58-2.65,6.47a17.24,17.24,0,0,0,2.45.36c2.72,0,5.45-.11,8.16.08,2,.14,4,.78,6.08,1a43.88,43.88,0,0,0,5.84.32C-655.93-67.32-654.82-64.87-655.56-64.54Z" transform="translate(830.16 114.23)"/><path class="cls-1" d="M-763.12-65.43c.18,3.41.35,6.86.53,10.39,2.66,1.37,5.36,1.06,8.07.77,1-.1,2.31-.38,3.14.06a66.48,66.48,0,0,1,6.93,4.35,5.26,5.26,0,0,1,2.25,5.19c-.67,5.19-.34,10.42-1.67,15.62-1.09,4.22-2,8.49-3.35,12.66a7.62,7.62,0,0,1-7.61,5.55c-2.35,0-4.87.36-7-1.48a17.43,17.43,0,0,1,1.58-8.51,39.76,39.76,0,0,0,4.1-20.05,2.71,2.71,0,0,0-2.26-2.78,4.05,4.05,0,0,0-2.58,0c-3.57,1.78-7.41,3.11-9.46,7.1-3.79,7.39-7.85,14.64-11.75,22a22.49,22.49,0,0,0-1.38,3.67,6.06,6.06,0,0,1-9.22,3.35,4.37,4.37,0,0,1-2.23-4.7c.68-3.54,1.41-6.95,3.7-10s3.55-6.52,5.31-9.8a97.36,97.36,0,0,0,7-17.63,95.45,95.45,0,0,1,4.39-10.95,4.74,4.74,0,0,1,2.38-2.11C-769.47-63.9-767.34-67-763.12-65.43Z" transform="translate(830.16 114.23)"/><path class="cls-1" d="M-828.11-3.28c-2.39-3.69-2.77-6.8-.71-10.44A105.06,105.06,0,0,0-823.32-26c1.09-2.71,1.78-5.59,2.78-8.34,2-5.34,4-10.64,6-16,1.4-3.79,2.67-7.64,4-11.44,1.12-3.08,2.29-6.14,3.47-9.19,1.7-4.39,3.82-8.67,5.06-13.18A141,141,0,0,1-797-99.08c.65-1.62,1.4-3.19,2.1-4.79.35-.79,1.09-1.63,1-2.37-.43-3.22,1.65-4.82,3.86-6.28s4.73-2.38,7.24-1.06c-.13,1.24-.6,2.52-.3,3.59,1,3.44,1,6.6-1,9.75a37.1,37.1,0,0,0-2.59,5.69,41.75,41.75,0,0,0-2.86,11.44,9.88,9.88,0,0,1-.76,3.16c-4.19,8.6-7,17.69-9.87,26.78-1.21,3.84-3.09,7.47-4.66,11.2-1.66,3.93-3.44,7.82-5,11.82-1.39,3.68-2.49,7.47-3.74,11.21s-2.64,7.2-3.56,10.89c-.72,2.87-2.65,3.93-5.09,4.39A45.49,45.49,0,0,1-828.11-3.28Z" transform="translate(830.16 114.23)"/><path class="cls-1" d="M-144.19-12.88c-2.11,1.39-3.58,2.7-3.89,5a2.85,2.85,0,0,1-.84,1.67c-5,4.2-10.72,6.67-17.27,5.2a12.89,12.89,0,0,1-6.49-4.13C-177-10.27-179-16-177.35-23.1a51.29,51.29,0,0,1,5-12.75c3.91-7.22,10.48-10.33,18.3-11a10.7,10.7,0,0,1,5.9,1.52,61.76,61.76,0,0,1,8.95,6.48c1.69,1.47,3.45,3.61,3,5.92-.81,4.19.95,7.66,2.29,11.25A49.27,49.27,0,0,0-130-13.74c2.46,4.13.52,8.77-4.23,9.72-3,.6-4.63-.31-6.16-3.06C-141.48-9-142.85-10.87-144.19-12.88Zm-5.6-16.07c.49-2.07-2.51-6.82-4.56-7.25a2.38,2.38,0,0,0-1.59.15c-1.1.68-2.49,1.29-3.08,2.33-2.52,4.37-6.14,8.12-6.41,13.72-.16,3.27.36,5.75,2.74,7.92,2,1.8,3.63,1.81,5.24-.35C-153.74-17.38-150.78-22.71-149.79-28.95Z" transform="translate(830.16 114.23)"/><path class="cls-1" d="M-411.1-63.51a14.1,14.1,0,0,1-.91,2.38c-.94,1.48-2,2.88-3,4.32-2.27,3.28-5.88,3.57-9.31,4-4.77.66-9.58,1-14.36,1.62-3.15.4-3.86,1.45-4.43,4.67-.82,4.61-1.84,9.2-2.9,13.77-1.52,6.61-3.19,13.18-4.73,19.79-.54,2.34-.75,4.77-1.38,7.09-1,3.8-6.72,6.07-9.86,4.12a3.76,3.76,0,0,1-1.95-3.54,17,17,0,0,1,.87-4.81c3.26-8.87,5.17-18.09,7-27.31.87-4.37,1.11-8.86,1.68-13.68-.9-.92-2.46-.68-4-.62-2.08.07-4.15.26-6.22.27a2.92,2.92,0,0,1-3-2.55c-.39-1.55-.53-3,.95-4.18a41,41,0,0,1,4.1-3.29,8.11,8.11,0,0,1,3.71-.95c2-.06,3.93.24,5.9.35s2.73-.28,3.38-2.29c.3-.94.41-1.93.64-2.89.79-3.38,3.34-5.3,6.07-7,1.24-.74,4.26.84,5.14,2.68a8,8,0,0,1,.78,3.46c-.06,7.28.44,6.49,5.91,6.07,6-.46,12-1.19,18-1.78A11.9,11.9,0,0,1-411.1-63.51Z" transform="translate(830.16 114.23)"/><path class="cls-1" d="M-556.54-14a26.91,26.91,0,0,0-3.16,2.25,23.69,23.69,0,0,1-11.21,5.84c-7.14,1.8-15.75-3.2-14.34-12.18,1.08-6.86,3.06-13.27,8.36-18.66,5-5.08,11.27-7.34,17.16-10.51a8.68,8.68,0,0,1,8.24-.33,3.57,3.57,0,0,0,1.24.42c1.68.11,3.5-.5,4.64,1.5,1.72,3,3.62,5.81,2.18,9.71a37.4,37.4,0,0,0-2.07,9.6,17.83,17.83,0,0,0,.9,7.09c1.08,3.22-.51,5.88-1.52,8.45-1.2,3.06-7.12,2.71-9-.25A29.92,29.92,0,0,1-556.54-14Zm-14.69-1.1a35.27,35.27,0,0,0,3.31-3.28c3.29-4.23,6.53-8.51,9.68-12.85,1.42-2,2-4.13.1-6.64a17.21,17.21,0,0,0-3.93,1.19c-6.59,3.86-9.82,10-11.36,17.25C-573.83-17.54-573.38-16.21-571.23-15.08Z" transform="translate(830.16 114.23)"/><path class="cls-1" d="M-502.59-43.84a23.7,23.7,0,0,0-3.06,3.2c-4.05,6.27-5.09,13.32-4.21,20.5.45,3.64,3.8,6.79,8.9,5.39a25.8,25.8,0,0,0,9.72-5.35,52.78,52.78,0,0,0,5.38-5.3c4.36-4.87,6.82-4.94,11.84.17-.63,1.3-1.24,2.77-2,4.14-3.58,6.12-9.23,9.84-15.33,13-2.44,1.26-5.08,2.13-7.46,3.48-2.62,1.49-5.23,1.3-7.92.6-2.12-.54-4.2-1.22-6.29-1.87a2.88,2.88,0,0,1-1.15-.6c-3.19-3.14-6.69-6.12-7.59-10.83a24.26,24.26,0,0,1-.4-5.83,60.23,60.23,0,0,1,1-8.15,74,74,0,0,1,2-7.28,7.8,7.8,0,0,1,.89-1.72c1.46-2.3,2.79-4.72,4.47-6.86A26.25,26.25,0,0,1-502.76-55c1.25-.5,3.42.51,4.84,1.36a13,13,0,0,1,4.79,5.18c1.39,2.62.45,4.78-1.57,6.78-1.29,1.28-3.38,1.15-5.77-.28A19.45,19.45,0,0,1-502.59-43.84Z" transform="translate(830.16 114.23)"/><path class="cls-1" d="M-335.34-42.6c1.87-.34,3.35-.73,4.86-.86a33.8,33.8,0,0,1,7.16-.3c4.51.56,6.59,3.06,7.16,7.54a34.45,34.45,0,0,1-2.17,18c-1.73,4.07-2.79,8.68-6.31,11.93a8.52,8.52,0,0,1-8.8,1.82c-1.18-.49-1.92-1.3-1.63-2.5a20.55,20.55,0,0,1,1.88-5.85c2.48-4.15,4.95-8.29,6.21-13a45,45,0,0,0,1-6.36c.17-1.48-.77-2.19-2.05-2.55a6.94,6.94,0,0,0-7.77,2.84c-3.87,6.46-8.13,12.79-9,20.58-.2,1.86-1,3.08-2.94,3.41a19,19,0,0,1-4.5.63c-3.29-.26-4.91-2.53-4-5.68,1.74-6.31,3.6-12.59,5.52-18.85.93-3,2.1-6,3.14-9a15.13,15.13,0,0,0,.8-2.83c.53-3.77,5.67-6.69,8.92-4.85a6.43,6.43,0,0,1,2.06,2.79A11.61,11.61,0,0,1-335.34-42.6Z" transform="translate(830.16 114.23)"/><path class="cls-1" d="M-392.33-22.19c.45-3.47.77-7,1.41-10.4.25-1.33,1.53-2.46,1.84-3.8.89-3.76,3.76-5.53,6.57-7.7,5-3.89,10.57-4.48,16.5-3.6,2.75.4,4.77,3.25,5.63,6,1.75,5.56.41,11-.76,16.22-.79,3.55-2.91,6.84-4.61,10.15-3,5.84-7.84,9.15-14.32,10.29-4,.7-8.35-.57-9.66-5.58C-390.71-14.44-392.66-18-392.33-22.19ZM-370-32.83c0-5.06-2.42-7-6.27-5.22a8,8,0,0,0-2.43,2.12c-4.21,4.72-3.53,10.55-3.54,16.2a5.35,5.35,0,0,0,.8,2.14c1,1.95,2.41,2.33,3.9.82C-373.08-21.32-370.92-27-370-32.83Z" transform="translate(830.16 114.23)"/><path class="cls-1" d="M-624.14-9.92c0-1.47.08-2.88,0-4.29-.15-2.26,5.37-14.36,6.34-17.5.32-1,.39-2.13.69-3.17.56-1.85,1.19-3.67,1.83-5.5.18-.5,6.92-20.42,8.37-22.73,1.24-2,2.74-2.54,4.73-1.91,1.59.5,2.53,2.07,2.41,4.23-.14,2.49-.35,5-.57,7.91,2,0,3.45.13,4.92,0,5.39-.54,5.39-.57,10.8,2.07v4.39a17.59,17.59,0,0,1-10.69,4.31,6.22,6.22,0,0,0-3.2,1.3C-604.59-36-608-29.54-609.86-22.12c-.85,3.36-1.33,6.81-3,10-2.07,3.84-5,5.15-8.92,3.41C-622.6-9.09-623.35-9.52-624.14-9.92Z" transform="translate(830.16 114.23)"/><path class="cls-1" d="M-403.39-32.68c-.62,2.24-1.26,5.09-2.21,7.84S-408-19.21-409-16.32c-.77,2.38-1.08,4.9-1.64,7.34s-4,4.87-6.35,4.66a4.51,4.51,0,0,1-4.37-5.1A28.48,28.48,0,0,1-420-15.16c1.31-3.93,2.78-7.8,4.2-11.7.93-2.56,1.8-5.15,2.84-7.67A9.58,9.58,0,0,1-408-39.17c1.79-.9,3.25-.3,3.91,1.62A29.74,29.74,0,0,1-403.39-32.68Z" transform="translate(830.16 114.23)"/><path class="cls-1" d="M-400-49c-2.58,0-4.42-1.4-4.42-3.42a5.79,5.79,0,0,1,5.63-5.76c2.44-.09,4.43,1.45,4.43,3.41A5.83,5.83,0,0,1-400-49Z" transform="translate(830.16 114.23)"/></svg>