<svg id="Layer_1" data-name="Layer 1" xmlns="http://www.w3.org/2000/svg" viewBox="0 0 1350.19 552.47"><defs><style>.cls-1{fill:#9e9e9e;}</style></defs><title>lab_2</title><path class="cls-1" d="M-631.43,1648.9l2-2.59,1.3-1.66,4.63-3.26-.72-1.49c.84-1.49,2-2,3.93-.76-.22-1.58-.39-2.73-.59-4.16,1.31-.11,2-2.38,4.06-1.85.17,0,.79-.68.73-.79-1.2-2.19.47-1.84,1.69-1.81-.87-2.49-.87-2.49,1.56-3.55-1.22-1.75-1.11-2,1.29-3.37l.33-4.14,3.36,2.27c0-1.35.29-2.37,0-3.15-.65-1.63.09-3,.42-4.49.18-.82,1-1.7,2-.41.92-1.48,1.82-2.93,2.7-4.38a2.05,2.05,0,0,0,.28-.82c.07-1.16,1.6-2.38,2.65-2a41.82,41.82,0,0,1,4.52,1.75c.67.32,1.56,1,1.6,1.6s-.77,1.37-1.29,2c.55.41,1,1-.28,1.6a5.19,5.19,0,0,0-1.27.69,2.69,2.69,0,0,0-.76,1.06c1.72,1.79-.65,2.4-1.09,3.48a29.62,29.62,0,0,1-2.52,4,6.58,6.58,0,0,0-.65,1.46c-.41,1.25-1.14,1.94-2.18,1.57-2,1.75-1.06,5.1-4.19,6.17.27,1.7-.94,2.78-2.21,4s-3.23,2.3-3.51,4.59c-.06.58-1.1,1.21-1.82,1.5a25.88,25.88,0,0,0-3.58,1.34l3,.45a19.3,19.3,0,0,1-1.15,2.1c-1.28,1.66-2.61,3.28-4.14,5.19,0-.15.18.42,0,.61-1,.94-2.15,1.69-3.05,2.69s-1.33,2.09-2.08,3.07c-1.06,1.4-2,3-4,3.27-.44.06-1.14.41-1.19.73-.26,1.42-1.44,2.47-1.72,3.65-.45,1.84-1.59,2.59-2.9,3.51a23,23,0,0,0-2.25,2.37c-.45.41-1.14,1-1.6.86-1.94-.41-2.57.81-3.19,2.2s-1.31,3-2.1,4.39a10.83,10.83,0,0,1-1.65,1.8l-1.14-1.16c-1.23,1.43-.86,4.09-3.64,4.1a8.75,8.75,0,0,0-.2,1.23c0,1.92-.76,3.08-2.91,2.83a.71.71,0,0,0-.61.32c-.41,1.7-1.58,2.22-3.49,1.63l.15.67,1.13,1c-.06,1.33-3.61,3.14-6.21,3l1.1,1.16c-.29,1.85-3.79.92-2.92,3.75l-2.22-.18.58,1.6c-1.3,1.4-1.3,1.4-6,2.52,0,.33-.12.74,0,1,.74,1.37.54,1.93-1.16,1.74a1.79,1.79,0,0,0-1.39,1c-.91,2.28-2.79,3.33-4.91,4-1.59.54-3.23.9-5.08,1.4.09.12.47.58.82,1.06s.85.92.87,1.41c0,.34-.59.89-1,1-1.47.52-3,.89-4.6,1.35l.37,1.87c-1,.94-1.58,1.66-2.31,2.25-1,.85-2,2-3.67,1.43a16.3,16.3,0,0,0-2.35-.48l.19,2.25,1-.39.19.35c-.35.21-.71.41-1,.64a19.58,19.58,0,0,1-2.32,1.6,22.35,22.35,0,0,1-2.6.79,8.77,8.77,0,0,0-1.26.64c-.54.3-1.12.94-1.59.86a1.54,1.54,0,0,0-2.06,1.18,14,14,0,0,1-2,2.77,13.93,13.93,0,0,0,1.7.59c1.58.33,3.16.67,4.76.87.83.1,1.73-.29,2.53-.14a21.81,21.81,0,0,1,4,1.23c.23.1.15.95.27,1.93.53-.48,1.06-.73,1.2-1.12.44-1.2.75-1.74,2.36-1.2,1.45.48,3.24,0,4.88-.13.41,0,.81-.07,1.43-.13l-.49,1.92,3-1.55.85,1.54c1.12-.78,3.26,0,3.19-2.42,0-.15.65-.44,1-.44,1.77,0,3.68-.38,5.26.18,2.13.75,3.37-1.2,5.21-1s3.63-.38,5.57,0,3.9-.34,6-.59l.28,1.91.46.35c.31-3.89,3-2.7,5.41-3.18a17.06,17.06,0,0,1,5.4-3.45c-.52,1.5-.9,2.61-1.33,3.84,1.44-1.09,2.66-2.77,4-2.89A3.73,3.73,0,0,0-639,1726a9.32,9.32,0,0,1,2.11-.73c.71,0,1.84-.08,2.1.32,1.2,1.86,2.46,1.57,4,.38-1.53-.83-1.35-1.66,0-2.56l1.28,2.84c.6-.73,1.36-1.25,1.35-1.75,0-1-.06-2,1-1.9,1.4.12.63,1.27.54,2a1.78,1.78,0,0,0,.13.47c1.07.28,2.31,1.05,2.55-.8l-2.3-1.3,3.56-1.87.45.67a27.29,27.29,0,0,0,6.67-3.93c-.45,1.4-.8,2.51,1.23,2.4.22,0,.53.72.72,1.14.29.63.51,1.29.75,1.9-2,.73-4.12,1.58-6.29,2.23-.57.17-1.33-.3-2-.46-1.22.63-2.75,1-3.67,2a4.57,4.57,0,0,1-4.33,1.34,2.93,2.93,0,0,0-2.09,1.15c-1,1.22-1.49,1-2-.56l-3.84,2.53-1.33-2-.84,2c-2.49-1.16-4.36-.6-6.93,2.23l-1.13-1.84-1,2.65-.63.22-.28-1.12a23.65,23.65,0,0,1-4,1.66c-2.45.5-4.95.71-7.42,1.06-.37,0-.84,0-1.06.26a4.16,4.16,0,0,1-4,.87c-2.27-.44-4.33.25-6.39,1.06-.77.3-1.78.75-1.65-.52l-21.23.52c-.67-1.24-1-1.27-2,.23a8.31,8.31,0,0,0-2-.93c-1.48-.24-2.11-.75-1.2-2.49l-6.06,1.89.15.46-2.8-1.68c.07-1.62-.12-1.64-1.71-1.14-1.85.58-4.06,1.65-5.62,1.1-2.47-.86-3.83.71-5.71,1.15-1.47.34-3.15-.16-4.8-.3l-1.37,1.89-.21-.4c-.57.16-1.15.31-1.71.49a9.24,9.24,0,0,1-2,.68,32.18,32.18,0,0,1-4.71,0,38,38,0,0,1-4.09-.74l.07-.93-4.56.35-.15-.56,1.4-1.57-.13-.53a12.67,12.67,0,0,1-1.45.34,3.57,3.57,0,0,1-1.72,0c-.28-.12-.31-.86-.5-1.47l6.67-.24c1.1-1,5.35-1.17,6.18-.14l2.88-.67a3.71,3.71,0,0,1,4.39,0c.29.18.66.52.91.45,1.47-.39,2.91-.87,4.36-1.35a26.3,26.3,0,0,0,3.15-1.15,4.51,4.51,0,0,0,2-1.54c.19-.33-.58-1.19-1.1-2.17l2.3-.54c1.23-3.07,3.66-1.51,5.87-1l.31-.55-2-1.76,2.36-.59,1.94-2.34.48.31-.23,1.51c.5,0,1.2.3,1.46.06a1.7,1.7,0,0,0,.25-1.45c-.47-1.54.79-2,1.58-1.84,1.63.24,2-.67,2.45-1.81s1.2-1.25,2,0l1.11-2.87,1,.9c1.06-1.32,2.07-2.51,3-3.75.6-.78,1.19-1.13,2.19-.61s2.84-.76,3-1.75a2.49,2.49,0,0,1,3.27-2.12,7.37,7.37,0,0,0,1.48.14l-1.78-1.53a11,11,0,0,1,2-.93,13.37,13.37,0,0,1,2.37-.14c.1-.34.2-.81.35-1.26.57-1.71,1.69-1.93,3.36-1.43,1,.29,2.26-.3,3.35-.68.28-.09.33-.85.66-1.81a8.18,8.18,0,0,1-2,1.14,6.07,6.07,0,0,1-2-.47c1.39-1.47,4.68-.93,3.33-3.93,4.36-2.42,6.79-5.33,6-7.35l2.65-1,.32,2.15.62.06,1.82-6.13.82,1.69.24-3,3.48-1.48c0-1.49,1.47-2.17,2.72-3,.21-.14.73.19,1.11.31l2.3-1.84-1.35-1c1.6-2.13,3.38-3.88,5.5-4.6a18.15,18.15,0,0,1,1.86-3.69c1.48-1.77,3.2-3.33,4.85-5,.28-.27.75-.33,1.1-.54s1-.46,1.12-.81a8.54,8.54,0,0,1,3.88-5.27c.49-.3.65-1.09,1.12-1.43a2.81,2.81,0,0,1,1.28-.3l2-5.57.58,2.09,2.81-3a3.12,3.12,0,0,0-1.22-.07A19.55,19.55,0,0,0-631.43,1648.9ZM-694,1719.2c-.87-.43-1.48-1-2.09-1a21,21,0,0,0-3.39.54l.1.54,1.93.71,0-.34Zm60-53.25c-2-.75-3.66.08-4.46,2.18Zm-78.65,65.65.41.66c.59-.4,1.43-.67,1.71-1.23s0-1.39,0-2.1l-.42.12Zm84.86-75.3.29-.58a6.1,6.1,0,0,0-2.1-.91c-.37,0-.76,1-1.42,1.86Zm3.58-8.23.31.31,3-.83c-.87-.62-1.7-1.39-1.86-1.28A8.14,8.14,0,0,0-624.2,1648.07Zm-35,36.58c2,1.79,2.41,1.78,3.19-.22Zm-2.25,4.13,1.79-2.57-2.58.31ZM-635,1662c-1.48-1.65-2.15-1.12-3.1.53Z" transform="translate(1806.37 -1599.33)"/><path class="cls-1" d="M-459,1701.64a17.59,17.59,0,0,0,.53,2.75c.67,1.86-1.07,1.69-1.84,2.32,1,2.32,0,6.86-1.9,8.67-.8-1.71-2.29-1.2-3.39-.7-.53.24-.55,1.62-.8,2.48l.51.25,2.45-1.67,1.32.91-2,3c1.06,1,.91,1.92-.27,3.19a19.12,19.12,0,0,0-2,3.18c.07-.88.14-1.76.22-2.8l-2.75,3,2.53-.24c-.22,1-.45,2.1-.67,3.15h-.35l-.62-1.83c-.22,1.41-.37,2.33-.53,3.32l-1.39-1-2.88,1.71,4.86.39.06.45-4,1.61c.07.75.15,1.51.24,2.4l-1.69-.13-.28.28,1.44.89c-.82,1.86-1.4,3.32-2.1,4.71s-1.89,1.47-3.4,1c.13,1.35.26,2.62.42,4.23a13.41,13.41,0,0,1-3.8-.92c-1.13-.63-1.9-1.9-2.88-2.93l-1.46,1.08c1.49.85,2.86,1.66,4.25,2.43.65.37,1.33.68.25,1.35a2.78,2.78,0,0,0-.27.21c1.54,1.91-1,3-.91,4.74.12,1.45-2.19,3.11-3.7,3-.59,0-1.18.51-1.8.63-1.29.24-2.15,1.82-3.75,1.11a4.42,4.42,0,0,0-1.82-.25c-2,0-2,0-2.55-2.13h1.72l.14-.39-3.39-1.37c.12-.92.27-2.08.43-3.37a10.18,10.18,0,0,0,1.05.33c1.3.28,2-.17,2-1.58a7.32,7.32,0,0,1,.4-1.63l.64,0-1.53-1.75c-.71-1.28.25-1.51,1.43-1.4,2.46.24.55,1.81.74,2.72,3.13.28,3-2.57,4.22-4.13a23.87,23.87,0,0,1,4.38-4.2c.58-.43,1.76-.08,2.79-.52l-2.3-1.26.52-1.35,2.73.9c-.15-1.25-.15-1.25-2.91-1.83l2-.92c.46-1.09.79-1.84,1.09-2.6a26,26,0,0,1,1.44-3.52,13.32,13.32,0,0,1,2.22-2.24l-.4-.88c1.53-.41,2-1.22,1.72-2.84-.14-.86.82-2,1.45-2.84.26-.37.94-.44,1.68-.75l-.81-.54c.41-1.5.77-2.79,1.13-4.08l1.27-.43-.39-.86,1.31-3.28,3.1-2.23-2.2-.5c.48-2.07.94-4,1.4-6l0,0c.2-.71.44-1.41.58-2.13a2.11,2.11,0,0,0-.2-.86c-.3-1-.51-1.71.61-2.5s.62-2.27-1-2.88c.12-1.45.17-2.91.39-4.35a3.05,3.05,0,0,1,.86-1.38,8.8,8.8,0,0,1,1.19-1c-.38-.44-.7-1.18-1.15-1.28-1.51-.33-1.77-1.18-1.92-2.61a13.73,13.73,0,0,0-1.55-4.76c-1.05-2-1.65-2-3.77-.88l-.56-1.6c.63,0,1,0,1.45,0s.81-.06,1.37-.1l-2.08-1.46,1.55-.89-2.49-.2c0-.34,0-.7.07-.76,1-.58,3.51-.08,4.31.64a2.43,2.43,0,0,0,1.54.43c1.67,0,2.08.26,2.45,2,1,0,2.62-.81,2,1.45.92.18,2.06.09,1.19,1.68a3.36,3.36,0,0,0,0,2,18.68,18.68,0,0,0,.74,2.38c.08.22.22.54.38.58,2,.47,1.11,1.88,1,3.13l1.22.63a1.49,1.49,0,0,0,0,.17,36,36,0,0,0-4.76.11c1.69.86,3.14,2.26,5.36.86.9-.56,1.47.66,1.38,1.75-.13,1.51-.2,3-.29,4.53l.58.1-1.49,1.9c-1.28-1.28-.9-2.39-.35-3.61.3-.67.61-1.81.29-2.15s-1.48-.43-2.36-.25l1.21,1.28c-1.77,2.59-.39,5.3-.11,8.29l-2.78-.22,2.79,3.5Zm-18.31,34.95a6.4,6.4,0,0,0-.82.14,4.82,4.82,0,0,0-1.11.43c-.06,0,0,.58.15.61a1.92,1.92,0,0,0,1.19.12,13.77,13.77,0,0,0,1.79-1l-.62-2.86-.37-.06Zm-5.6,12.27c-.05-1.64-1.3-2.16-3.09-1.4C-485.49,1749-485.49,1749-482.93,1748.86Zm21.42-67.15-.64,0-.22,2.75a4.71,4.71,0,0,0,.93-.15C-461.42,1683.48-461.47,1682.6-461.51,1681.71Zm-1.81,7.68,1.44-1c-.36-.34-.71-.94-1.08-1s-.82.52-1.23.82Z" transform="translate(1806.37 -1599.33)"/><path class="cls-1" d="M-504.65,1680.38l3.44-1.05c-.69-1.22,3.25-1.72.8-3.77l.63-.35c.39.41.81.79,1.18,1.22.49.6,1,1.23,1.56,2l-1.76,1.38c1.24,2-2.8,3.71-.13,5.88-.74.49-1.93.9-.61,1.89.11.08.17.45.1.51-1.43,1.23-.93,2.75-.8,4.28,0,.34-.76.85-1.26,1.13a7.78,7.78,0,0,1-1.61.51c.95.6,2.15,1,2.19,1.45.11,1.41-.41,2.72-2.22,2.87-.06,1.26,2.35,2.19.16,3.62l-1.65-.59c.7,1.17,1.27,2.11,1.83,3.06.15.26.43.74.37.79-1.45,1.25-.18,2.58-.22,3.86,0,.48-.74,1-1.25,1.38a4.12,4.12,0,0,1-1.49.27c.39.38.49.57.64.62,1.93.65,1.9.62.6,2.19a2.92,2.92,0,0,0-.35,1.46c-.14,1,.05,2.27-.46,3-.27.41-1.74,0-2.67,0a10,10,0,0,0-1.73,0,9.88,9.88,0,0,0-.15,1.69l1-1.07,3.73.79-.87,2.59,2.39.82c-.59-2.57,1.11-3.84,2.26-5.11.57-.63,2.21-.3,3.37-.41l.11.46-4.34,3.85c.21.26.66.87,1.17,1.42s1.09,1.06,1.71,1.65c.85-.82,1-1.5-.1-2.16-.28-.18-.78-.53-.74-.61a11.12,11.12,0,0,1,.88-1.42c.9,1.12,2-2.44,2.89.15.11.35.47.62.72.93.53.67,1,1.29-.23,1.82-.43.19-.74.74-1.05,1.17s0,1.74-1.32,1.49a8,8,0,0,0-.17,1.74c.18,1.87-.45,2.66-2.36,2.82-1.48.11-3.17,1.73-3.11,3l4.61-2,.34.31-3.11,4.18c-.13-.08.24.07.5.32a11.84,11.84,0,0,1,1,1.17l-1.13.55a17,17,0,0,0-1.72,1c-.56.41-1.05.93-1.92,1.71-.11-1.22-.16-1.81-.23-2.5l-3.7,0,.84-1.21-1.67-.27c.12-.52.23-1,.4-1.74l-2.14.76c-1-1,.6-3.34-2.08-3.4l1.31-2.79c2.22,2.49,2-1.27,3.45-1.09.93.62.08,2.71,2.17,2.51-.12-1-.24-1.91-.36-2.88-1.21-.43-2.38-.68-3.41.53-.14.16-1.22-.14-1.22-.26-.08-1.76-1.43-1.11-2.59-1.28l-.28-5.55.66-.45.41,1.14.21,0c0-.5.17-1.14-.08-1.47-2-2.63-1.14-5.21-.09-7.87.23-.56-.06-1.31-.06-2a13.53,13.53,0,0,1,.14-2.21c.2-1.06.51-2.1.77-3.15l-.57-.3,1.39-.56-1-1.52,1.13-1.05a6.9,6.9,0,0,1-.46-2.09c0-.49.63-.93,1.07-1.51-.75-3-.34-4.46,1.73-5.46-.29-1-.56-1.94-.88-2.91-.81-2.43-.28-3.33,2.08-3.5-1.69-1.89-1.07-5.49,1-6l2.47-.56Zm-.14,23-.57-.43-1.77,2.89-1.27,2a22.11,22.11,0,0,0,3.32-1.26c.63-.35,1-1.09,1.83-2l-2.38.44ZM-505,1689l-.44.47c.45,1.16.89,2.32,1.42,3.68l1.66-2.17Zm-5.2,17.42h-.63c.56,2.13.93,4.18-2.28,4.42,1.32,1.18,2.83,1.16,3,.11A28.6,28.6,0,0,0-510.18,1706.46Zm5.27,22.47c2.1.75,4.81.14,5.4-1.56Z" transform="translate(1806.37 -1599.33)"/><path class="cls-1" d="M-582.55,1702.58c.9-1,2.53-.82,3.43-2.06.24-.33,1.63.17,2.87.34-.46-.37-.63-.6-.85-.67-1.61-.47-1.78-1.41-1.12-2.81a5.66,5.66,0,0,0,.44-2.12c0-1.38.73-1.83,2.07-1.66l0,2.26,5-3.24-2.7-.89c.57-1.56,1.12-3,1.66-4.54l.43,0-.24,3.06c1.55,0,2.5.73,2.13,2.59,1.77-2,1.77-2.35.47-3.86-.2-1.71-.34-2.89-.48-4l3.05,1.91.51-.42.07-2.59a27.86,27.86,0,0,0,3-.18c1.29-.2,1.66-1,.92-1.92.78-.35,1.42-.69,2.1-.93.43-.16,1-.37,1.37-.18.91.5,1.52.92,2.75.3s1.8-1,1.82-2.27c0-.29.73-.83,1.1-.81a43.82,43.82,0,0,1,5.24.5c.47.07,1.18.7,1.17,1.06,0,.54-.54,1.08-1,1.86l3.13,1c0,.41,0,1.12,0,1.82l-.38.4-1.63-1.54-.09.32-2.7-1.47.78-2.43-2.74-.23,1.06,1.54-1.93,2.18c-.71-.47-.42-2.54-1.91-1.61-1.66,1,0,2.06.49,3.2l-2.51.46-.22-1.82-.41,0-.53,3.51-1.47.56.09-1.09-.5-.24c-.23.48-.34,1.12-.72,1.41-1.9,1.45-2.4,4.55-5.46,4.66-.22,0-.46.45-.62.74s-.13.78-.24.79c-3.51.39-1.17,3.84-2.74,5.21a8,8,0,0,0,1.75,1.37,11.11,11.11,0,0,0,2.47.44v.57l-2.45,1,.12-.56-3-.81-.23.56a5.36,5.36,0,0,1,.89.75,9.3,9.3,0,0,1,.78,1.41l-3.45-.52c.26-.77.45-1.37.65-2l-.25-.22-2.48,3.11,2.35.7-2.82,2-3.72-1.38c-.14,1-.3,2.05-.4,3.07a5.65,5.65,0,0,1-1.92,2.35,1.68,1.68,0,0,0-.48.4c1.13,1.38-.53,2.2-.68,3.32-.2,1.41-1.26,1.78-2.59,1.63-.73-.09-1.47,0-2.2-.07l-.09.68a8,8,0,0,1,1.86.39c.39.19,1,.88.88,1.05-.67,1.35-1.49,2.62-2.21,3.83l-7.16,2.81c1.29,2.44,3.89-.79,5.56,1.26a20.45,20.45,0,0,0-2,.6c-1,.44-2,.86-1.15,2.32.18.33-.39,1.06-.67,1.74l1.51.27c-.44,1.16-.89,2.38-1.35,3.59l.06,0a4.53,4.53,0,0,0-3.91-.27,2.5,2.5,0,0,1-3.2-2.92,8.56,8.56,0,0,1,.8-2.24,2.4,2.4,0,0,0-1-3.46c-.91-.57-.65-1.25.06-1.47,1.79-.55,1.61-1.93,1.67-3.67,1.08,1,1.33,4,3.57,1.6-1.08-.93-1.54-1.77.45-2.1.24,0,.41-.57.62-.87l3.15.25c-1-1.32-2-2.16.41-2.38.33,0,.58-.82,1.16-1.68-1.25.14-2.27,0-2.59.35a24,24,0,0,0-2.08,3.51l-3.86-2.47c-2.46,1-4.47,3-7.42,2.46-.37-.07-.94.43-1.27.8-1.07,1.22-1.29,1.28-2.72.28l-2.49,1.9.2.31-2.68,0c-.29-1.2-.64-2.47-.88-3.76a2.67,2.67,0,0,1,.25-1.31c0-.08.74-.07.8,0a7.21,7.21,0,0,1,.37,1.4c0,.17,0,.36.06.54l2.65-.13-1-2.11,3.18-1.19c.22.8.51,1.88.77,2.82.88-.7,1.71-1.28,2.44-2a1.66,1.66,0,0,0,.23-1.15c-.17-2,0-2.15,2-1.6a5.74,5.74,0,0,0,1.15.05l-.23,2.8.38.3a19.81,19.81,0,0,1,2.48-2,37,37,0,0,1,3.65-1.72c-.09-.65-.24-1.65-.36-2.49l4.31-1.11-.46-.43,2.18-3.69c2.14,1,5.39-.78,5.79-3Zm7.23-2.38c1.67-2.11,3.36-1.57,5.14-1a10.4,10.4,0,0,0-7.63-2Zm12.29-12.37a6,6,0,0,0-2.54-.12c-.5.21-.75,1.24-.9,1.94-.07.32.38.75.59,1.13a9.12,9.12,0,0,0,1.51-1.07A15.35,15.35,0,0,0-563,1687.83Zm-20.9,20.41.28-.13c-.22-.4-.53-1.15-.64-1.12a22.93,22.93,0,0,0-2.5,1c1.49,1.11,1.49,1.11,2.48-.28Zm-5.6,5.62.27.74,2.42-.58a8.63,8.63,0,0,0-.33-.91C-588,1713.32-588.75,1713.6-589.53,1713.86Z" transform="translate(1806.37 -1599.33)"/><path class="cls-1" d="M-591.08,1734.33c.66,0,1.55-.28,1.92,0,2.85,2.44,5.25,1.76,7.65-.76l1,2.55,2.67-1.14-.16-.4,2.08.4-.29-1.64c-1.05.28-2.65,1.42-2.47-.76.07-.83.29-3.1,2.68-2.47l-.85,1.38.39.53,3.28-2.06,3.65.7c-.56-2.33-1.29-2.6-2.86-1.69a2.44,2.44,0,0,1-2.1-.19l3.85-4.7,2,.16.15-.56-4.35-1-.24-.45c3-.3,4.61-1.72,4.54-4.8,2,.11,2-1.08,1.39-2.58a5.31,5.31,0,0,1,1.38-.68c.2,0,.75.61.69.73-.55,1.11-1.3,2.12-1.78,3.25a32.81,32.81,0,0,0-1.06,3.67l.55.16c.28-.92.55-1.84.89-3,1,1.89,2.38,2.58,4.39,1.32.05.49.23,1,.09,1.11a20.69,20.69,0,0,0-3.24,2.57c-.64.81-.68,2.11-1.08,3.5l-2.32,0a14.69,14.69,0,0,0,.79,1.59c1,1.55.62,2.87-1.27,3.11-1.51.2-1.92,1.48-2.84,2.23-.17.14.16.88.27,1.37l-7.64,5c-.34-1.53-1.45-1.27-2.52-.93-.87.27-1.69.68-2.85,1.16,0-.87-.09-1.87-.13-2.87l-.24-.09-.59,2.22c-2-.9-4.15-1.09-5.62-2.92-.73-.9-2-1.4-3-2.53a13.75,13.75,0,0,0,2,0,4.51,4.51,0,0,0,1.19-.58Z" transform="translate(1806.37 -1599.33)"/><path class="cls-1" d="M-499.82,1668.28l-2.6,0c.51,2.41-1.07,1.19-2.07,1.1l-1.13,1.33-.45-.06.27-3.36,3,.24a23.76,23.76,0,0,1-2.08-2.91,6.66,6.66,0,0,1-.3-2c.58.09,1.15.23,1.73.27a11.73,11.73,0,0,0,1.56-.08,3.66,3.66,0,0,1,3.39-4.18c.27,0,.51-.37.77-.56-.23-.25-.4-.59-.68-.73-1.14-.56-2.31-1.06-3.25-1.49l-2,2.18c-.28-2.14,0-3.36,2-3.67-2.56-1.33-2.52-1.33-1.62-4.49a16.19,16.19,0,0,0,.27-3h.69c0,.86.09,1.72.14,2.84l2.42-.29a11.32,11.32,0,0,0-.34,2.56,1.88,1.88,0,0,0,1.07,1.23,11.39,11.39,0,0,0,2.51.46l-.36-1.5,3,.24q0,1.11.06,2.49l-2.16.69c2.05,1.34,1.16,3.09,1.15,4.67-.5.37-1,.73-1.46,1.07-1.19.85-.85,1.65.29,2s1.26,1,.89,1.75c-.19.36-1.05.52-1.61.52a13.17,13.17,0,0,1-2.31-.35l-.19.84c.91.22,1.81.49,2.73.63s1.53.46.83,1.51c-.09.13-.24.32-.2.43.93,2.45-.65,1.66-2.08,1.64l1.58,1.59c-.26,1.34-.5,2.62-.83,4.27-1.14-1.11-2-2.07-3-2.91-.33-.27-.95-.21-1.44-.31l-.18,2.21c-.87.09-2.05.19-3.22.34-.12,0-.21.28-.4.54,1.87,1.16,1,2.86.85,4.44,0,0,0,0,0,0l-3-1-.29.41c-.91-1.69,1-1.21,1.58-1.86l-1.24-4.67,3.19-.87.31-1.61c2.09.42,3.05-1.2,4.22-2.5l.42,1.88,2.29-1.77a14.31,14.31,0,0,0-1.82-1.2C-499,1667.09-499.53,1667.88-499.82,1668.28Zm-.35-2.55-.69-.81-1.95,1.71.52.64Z" transform="translate(1806.37 -1599.33)"/><path class="cls-1" d="M-557.34,1709.56c0-.36-.09-.85.1-1.06a1.6,1.6,0,0,0-.39-2.74c-.86-.31-2.39-1.51-3.16.67l-.5-.44c.21-.55.33-1.5.65-1.57,1.75-.42,1.44-1.62,1.32-2.82,0-.15.16-.31.48-.87,1.33.67,2.66,1.37,4,2a2.38,2.38,0,0,0,1.4.3c1.82-.39,2.28,1,2.65,2.16.16.5-.71,1.33-1.27,2.3a6.39,6.39,0,0,1,1.38.45c.69.38,1.61.75,1.89,1.37.44.94-.33,1.24-1.23,1.14s-2-.17-3-.25l-.17.54c1,.38,1.9.81,2.88,1.1a11.15,11.15,0,0,0,2,.23l-.56,2.27.92.27c1.23.33,2,1.05,1.63,2.38-.39,1.53.68,1.61,1.65,1.79a13.61,13.61,0,0,1,2.25.29,21.71,21.71,0,0,1-.18,3.59l-.64.08c-.28-.36-.58-.71-.82-1.09s-.3-.9-.5-.93c-1.76-.26-3.14-1.71-4.56-2-2.39-.55-2.82-2.37-4-3.82l2,.37.13-.47-5.28-2.51-1.16-2.76Z" transform="translate(1806.37 -1599.33)"/><path class="cls-1" d="M-527.1,1714l1.47.86c-.35.25-.82.43-1,.77a6.12,6.12,0,0,0-1.29,2.5c-.11,1.33-.81,1.31-1.72,1.24-2.47-.17-3.4.49-4.17,3l1.3.77c1.28-.56-.52-2.93,2.22-2.8a19.44,19.44,0,0,1-1.24,4.17c-.27.49-1.63.46-2.49.5a19.36,19.36,0,0,1-3-.16c-.53-.05-1.34-.07-1.52-.39-.61-1-3-.65-2.26-2.6.32-.81,1.34-1.34,2.21-2.17.64,1.58-.06,4,3.07,3.25-.38-1.24-.76-2.47-1.2-3.88,1.16-.74,2.19-2,4.27-1.54.93.22,2.14-.78,3.74-1.44l-1.67-.59c-.29-2-.54-3.7-.78-5.32L-528,1708a6.15,6.15,0,0,1,1.23.29c.47.19,1.26.59,1.23.81a2.83,2.83,0,0,1-.85,1.59,13.76,13.76,0,0,1-2.13,1.32l-.62-1.53-.39.06c0,1.13,0,2.27.07,3.41l.5.07,2.57-2.46.5.33C-526.31,1712.58-526.71,1713.32-527.1,1714Z" transform="translate(1806.37 -1599.33)"/><path class="cls-1" d="M-491.93,1697.46l-1.07-2.27.38-.26,1.09.67.26-.27c-.33-.46-.66-.92-1-1.41,2.13-1.11,4.22-.56,4.38.84l-2.56.7,1.84.56c.49,1,1,2.06,1.53,3.14-.17.26-.43.74-.76,1.18s-.68,1-1,1c-1.53,0-2.28.58-2.31,2.1,0,1.17,0,2.35-.11,3.52,0,.41-.1,1-.37,1.16-1.54,1-2.51.58-3.4-1.08-.2-.37-.67-.59-1.16-1,2.63-.58,1.37-2.58,1.37-3.88C-494.84,1699.67-494.21,1698.23-491.93,1697.46Z" transform="translate(1806.37 -1599.33)"/><path class="cls-1" d="M-496.6,1710.63l-1.37-.11,1.51-2.32a11.14,11.14,0,0,0,1.43,2.09c.27.25,1,.07,1.53,0s1.17-.68,1.29-.56a10.66,10.66,0,0,1,1.28,1.85c-.49.32-1,.86-1.48.91-1.11.09-1.12.52-.91,1.45.31,1.45,1.22,3.11-.73,4.16-.75.4-1.57.64-2.51,1-.09-1.44-.18-2.86-.27-4.27l-.64,0c-.32.73-.63,1.46-1,2.3-.6-.38-1.11-.55-1.37-.91s-.15-.85-.21-1.28c2,.2.89-1.68,1.73-2.16l2.06-1.61Zm0,4.69,2.64-1-2.29-1.22Z" transform="translate(1806.37 -1599.33)"/><path class="cls-1" d="M-499.45,1631.62a20.52,20.52,0,0,0,2.28.16c.46,0,.92-.31,1.38-.31,1.1,0,1.63-.14,1.08-1.46-.21-.5.3-1.3.54-2.2l-2.74-3c1.07-1.48,3.56,2,4.18-1.7.85,1.56,1.4,2.55,2.06,3.73l-3.18.62c2,1.1,3.29,3.4,2.58,4.39-.4.56-1.38.72-2.39,1.19v.26l-5.66.16,0,.41-2.07-2C-500.56,1631.54-499.13,1633.22-499.45,1631.62Z" transform="translate(1806.37 -1599.33)"/><path class="cls-1" d="M-557.37,1709.5a40.68,40.68,0,0,1-.77,4.16c-1,3.57-2.88,4.43-6.21,3.27-.18-1.91-.34-3.67-.5-5.41,1.92-.4,3.22.25,4,2.49.35-1.13.5-1.62.66-2.11l.49-.2.82,1.72c.55-1-.66-3.73-2.13-4.27l-.31,1.5-.4.11-.58-1.57c3.74-1.48,3.74-1.48,4.95.37Zm-2.85,5.28-3.11-2.32-.45.26a12.9,12.9,0,0,0,1.67,2.45C-561.86,1715.4-561,1715-560.22,1714.78Z" transform="translate(1806.37 -1599.33)"/><path class="cls-1" d="M-492.55,1605c.47.67,1.06,1.16.45,2.24-.25.45.75,1.59,1.19,2.44-3.48.65-2.47,3.22-2.4,5.46l-4.26-.77,0-.6,3.42-.1.22-.52-4.32-2.27c1.8-.34,3.2-.54,4.55-.91.34-.1.52-.78.77-1.19a6.26,6.26,0,0,0-1.33-.26c-1.07,0-2.15.13-3.66.22l3-3.72,1.08,1,1.3-1Z" transform="translate(1806.37 -1599.33)"/><path class="cls-1" d="M-482.44,1682l3.11-3.06-.34-.49h-2l4.27-2.08,1,4.17-2-1.16-1.4,1.32,1.29.87c-.79.42-1.29.9-1.82.93-2,.12-1.94,1.38-1.7,2.82a16.6,16.6,0,0,1,.15,1.75l-2.17-.33,1.66-4.8Z" transform="translate(1806.37 -1599.33)"/><path class="cls-1" d="M-494,1639.17c.31.81.56,1.48.81,2.15-2.46,1.16-2.76,1-2.78-1.76a3.35,3.35,0,0,0-.32-1c-.17-.49-.33-1-.5-1.45a9.9,9.9,0,0,1,1.85-.25c.74,0,1.82.61,2.13.31.47-.46.41-1.47.69-2.82.32,1.65.55,2.86.78,4.08Z" transform="translate(1806.37 -1599.33)"/><path class="cls-1" d="M-498.25,1646.8l1.05,1.47c1.15-1.9,1.82.07,2.89.32l.41-1.45c1.65.56,1.44,2.65-.47,3.62a10.06,10.06,0,0,1-2.89.46C-497.82,1649.93-500.2,1649-498.25,1646.8Z" transform="translate(1806.37 -1599.33)"/><path class="cls-1" d="M-548.56,1682.86c.28,1.31.57,2.67.94,4.43-1.49-.88-2.78,1-4-.46l-1.25,1.49-2.08.27Z" transform="translate(1806.37 -1599.33)"/><path class="cls-1" d="M-495.32,1645.54l-4.92.7c.35-.4.69-.62.72-.87.07-.7,0-1.42,0-2.14l3.34.27-.9,1.17,4.78-1.22c.23,2.16-2.15,2.21-2.69,3.66Z" transform="translate(1806.37 -1599.33)"/><path class="cls-1" d="M-490.14,1621.44l-7.19,2c.23-2.75,1.37-3.42,3.81-2.51.52.19,1.24-.15,1.86-.24s.93-.09,1.4-.13Z" transform="translate(1806.37 -1599.33)"/><path class="cls-1" d="M-496.7,1618c.88-.71,1.71-1.9,2.62-2s1.88,1,2.9,1.61A4.08,4.08,0,0,1-496.7,1618Z" transform="translate(1806.37 -1599.33)"/><path class="cls-1" d="M-497.68,1641.68c-.61-.26-1.54-.38-1.74-.82s.09-1.39.19-2.11a5.66,5.66,0,0,1,.29-1.37,2.21,2.21,0,0,1,1.27-1.24l.66,5.13Z" transform="translate(1806.37 -1599.33)"/><path class="cls-1" d="M-477.22,1672.35l1.87.44c0,.26.07.72-.08.81a7.87,7.87,0,0,1-2.88,1.21c1.59-1.08.46-4.72,3.91-3.66Z" transform="translate(1806.37 -1599.33)"/><path class="cls-1" d="M-560.68,1697.42a8.47,8.47,0,0,1-2.26,1,2,2,0,0,1-1.57-.8c-.2-.29.1-1.17.45-1.47s1-.06,1.46.06a20,20,0,0,1,2,.67Z" transform="translate(1806.37 -1599.33)"/><path class="cls-1" d="M-559.71,1695.35c-.66-.16-1.31-.37-2-.48s-1.5-.13-2.28-.19c.66-2.22,2.18-2.19,4.39,0Z" transform="translate(1806.37 -1599.33)"/><path class="cls-1" d="M-497.26,1601.27l1.87-.93,1.25,1,.18,2.36-1.7.69-.3-.52,1.07-1.85Z" transform="translate(1806.37 -1599.33)"/><path class="cls-1" d="M-498.51,1630.08c.24-.71.49-1.41.81-2.32l-2.65.5c1.58-2,1.58-2,3.89,0l-1.67,2.29Z" transform="translate(1806.37 -1599.33)"/><path class="cls-1" d="M-459,1701.7c-.21-1.77.59-2.32,2.61-1.68l-1.17,2.66-1.49-1Z" transform="translate(1806.37 -1599.33)"/><path class="cls-1" d="M-1801.2,2149.15c-1,2.11-3.34,1.57-4.86,2.65l-.31-.56,4.86-2.51Z" transform="translate(1806.37 -1599.33)"/><path class="cls-1" d="M-484,1691.69l-1.49-1.42,2.62-2.61.35.29C-483.06,1689.18-483.55,1690.41-484,1691.69Z" transform="translate(1806.37 -1599.33)"/><path class="cls-1" d="M-1573.07,2150.09l-2.17-1.23c.94-.59.76-2.36,2.57-1.56C-1572.79,2148.17-1572.92,2149-1573.07,2150.09Z" transform="translate(1806.37 -1599.33)"/><path class="cls-1" d="M-492.5,1605c.33-1.25,1.13-1.57,2.36-1.35a8.8,8.8,0,0,1,2.58.46l-5,.83Z" transform="translate(1806.37 -1599.33)"/><path class="cls-1" d="M-490.3,1601.48l-1.71.75-.31-2.9h.42l1,1.74Z" transform="translate(1806.37 -1599.33)"/><path class="cls-1" d="M-557.08,1690.56a20.93,20.93,0,0,1-1.41,1.91c-.07.08-.64-.29-1-.45l1.51-2Z" transform="translate(1806.37 -1599.33)"/><path class="cls-1" d="M-535.43,1716.33c.62-1.22,1.1-2.16,1.57-3.1l.44.27C-533.88,1714.49-532.68,1716.46-535.43,1716.33Z" transform="translate(1806.37 -1599.33)"/><path class="cls-1" d="M-564.44,1718.67a13.92,13.92,0,0,1,2-.46,5.43,5.43,0,0,1,.37,1.19l-2.21.2Z" transform="translate(1806.37 -1599.33)"/><path class="cls-1" d="M-482.44,1682l.07-.07-2.79,0-.14-.58a5.86,5.86,0,0,1,2-.7C-483,1680.64-482.74,1681.5-482.44,1682Z" transform="translate(1806.37 -1599.33)"/><path class="cls-1" d="M-582.49,1702.54l-2.24-1,.24-.74a6.17,6.17,0,0,1,1.9.37c.21.11,0,.93,0,1.43Z" transform="translate(1806.37 -1599.33)"/><path class="cls-1" d="M-1079.76,1715.56c2,2.36,0,4.36-.82,6s-.12,4.6-3.15,4.81c.69,1.55-1.11,6.62-2.5,7.34,1.4,1.13,1.33,2.47.77,4-.75,2-1.29,4.18-1.92,6.28l.53.2,4-4.46,3.62,1.39-1.85.89,0,.37,2.1.3c-.74,1.91-2.69.93-3.76,1.89l.76.32a18.05,18.05,0,0,1-1.57,3.14,4.87,4.87,0,0,1-2.09,1.18,29.53,29.53,0,0,1-3.32,1.14,2,2,0,0,1-1.23-.13c-1-.42-1.93-.92-3-1.44.53-2.34.13-2.82-2.8-2.6a11.55,11.55,0,0,1,.37-1.74c.36-.91.83-1.65-.41-2.42-.33-.2,0-1.56.11-2.38a20.89,20.89,0,0,1,.57-3.06c.72-2.43,1.52-4.84,2.32-7.25.27-.83.66-1.62,1-2.44.74-2.1,1.44-4.21,2.19-6.31.83-2.29,1.69-4.56,2.79-7.52l-3.49,1.36.1.54,1.27.49-.08.59-2.64-.39c-1.2,2.73-2.42,5.49-6.14,5.94-1,.13-2,1.22-3,1.91l.63,1.09c-.85.62-1.5,1.12-2.17,1.57-.32.22-.81.58-1,.47a8.11,8.11,0,0,1-1.48-1.28c-.84,1.76-1.73,3.62-2.69,5.61l1.4.48c-1.42,1.31-2.63,2.45-3.89,3.54-.17.14-.58,0-.88,0l-3.94-.45.11.6-.47,2-1.57-.86a5.45,5.45,0,0,1-5.29,2.15,30.55,30.55,0,0,1-6.32-1c-1.29-.46-2.32-1.84-3.28-3-1.56-1.82-1.63-4-1.26-6.3a34.56,34.56,0,0,0,.28-4.32,1,1,0,0,0-.44-.74c-1.28-.86-3.6.42-3.68,2l-6.35-.31-.07.8a9.59,9.59,0,0,1,1.88.32,6.45,6.45,0,0,1,1.37.92,7.31,7.31,0,0,1-1.24,1.19,5.56,5.56,0,0,1-1.6.37l1,1.77-.53-.13-1.75,4.87c-.12.34-.23,1-.37,1a3.82,3.82,0,0,1-1.34-.3c-.5-.16-1-.36-1.49-.54a5.14,5.14,0,0,0,.33,1.49c.7,1.23,1.62,2.1,3.54,1.1l-1.18,2.42c-2.27-2.19-3,1.35-5,.78l2.81-2-.18-.25-2.63.8a28.22,28.22,0,0,1-2.32,2.78c-.15.14-1-.41-1.45-.62a4.7,4.7,0,0,1-5.67,4.16c-.39-.06-.72-.46-1.11-.66a12.56,12.56,0,0,0-2.5-1.22c-2.06-.51-2.08-.44-2.44-2.63l-1.84-.38,2.17-1.9-3.48-1.45-1.16-3.82,2.64-1.63-.31-.53c-.33.07-.66.13-1,.21-1.74.39-2.63-.56-2.43-2.3.18-1.49,1.1-2.91.22-4.6-.24-.46,1-1.69,1.49-2.53-.35-.23-1.18-.48-1.35-1s.13-1.4.25-2.24a6,6,0,0,0-1.12.19,8.2,8.2,0,0,0-1.08.6l-.53-.42a10.91,10.91,0,0,1,1.43-1.79,25.82,25.82,0,0,1,2.64-1.77c-1.65-.22-2.87-.44-4.09-.52a7.48,7.48,0,0,0-1.71.33l.54,1.53-1.6,1.31,3.68,3.45-5.83,3.16,3.52.37c-.45,1.86-.34,4.56-1.64,6-1.74,2-1.93,4.65-3.85,6.39a21.32,21.32,0,0,0-2.13,2.67l1,.5,0,.58-3.57.18c1.43,2.08,1.08,1.9-1,3.27s-3.71.23-5.52.51c-.49.08-1.08-.57-1.82-1-1.34.7-2.56.32-3.6-1.2s-1.54-2.79.16-4c-1.47-1.79-1.24-3.82.42-5.61.4-.42.45-1.15.76-1.68.72-1.18,1.49-2.34,2.25-3.49,2-3,3.93-6,6-9a23.91,23.91,0,0,1,3-2.9,5,5,0,0,1,2.47-3.59c.3-.2.88-.33.91-.54.34-2.7,2.48-4,4.15-5.76a43.57,43.57,0,0,0,3-4.07c.67-.88,1.43-1.69,1.93-2.27,1.82-1.29,3.37-2.41,4.94-3.51.91-.63,1.85-1.24,2.78-1.85.11-.07.31-.07.34-.15.94-2.32,3.16-1.37,5-1.9l.71,1.76a5.58,5.58,0,0,1,1.54-.66,5,5,0,0,1,1.52.33,5.8,5.8,0,0,1-.66,1.82c-.24.3-1,.35-1.43.31-1-.08-1.25.31-1.4,1.27a2.53,2.53,0,0,1-1.41,1.47c-.37.17-1-.29-1.92-.59l-1.63,1,.12.33,1.09-.13c.28,3.06.28,3-2.69,4a9.8,9.8,0,0,0-1.91,1.41l3.9,1.1c-.63,1.61,1.2,4-1.57,5.19l1.48,1.49-4.91,1.67.08.33a10.57,10.57,0,0,0,2.35-.52c1.78-.85,3,.21,3.61,1.44.36.73-.22,2.1-.7,3a10.41,10.41,0,0,1-2.06,2.11l3.17.05c-.62,1.78,0,4.09-3.41,4.42,1.47.71,2.42,1,3,1.56.26.26-.2,1.24-.57,1.89.55,1.17,2.09,2.13,1,4.06a3.41,3.41,0,0,0-.88-.58c-.62-.15-1.41-.42-1.88-.18a1.75,1.75,0,0,0-.28,1.69,2.47,2.47,0,0,0,1.71.86,13.12,13.12,0,0,0,2.63-.23c.08.27.16.53.23.8a22,22,0,0,1-2.69,1c-.94.24-2.3-.16-1.94,1.52l2.36-.63.33,1.57,4.51,1.71c.92-.88,1.69-1.59,2.44-2.33l4.94-4.88c.26-.27.58-.48.82-.76,1-1.21,2.08-2.41,3.07-3.66.47-.58.83-1.26,1.43-2.19-.53-3.21,2.9-3.61,4.76-5.29-1-2.33-.86-2.53,1.43-2.65-.12.41-.23.79-.39,1.31,2.6-.5,4.82-1.2,6-3.88l-3.19-.29c-.57,1.8-2,1.83-3.58,1.42.25-2,3.39-5.45,5.51-6-1.09-1.41-.11-2.21.88-3,.37-.29,1-.54,1.09-.87.21-1.63.7-2.92,3.13-2.84-1.52-1.58-1.35-2.42.37-2.74a.93.93,0,0,0,.6-.65c-.09-3.08,2.88-4.26,4-6.58a13.63,13.63,0,0,1,1.61-2.52c2-2.51,4.53-2.94,7.31-1.25a22.79,22.79,0,0,1,1.84,1.45l-.89.88c.24.62.71,1.4.58,1.53-1.82,1.69-1.08,5-4,6.06-.44.15-.64,1-.78,1.2a19,19,0,0,0-3.53.79,21.15,21.15,0,0,0-3.18,2.24l6.53-1-.77,2.66-.4-.3-2.26,2.69,1.67,1.85-4.35,1.84,0,.21,2.38-.5.37.52c-.8.78-1.66,1.51-2.38,2.36a2.4,2.4,0,0,0-.63,1.57c0,.34.73.62,1.26,1,.36-.75.6-1.26.88-1.86.78,1.19.61,1.82-.38,3.39a4.29,4.29,0,0,0-.39,2.1c0,1.37,0,2.71-1.27,3.67,1.5,2.46-.76,6,2.31,8.62,3.34-2.54,6.77-5.13,10.17-7.75,2.34-1.81,4.61-3.73,7-5.47a14.59,14.59,0,0,1,3-1.28c.28-.11.7-.16.82-.37,1-1.7,1.54-.86,2.08.55l.53-.22c0-.66,0-1.33.15-2s.11-1.54.52-1.84a8.13,8.13,0,0,1,3.41-1.7,5.66,5.66,0,0,0,3.89-2.2c.79-1,2.4-1.21,3.61-1.83a5.18,5.18,0,0,0,2.06-1.31c1.54-2.41,3-4.91,4.31-7.45a10,10,0,0,0,1-3.12c.5-3.24,2.91-3.54,5.68-3.67l-1.18-1.5-1.86,1.3-.68-.47c.87-1.77,1.79-3.52,2.56-5.34a8,8,0,0,0,.37-2.07c.77-1.54,1.44-2.93,2.17-4.28.25-.47.55-1.14.95-1.25,1.52-.39,1.3-1.49,1.44-2.62.22-1.75.69-3.48,1-5.23a8.67,8.67,0,0,0,0-1.14c-2.18.92-4.19,1.76-6.19,2.63-1.24.53-2.22.51-2.55-1.21a18.4,18.4,0,0,0-3.52,1.56c-1.78,1.3-1.59,0-1.72-1.35l-3,.63-2.44.5.1-2.65-2.9-.18a4.33,4.33,0,0,1,4.47-2.18,10.73,10.73,0,0,0,4.09-.71c1.86-.55,3.66-1.31,5.5-1.93.8-.26,1.7-.27,2.47-.59,4.11-1.73,8.19-3.52,12.28-5.3.27-.12.76-.4.73-.5-.45-1.7.91-2.76,1.37-4.13.71-2.13,1.5-4.12,3.62-5.13.11-2.81,1.55-5.1,2.79-7.43.21-.4,1.14-.4,1.71-.62s1.42-.59,1.77-.74a11.11,11.11,0,0,0,2.16,0c1.31-.33,4,.43,4.42,1.37l-5.06,1.51-.27-1.27-.29,0c-.1,1-.19,1.94-.31,3.13l4.19-.89.42.67-5.71,5.33c.32.81.62,1.59,1,2.59,3.12-.12,4.68-3.58,7.66-4.31l1.22,2.11-1.41.78c1.69.91,2.53.5,3.23-1.59l-1.53-.4c1.36-2.06,3.88-3,5.4-2l1.8-1.48c.2,3.14-2,4.24-3.75,5.78-1.25,1.1-3,1.44-3.92,3.17-.46.86-2.41.92-3.69,1.32a1.76,1.76,0,0,0-1.16.76l1.18.12.19.4a29.11,29.11,0,0,1-2.9,1.33c-.29.1-.76-.29-1.26-.49-.14,3.27-3.4,3.5-4.9,5.39a12.81,12.81,0,0,0-1.82,2.2c-.85,1.79-.87,4-3.26,4.86-.38.13-.67.92-.77,1.45-.28,1.41-.27,2.9-.68,4.26a39.5,39.5,0,0,1-2.11,5.34,27.31,27.31,0,0,1-1.8,2.77,12.4,12.4,0,0,0-.58,1.29,14.1,14.1,0,0,1-1.56,3.16,4.53,4.53,0,0,0-1.42,3c-.09,1.49-1.25,2.91-2,4.36-1.3,2.72-2.52,5.48-3.94,8.13a40.53,40.53,0,0,1-2.78,3.93,1.88,1.88,0,0,0-.38,1C-1076.52,1714.27-1076.76,1714.63-1079.76,1715.56Zm-104.56,13.55.7.06a5.76,5.76,0,0,1-.48,2.16c-1.27,1.67-2.83,3.13-4,4.84a5.78,5.78,0,0,0-.53,2.8c0,.21.65.6,1,.65,1.39.21,2.81.32,4.22.46l.82-1.72-3.12-.29c1.82-4.28,3.73-8.25,7.72-11.12a9.81,9.81,0,0,0-2.4-.26,12.42,12.42,0,0,1-1.47-.22,10.39,10.39,0,0,1,1-1.12,6.62,6.62,0,0,1,1.14-.63c-.64-1-1-2-2.4-1.3-2.42,1.19-2.82,2-2,4.34l-2,.42.28,1.35-4.32,1.78C-1187.62,1732.08-1185,1731.05-1184.32,1729.11Zm9.46-20.34c-.61,2.59,2,1.43,3.17,1.87,1.35.51,1.91-.84,2.4-1.85.09-.2-.06-.74-.22-.8a2.21,2.21,0,0,0-1.17-.08C-1172,1708.15-1173.35,1708.46-1174.86,1708.77Zm-4.36,15.84a7.7,7.7,0,0,0,1.18-.44c1.07-.69,1.66-2.32,3.39-1.71.13-.44.5-1.06.34-1.28-.56-.76-3.58-.64-4.51.17C-1176.79,1722.43-1178.71,1723.24-1179.22,1724.61Zm-.87,6.7a8.17,8.17,0,0,0,4.2-2.69C-1178,1727.71-1178.56,1728-1180.09,1731.31Zm11.35-18.6c-2.61-.21-2.92.13-2.34,1.94Zm38.37.15c-2.32.13-2.32.13-2.56,2Z" transform="translate(1806.37 -1599.33)"/><path class="cls-1" d="M-927.59,1722.19c-1.28.72-2.58,1.55-4,2.22-1.65.79-2.4,2.35-3.46,3.66a1.54,1.54,0,0,1-.8.5c-1.15.31-2.31.55-3.73.88l.84,1.12-4.7,4L-946,1733c.44,1.07.7,1.55.85,2.07.25.84.84,1.9.55,2.51a2.68,2.68,0,0,1-3,1.81,20.47,20.47,0,0,0-4.26.24v.69l2.69-.34c.31.45.72,1,1.33,1.87l-3.66,1.2.32,1.14c-.79,2.11-6.06,2.7-8.44.87-1.32,1.65-2.07.85-2.79-.66-.28-.59-1-1-1.47-1.47l-.45.56,1,.62-.1.39-2.27-.57c.79-3.93,1.07-4.31,3.06-4.09-.07-2.07,1.27-3.06,2.92-3.85.34-.17.55-.6.81-.92l1.76-2.13c-.62-.83-.12-1.43,1.29-2.19s2.11-2.31,3.38-3.17,1.1-2,1.65-3c.44-.8,1.49-1.26,2.27-1.87l.42.41c.32-1.32.25-3,1-3.87s2.57-1.43,4-2c.42-.17,1,0,1.57-.33l-1.37-.64c-.61-3,1.83-4.52,3.27-6.47a6.16,6.16,0,0,1,4.19-2.16c2.11-.35,2.52-.15,2.86,2.27l2.85-.16c-.35.92-.62,1.67-.92,2.4-.12.28-.5.63-.43.76.81,1.37-.22,1.75-1.12,2.24-.21.12-.53.43-.49.52.8,1.83-1.24,2.71-1.41,4.41l2.06.44.14-.26-1.12-.8,7.62-2.14a4.71,4.71,0,0,1,.39-2.18c.3-.47,1.45-.38,2.74-.65.25-1.88,2.32-1,3.94-1.31s3-1.34,4.49.65l.4-.88-1.66-.51.45-.56a12.07,12.07,0,0,1,8.23,2.32c.59.44.78,1.51,1,2.33a10.5,10.5,0,0,1,.41,2.37A16.77,16.77,0,0,1-905,1721l-1.78-.18c-.19,1.19-.35,2.48-.64,3.73,0,.15-.76.17-1.17.2-.86.08-1.72.12-2.58.18l-.06.48,1.4.9-2.38,2.71-4-.85-.09.37c.28.24.54.49.84.71,2.26,1.72,2.18,1.68.92,4.38a8.79,8.79,0,0,0-.33,2.85c0,.23.14.49.08.7-.6,2.43.56,3.5,3.1,3.08s5.3-.66,8-1a1.75,1.75,0,0,0,.72-.19c2.29-1.55,5-1.81,7.58-2.33,2-.4,3.9-1.3,5.88-1.88,4.3-1.26,8.64-2.4,12.93-3.69,1.84-.55,3.56-1.47,5.4-2s3.7-.7,5.5-1.21c4.45-1.28,8.85-2.67,13.28-4,.73-.22,1.48-.31,2.21-.5,1.81-.48,3.6-1,5.4-1.45s3.66-.56,5.27-1.3c3.69-1.68,8.13-1.67,11-5.27,1.24-1.56,3.18-2.61,4.88-3.77,1.19-.82,2.46-.72,3.87.31-.57.44-1,.76-1.64,1.29a8.73,8.73,0,0,0,1.53.55c2.22.31,2.64,1,1.82,3a1.81,1.81,0,0,0-.13.89c.35,2.63-.28,3.2-3,2.67a3.42,3.42,0,0,0-1,.15l1.68,1.41c-.33.13-.67.39-.81.31-1.64-1-2.86.15-3.53,1.14-2.09,3.06-5,3.75-8.38,3.58-.13,0-.32-.1-.36,0-1.65,1.85-3.85.42-6.14.8l1.44,1.19a3.19,3.19,0,0,1-.55.26c-1,.16-2,.29-2.94.44-.61.1-1.34.49-1.81.28-2.67-1.16-4.65.34-6.76,1.49a7.52,7.52,0,0,1-1.81.47c-.08-.25-.15-.49-.23-.73l2.57-1.27c-2.48-.8-2.7-.61-3.84,2.86-.14-.7-.28-1.41-.51-2.6-.65,1.19-1.11,2-1.58,2.9s-.71.91-1.72.37-2.46-.11-4-.11c.3.92.43,1.33.57,1.77h-6.83l.13.36-2,.85c-1.15.5-2.29,1-3.46,1.5-.84.33-1.74.51-2.59.82a41.72,41.72,0,0,0-5.5,2.19c-1.5.82-5.48.94-6.81-.14a6.37,6.37,0,0,0-1.31-.64l-.28.38c.53.7,1.07,1.4,1.68,2.22-1.31.63-2.34,1.22-3.86.59a4.64,4.64,0,0,0-3.08.52c-2.16,1-4,2.79-6.73,1.85a9.55,9.55,0,0,0-2.71,0l.72,1.26-4.08.34-1.2-2.62c-1.74.66-3.69,1.11-4.59,3.42v-2l-2.56-2.73c-.33,1-.6,1.76-1,3a17.71,17.71,0,0,0-2.51-3,10.18,10.18,0,0,0-3.55-1.72c-1.82-.46-2.74-1.41-2.71-3.34a7.93,7.93,0,0,0-.27-1.52c.35-1.05.59-2,1-2.87.57-1.31,1.24-2.58,1.85-3.87a7.45,7.45,0,0,0,.74-1.79c.2-1.24,2.36-3.25,3.69-3.31.37,0,.75-.07,1.12-.11.05,0,.09-.08.27-.25-1.7-2.68,1.81-3.81,2.09-6.14.16.4.32.79.5,1.25l1.24-1.19c-1.1-1.11-2.15-2.16-3.2-3.2l.34-.45-1.88-.19c1.41,2.07.83,3.27-1.75,4.13a10.48,10.48,0,0,0-2.63,1.27c-2,1.43-2.5,1.46-5-.59Zm44.44,18.43.26-.45-2.38-1.68c-.32.52-.65,1-1.05,1.67Zm-39.74-24.49,0,.68c.8,1,1.64,1,3-.5Zm-21.9,11.29c.83,2.15,1.26,2.28,3.19,1.11Z" transform="translate(1806.37 -1599.33)"/><path class="cls-1" d="M-1286.11,1691.71c-.36-.2-.58-.44-.77-.42-2.4.24-4.79.57-7.19.76-1.57.13-3.17,0-4.75.13-.46,0-1.2.34-1.31.68-.54,1.61-1,2.37-2.3.47-.27-.4-1.16-.39-1.43-.8a26.24,26.24,0,0,1-2.47-4.34c-.32-.77,2.17-2.69,3.44-2.75,2.85-.13,5.7-.21,8.55-.32a3.14,3.14,0,0,0,.73-.14c4.24-1.32,8.46-2.7,12.72-4,1.93-.57,4.21-.46,5.82-1.48s2.23-3,3.4-4.51a14.39,14.39,0,0,1,2.8-2.87c.58-.41,1.59-.22,2.81-.76l-1.7-.75.1-.63,3.21-1-.08-1.55c2-.76,3.65-2.61,6-1.86a6.06,6.06,0,0,1,2.08,1.24c.7.6,1.16,1.49,1.88,2.06,1.18.94.68,1.47-.35,1.85a14.8,14.8,0,0,1-2.57.61c-1.12.2-2.25.19-2.5,1.78-.07.43-1,.73-2,1.34.69.4,1.37,1.13,1.83,1,1.94-.5,3.82-1.24,5.7-1.93,2.57-.94,5.09-2,7.68-2.86a12.8,12.8,0,0,1,3.54-.59c.59,0,1.19.49,1.81.69s1.53.44,2.29.65c-1,2.91-4.4,4.18-9.2,3.37,1.13,1.85,0,3.85-2.32,4-1.52.11-2.81-.12-4,1.53-.56.8-2.76.48-4.23.57a8.75,8.75,0,0,1-1.94-.42c.51.9.75,1.34,1.22,2.18-1.44.18-2.67.4-3.92.48-.86.06-1.47-.17-2,1-.37.84-2,1.38-3.21,1.55-2.48.38-3.55,2.44-5,3.91-2.13,2.11-3.88,4.61-5.86,6.89a12.6,12.6,0,0,1-2.14,1.52l2,.15-5,4.7,1,.56-4.55.78a2.13,2.13,0,0,1-.55,3,18.15,18.15,0,0,0-3.71,4.22l-2-.12c.52,2.68-1.61,3.24-3.19,4-1.3.65-2.76.74-3.21,2.57-.2.79-1.15,1.5-1.91,2-1.17.78-1,2.66-2.61,3a7.68,7.68,0,0,0-1.76.92,6.71,6.71,0,0,1,.48,1.07c.28,1.08-.46,1.3-1.19,1-1.74-.67-2,.26-1.93,1.62a4.33,4.33,0,0,1-.25.93h-1.72c-.56,1.83-1.1,3.48-3.39,4.09-1.31.36-2.35,1.71-3.52,2.61a7,7,0,0,1-1,.74,11.93,11.93,0,0,1-1.39.57c.29.52.58,1,.88,1.54a5,5,0,0,0,.43.53c-1.48,1.06-2.91,2.09-4.33,3.13-.25.18-.62.44-.61.65.08,3.12-3.27,4-4.13,6.39a7.34,7.34,0,0,1-4.49,4.88c-.16.06-.22.42-.36.72l2,.26-3.4,1.76c.23-1.51.36-2.48.55-3.45.21-1.13,1.46-2.24,0-3.38a11.31,11.31,0,0,1,1.53-1.7,6.53,6.53,0,0,1,1.78-.65c-2.07-1.76-1.76-1.61-.58-4,.85-1.7,2.1-3.4,2-5.5a1.21,1.21,0,0,1,0-.18c.26-1.8,2.39-2.29,2.84-3.38.66-1.58,1.23-2.5,2.86-2.79.32-.05.86-.38.84-.53-.3-2.72,2.31-3.46,3.47-5.18.37-.55.79-1.06,1.17-1.59.15-.2.23-.6.38-.61,1.92-.21,3.05-1.35,4-2.93a21.39,21.39,0,0,1,2.73-3c.26-.27.5-.57.78-.82,2-1.75,4.07-3.43,6-5.24.79-.74,1.29-1.8,2-2.6,1.7-1.85,3.4-3.7,5.25-5.39.64-.59,1.7-.72,2.27-1.32a19.47,19.47,0,0,1,1.08-1.65c.36-.46.83-.82,1.21-1.26,1.24-1.43,2.45-2.89,3.7-4.32C-1288.13,1693.91-1287.2,1692.91-1286.11,1691.71Zm33.46-14.37-.18-.45a18,18,0,0,0-2.55.35c-.35.1-.58.63-.87,1,.43.17,1,.56,1.27.44A16.21,16.21,0,0,0-1252.65,1677.34Z" transform="translate(1806.37 -1599.33)"/><path class="cls-1" d="M-1352.63,1699.6c-.33-.9-.78-2.08,1.35-2.2.61,0,1.2-1,1.73-1.63,1.93-2.23,3.72-4.6,5.77-6.72,1.62-1.67,2.09-1.36,3.66.31a14.84,14.84,0,0,1,2.56,4.18,2,2,0,0,0,1.76.68,33,33,0,0,0,3.93-1.23c.92-.31,1.78-.49,1.95,1.07a22.06,22.06,0,0,1,3.47-2.11c.68-.26,1.63.16,2.44.34s1.39.43,2.08.65l.25-.57-1.56-2c3,0,5.54-.09,8.1.06.68,0,1.22,1.42,1.45,1.53,2.53,1.29,1.32,3.12,1.18,5-.16,2.06-.55,3.36-2.76,4.09-.89.29-1.3,2-2,3a4.62,4.62,0,0,1-1.26,1.34c-1,.58-1.88.72-2,2.44a4,4,0,0,1-3.9,3.82c.76,1.33.93,1.94-.58,2.57-1.09.46-1.63,2.15-2.51,3.22-.7.86-1.06,2.73-2.86,1.18-.15-.14-.84.34-1.38.58l.62,1.12a14,14,0,0,1-2.12,2.38,13.67,13.67,0,0,1-3.9,2c-2,.59-3.35,1.61-3.27,3.08l-4.36,2,1.31.53.22.53c-3,1.5-6.49,2-10,3.42l1.81,1.14c-.88,1-4.26.86-6.09-.37a19,19,0,0,1,2.6-2.82c2.68-1.92,4.65-4.47,6.79-6.92,2-2.27,4.52-4,6.83-6,.19-.16.53-.24.6-.43,1.5-4,5.53-5.57,8-8.61,1.86-2.26,4.19-4.13,6.07-6.38s3.31-4.58,5.09-7.09l-3.87-2c-.66.2-1.5.39-2.28.71a1.87,1.87,0,0,0-1,.87c-.52,1.53-1.55,1.9-3.05,1.73a27.57,27.57,0,0,0-4.54-.21c-.34,0-1,1-.91,1.27.49,1.63-.34,2.1-1.67,2.55-2.24.77-4.38,1.68-5.54,4.1-.3.64-1.58,1-2.47,1.16-1.22.24-2.6,0-2.7,1.87a1.87,1.87,0,0,1-.54,1c-1.38,1.49-2.75,3-4.2,4.4-1,.9-2.17,1.54-3,2.5a52.23,52.23,0,0,0-3.48,4.46c-.67.91-2.51.56-2.5,2.31a11.2,11.2,0,0,1-2,.31,6.09,6.09,0,0,1-1.11,1.3,9.08,9.08,0,0,1-1.93.63l1.15,1.36c-1.3.83-1.17,3.11-3.35,2.92-.11,0-.22.55-.43.77-.57.6-1.2,1.14-1.79,1.73s-1,1-1.54,1.56c-.76.77-1.39,1.81-2.31,2.24-1.55.74-1.79,3-3.94,3.09-.38,0-.62,1.39-1.1,2-1.31,1.66-2.7,3.25-4.07,4.87a2.28,2.28,0,0,1-3.41-.22,4.3,4.3,0,0,0-3.11-2.2.9.9,0,0,1-.48-.33,8,8,0,0,1,.69-2.63,27.11,27.11,0,0,1,2.76-2.7c.54-.54,1-1.15,1.51-1.73,1.38-1.63,2.67-3.34,4.16-4.86,3-3,6.07-5.93,9-9,1.27-1.3,2.28-2.86,3.56-4.16,1.91-2,3.95-3.8,5.92-5.7,1.28-1.22,2.6-2.41,3.77-3.72,1.77-2,3.4-4,5.15-6C-1355.06,1701.86-1353.95,1700.89-1352.63,1699.6Zm21.5-4.71-.28-.51-2.56.6,0,.64c.56.26,1.22.84,1.67.7S-1331.53,1695.39-1331.13,1694.89Z" transform="translate(1806.37 -1599.33)"/><path class="cls-1" d="M-1269.48,1704.7c.74-1,1.14-1.64,1.6-2.21.58-.73,1.19-1.45,1.84-2.12a3.31,3.31,0,0,1,1.07-.74,12.06,12.06,0,0,0,6.38-5.53c.21-.4.76-.64,1.19-.91.2-.13.69-.16.68-.22-.12-2.09,2-2,3-2.85.67-.6,1.84-.64,2.77-1s1.68-.63,2.52-1c.26-2.22,1-2.88,3.5-3.21a1.35,1.35,0,0,0,.8-.36c2.25-2.82,5.36-2.82,8.52-2.61a8.31,8.31,0,0,1,2.06.26c1.29.41,2.81.46,2.85,2.54,0,.78,1.15,1.53,1.82,2.35l-3.14,2.7,2.8.33.57.81c-.51.23-1.06.7-1.53.64-1.5-.19-1.9.34-1.77,1.79,0,.41-.76,1-1.28,1.32-.87.56-1.82,1-3.31,1.78l1.61.73c-.59,1.59-3.37.74-2.75,3.18-2.23,1.49-5.57,1.9-5.88,5.41l-3.55,1.11c-1.12-1.57-1.95.77-3.37.82,1.23,1.34,1,1.78-.68,2.22a48.82,48.82,0,0,0-6.33,2.62c-1.82.78-3.64,1.58-5.48,2.35q-3.33,1.38-6.69,2.71c-.56.22-1.2.29-1.74.56a6.24,6.24,0,0,0-1.59,1.08c1,2-.62,1.76-1.79,1.94l.46,1-3.86,2.68.92,1.61a11.42,11.42,0,0,1-1.91.34,7.32,7.32,0,0,0-2.36.12l1.89.88-.45,6c.76.93,1.63,1.91,2.38,3,1.75,2.43,4.14,1.9,6.3,1.13,2.81-1,5.36-2.93,8.22-3.52,2.23-.45,3.06-2.24,4.75-3a1.13,1.13,0,0,0,.48-.53c1.84-4.15,5.57-5.81,9.84-4.19l.82-1.23c-.65-.61-1.4-1-1.61-1.6-.14-.38.49-1.07.83-1.58a8.63,8.63,0,0,1,5-3.41,1.15,1.15,0,0,0,.58-.45,3.83,3.83,0,0,1,4.73-1.72l-1.55-1.46,4.48-3.08-.26-.15c.65-1,1.12-2.24,2-2.74.56-.32,1.79.53,2.72.86l-.05.59-2.13,1.18.8,1.49-2.72.21c-2.49,5.16-5.88,9-11.83,10.09l.23.51h4.52l.09.62a5.82,5.82,0,0,1-2.13.47,1.74,1.74,0,0,0-2.24,1.43c-.37,1.25-.83,2-2.41,1.18-.8-.44-1.77-.41-2.41,1a10.19,10.19,0,0,1-3,3.17c-.25.2-1.16-.43-2-.78l-.26,1.06,4,.56c-.9.65-1.95,1.41-3,2.15a8,8,0,0,1-2,1.31,8.75,8.75,0,0,1-2.61-.12,12.26,12.26,0,0,0-.86,1.24,1.78,1.78,0,0,1-2.29,1.08c-.48-.14-1.14.35-1.71.57a8.33,8.33,0,0,1-2.56.92c-1.12,0-1.32.48-1.3,1.34a2.41,2.41,0,0,1-3.18,2.31c-2.62-.64-5.29-1.1-7.94-1.64a1.23,1.23,0,0,1-.9-.5l3.46-.79c-.54-1.38-1.44-1.35-2.46-1-2.19.75-5.31-1.48-5.48-3.74,0-.6-.94-1.12-1.41-1.7s-.86-1.16-1.29-1.75l.42-.39,2.43.32a36.45,36.45,0,0,1-3-2.4,1.49,1.49,0,0,1-.18-1.35c.92-1.83,1.88-3.64,3-5.38.32-.51,1.09-.75,1.66-1.1s1.13-.66,2-1.17l-5.08-3.55c.34-.94-.29-1.38-1.68-1.4a1.78,1.78,0,0,1-1.34-1,1.7,1.7,0,0,1,.94-1.38,13.42,13.42,0,0,1,4.54-1c2.7.11,5.3.37,7.49-1.67.33-.31.94-.33,1.41-.49C-1274.91,1709.23-1270.55,1704.9-1269.48,1704.7Zm26.71-14.51,1.61.91c-1.17.36-2.57-.07-3.25.44-1.43,1.1-2.56,1.15-3.28.5l-6,.58v.25l6.52,1.32c-1.34,1.71-2.89,1.7-4.56,1.3-.89,2.42-2.5,3.35-5.57,3.22a3,3,0,0,1,0,3.78c-.63,1-.79,2.49-2.57,2.35-.46,0-1,.55-1.46.84.57.24,1.24.8,1.69.66a24.62,24.62,0,0,0,4.69-1.93c2.17-1.2,3.62-3.7,6.55-3.51.15,0,.45-.18.45-.27,0-1.88,1.85-2,2.82-3,2.22-2.18,4.19-4.72,6.71-6.44,1.8-1.23,2.56-2.29,2.1-4.3C-1237.94,1686.35-1241.51,1688.13-1242.77,1690.19Zm-20.79,16.23c-1.28-.76-2.34-1.92-3.15-1.76-1.26.24-.41,1.36,0,2.08C-1265.85,1708.23-1265,1707.37-1263.56,1706.42Zm4.69-3.27-.06-1.14-2.23.18a4.16,4.16,0,0,0,.1.92C-1260.34,1703.18-1259.6,1703.15-1258.87,1703.15Z" transform="translate(1806.37 -1599.33)"/><path class="cls-1" d="M-991.5,1703.92c-4.31-1-7.17.5-8.25,4.93l1.16.36c.35.11,1,.19,1,.29.06,2,2.43,2.41,2.92,4.16l-7.3,2c2,1.51,4.17,1.8,5.14.64l.51.21c-.38.94-.52,2.2-1.21,2.76a13.31,13.31,0,0,1-3.57,1.43c1.15,1.7-.69,2.6-1.44,3.92l.93,1-4,3.29c1,1.52-.07,2.9-.88,4.32-.19.32-.64.57-.67.89-.19,1.85-.29,3.71-.43,5.78a2.27,2.27,0,0,0,1.09-.16c2-1.36,4-2.74,5.91-4.21,2.2-1.68,4.32-3.46,6.45-5.23.32-.26.47-.72.76-1,1.22-1.37,2.42-2.77,3.72-4.07.2-.2.83,0,1.34.06,1.07-5.11,6.49-7.53,8-12.77a3.31,3.31,0,0,0,1.94-3.67,9.29,9.29,0,0,1,1.89-4.48c-.19-.33-.76-.87-.69-1.3.26-1.53-1.79-2.27-1.2-3.83a6.63,6.63,0,0,0-1.47-.38,13.37,13.37,0,0,0-1.93.2c-.27-1.06-.48-1.86-.68-2.67l-.64.12c-.09.59-.18,1.18-.31,2l-8.15.55c.06.81.1,1.41.16,2.17-1.91-1.66-3.46.19-5.39.08l-.76-1.2-1.14.69c-.08-.63-.39-1.31-.17-1.62.83-1.16,1.79-2.3,3.66-1.55.35-2.45,2.18-2.62,4.07-2.46.62,0,1.19.61,2,1l2-2.37a30.5,30.5,0,0,1,5.13-.85,8.34,8.34,0,0,1,4.28,1,51.48,51.48,0,0,1,5.46,4.66l-3.92.4-.11.53c.55.11,1.09.25,1.63.32a28.44,28.44,0,0,1,4.56.62c.47.15.9,1.47.8,2.17a8.64,8.64,0,0,1-1.29,2.5c1.35,1.83,1.25,2-1.95,3.24l2,4.18-4.14.31-.07.89,3,.59c-.34.76.11,2.16-1.64,2.18a4,4,0,0,0,.29,1.88c-.69.81-1.36,1.64-2.08,2.42a1.63,1.63,0,0,1-.8.39c-1.74.32-3.49.6-5.23.9l-.31.69,1.26,1,2.53-1.15c.21,3.13.11,3-2.55,4.07a52.06,52.06,0,0,0-5.8,3.13l3.15,1.25-6.22,4.36-1.07-.5c-.75.86-1.44,1.56-2,2.34a1.8,1.8,0,0,0-.33,1.21c.19,1.57-.73,2.28-2,2.58-1.57.37-3.18.58-5.34,1l2.43,1.72a4.8,4.8,0,0,1-1.07.68c-1.64.44-3.3.88-5,1.22a7,7,0,0,1-1.61-.17,17.85,17.85,0,0,1-2.65-.11c-1.18-.26-2.59-.43-3.41-1.18-1.29-1.17-2.35-.85-3.74-.15l-1.11-1.42,1.92-2.37h-2.64c.23-1.6.42-2.91.61-4.26-1-.26-1.34-1.54-.45-3s2-2.92,3-4.42c.16-.26-.07-.74.06-1a15.62,15.62,0,0,1,1.19-2.43c1-1.52,2-3,3-4.49a11.31,11.31,0,0,1,2.33-3c2-1.39,1.67-3.78,2.78-5.52a22,22,0,0,0,1.11-2.39c-.15-.54-.45-1.57-.69-2.45l1.09-1.64-2.17-.6c2.91-.83,2.76-3.32,3.44-5.21,1.52.77,2.91,1.37,4.19,2.15s2.52,1.27,4.08.57c.5-.22,1.32.28,2,.45C-991.41,1703.41-991.46,1703.66-991.5,1703.92Zm-16.49,33.59c-.6-1-.85-2.14-1.44-2.37-2.1-.81-1.92,1.62-3,2.57Z" transform="translate(1806.37 -1599.33)"/><path class="cls-1" d="M-1435.26,1741.81a10.06,10.06,0,0,1,1.16-1.49c1.28-1.15,2.67-2.17,3.93-3.34,3.43-3.19,6.82-6.43,10.21-9.67,1.48-1.42,2.87-2.94,4.4-4.31,1.7-1.55,3.57-2.93,5.26-4.49,1.48-1.38,2.83-2.91,4.21-4.39a14.91,14.91,0,0,1,2.35-2.57c3.56-2.24,5.65-5.86,8.52-8.73q3.45-3.45,6.86-6.93c1.44-1.46,2.8-3,4.29-4.4,2.69-2.54,5.33-5.17,9.2-5.94,1.22-.24,2-.43,2.19,1.29.1,1,1,1.94,1.36,3,.48,1.48.1,2.42-1.66,2.9a10.41,10.41,0,0,0-6.12,4,1.6,1.6,0,0,1-.57.49,15,15,0,0,0-6.2,6.16c-.79,1.48-2.56,2.41-3.82,3.66a17.32,17.32,0,0,0-2.71,3c-1.66,2.73-3.49,5.15-6.71,6.2a12.37,12.37,0,0,0-2.59,1.66l.76,1.3c-1.1.89-2.11,1.85-3.25,2.6s-2.87.34-2.89,2.78c0,1-2.31,2.38-3.81,3-2.2.92-3.24,2.81-4.67,4.43a22.31,22.31,0,0,1-3.53,3.41c-.81.57-1.94.54-2.05,2,0,.29-1.6.45-2.8.75l2.26.56a25.73,25.73,0,0,1-2.18,2.09c-1.33,1-2.74,1.95-4.1,2.93a.9.9,0,0,0-.37.62c-.1,1.53-1.13,1.76-2.37,1.87a6.36,6.36,0,0,0-1.7.66c1,2.36.74,2.94-1.68,3.55-.73.19-1.49.22-2.23.36-.36.07-1,.2-1,.34-.17,2.15-2.18,2.52-3.56,3.53l1.6,1.11c-.82.89-1.5,1.67-2.22,2.41-1.64,1.7-3.51,1.25-4.22-1-.07-.23-.11-.56-.28-.67-2.25-1.48-.44-2.69.3-3.9.64-1,1.68-1.87,2.17-3,1-2.16,2.9-2.78,4.83-3.51.41-.15.83-.27,1.24-.4-.41-2.7-.38-2.75,2.44-3.56Z" transform="translate(1806.37 -1599.33)"/><path class="cls-1" d="M-1029.76,1689.66c1.27-1.17,2.63-.59,3.88-.05a34.21,34.21,0,0,1,4.5,2.33c2.34,1.45,1.52,3.59,1,5.36l-3.21,1,.18.63a7.82,7.82,0,0,1,1.18-.18,12.32,12.32,0,0,1,1.48.13,5,5,0,0,1-.24,1.67c-.32.6-1,1-1.34,1.57-.71,1.18-1.2,2.5-2,3.63s-2.34,2.24-2.74,3.58c-.82,2.75-3.15,3.89-4.93,5.63a2.64,2.64,0,0,0-.58.89c-1,2.58-3.14,3.82-5.52,4.8.39.34,1.08.67,1.11,1a2.05,2.05,0,0,1-.7,1.58c-1.4.94-2.51,2-2.66,3.78,0,.35-.68.64-1,1a4.23,4.23,0,0,0-.85.84,7.33,7.33,0,0,0-.45,1.32c-.46-.26-1.11-.41-1.33-.81s.09-.95.23-1.43a1.34,1.34,0,0,0,.18-.9l-2.45,1.54c.37.52.69.94,1,1.39.82,1.29.26,3.44-.83,4.63-.62.68-.74,1.8-1.24,3.13l1.8-.76c.42,1.9-.46,2.8-2.34,3,1.6,1,1.77,2.65.32,4,0-.73.1-1.3.16-2.15-1.09.93-1.46,1.61-.56,2.66s.49,1.67-.7,2.12c-3.25,1.25-6.46.55-9.51,0-1.67-4.33-.36-8.15,1.85-11.91l2,.83c-1.61-2.36,0-4.27.55-6.31.12-.51.62-.91.93-1.37.48-.68.95-1.36,1.41-2.06s.69-1.68,2-2c.7-.15,1.1-1.8,1.61-2.78a10.85,10.85,0,0,1,.59-1.34,41.18,41.18,0,0,0,3.67-4.74,20,20,0,0,1,3.16-3.85c2.13-2.34,3.66-5.22,5.52-7.81q2.1-2.91,4.39-5.66c1.7-2,1-4.37-1.47-5-.48-.11-.89-.49-1.36-.57s-1.25-.19-1.56.08c-1.48,1.28-2.26,1.47-4,.49v2.15c-2.49.37-5.23-.18-6.77,2.58-.23-2-.23-2,2.53-2.78l-.78-1,1.86-1.17c.07.54.13,1,.21,1.52a2.78,2.78,0,0,0,.9-.16c1.7-.92,3.38-1.89,5.08-2.82a4.26,4.26,0,0,1,1.2-.46c1.58-.34,3.16-.64,4.75-1,.06.65.12,1.3.22,2.41l2.35-1.77Zm-5.82,18.66,0,.84,2.14.32a5.39,5.39,0,0,0-.19-1.32A10.37,10.37,0,0,0-1035.58,1708.32Z" transform="translate(1806.37 -1599.33)"/><path class="cls-1" d="M-1202.62,1698l-2.28,1.76c.17.56.35,1.13.58,1.85l-2.63.3.89,1.69a3.89,3.89,0,0,0-.65.32q-2.24,1.55-4.44,3.12c-.2.15-.45.34-.5.55-.53,2.49-3,3.45-4.18,5.43a11.61,11.61,0,0,1-6,4.88c-2.15.91-2.19,2.39-.26,4.24l-3.48,2.35c-.46,2.5-3.66,2.57-5,4.66.46.82,2.75-.35,2.07,1.72s-2,.49-3.09.4c0,.12-4,4.4-4.23,4.55l2.28.83c-2.26,1.64-4.13,3.11-6.14,4.37-.5.31-1.48,0-2.16-.18-1.11-.36-2.16-.91-3.24-1.38-1.33-.59-1-1.72-.59-2.57a39.2,39.2,0,0,1,2.92-4.34c1.2-1.64,2.54-3.18,3.72-4.84a17.7,17.7,0,0,0,1.23-2.51,3.2,3.2,0,0,1,.59-.94c2-1.76,4.11-3.43,6.07-5.24a10.08,10.08,0,0,0,2-2.7c.91-1.73,2.08-2.8,4.19-2.46a3.65,3.65,0,0,0,1.33-.3l0-.51-2.42-.69a23.16,23.16,0,0,1,3.2-3.27,17,17,0,0,1,3.76-1.49c-1.36-1.58-1-3.21.86-4,1.22-.51,2.25-.86,1.87-2.49-.06-.27.33-.63.52-1l.85-1.46c-.62-.07-1.24-.15-1.87-.19a3.18,3.18,0,0,0-.74.09l.31.48a15.49,15.49,0,0,0-2.38,1.92,21.44,21.44,0,0,0-1.79,3c-.7-1.94-1.2-2.15-2.53-1a17.2,17.2,0,0,1-8.37,4.4,15,15,0,0,1,1.75-3.23,3.18,3.18,0,0,1,2.35-.52,3.06,3.06,0,0,0,2.84-.86,7.69,7.69,0,0,1,3.49-1.44c1.15-.26,1.84-1.16,1.36-2.26-.65-1.51.81-3.74,2.52-3.9.69-.06,1.38-.17,2.06-.26l-1.17-1.62c1.77-.58,3.58-1.13,5.36-1.77.86-.32,1.67-.79,2.51-1.2,1.07-.52,1.94-.78,3,.44.64.77,2,1,2.88,1.4l-2,1.57a46.34,46.34,0,0,1,4.5,2.21c.34.21.47,1.28.26,1.76C-1201.15,1698.84-1201.95,1699-1202.62,1698Zm-11.38-3.66c-.59.79-.91,1.64-1.49,1.92a8.49,8.49,0,0,1-2.61.35l.11.67,7.33-1.52v-.37Z" transform="translate(1806.37 -1599.33)"/><path class="cls-1" d="M-1355.88,1642l-3.42-1.88c4.92-1.35,7.1-1.12,8.14.42-1.93,1.82-3.82,3.61-5.72,5.38-.22.21-.51.56-.74.54-2.49-.22-2.72,1.85-3.48,3.38-.93,1.84-1.89,2.14-4.09,1.14.36-.17.61-.28.85-.41l1.37-.81a7,7,0,0,0-1.61-.62,7.39,7.39,0,0,0-1.82.21C-1365.53,1642.85-1360.91,1642.23-1355.88,1642Z" transform="translate(1806.37 -1599.33)"/><path class="cls-1" d="M-1186.54,1690.24l1.3-2.91.67.18a26.92,26.92,0,0,1-.48,2.71c-.37,1.31-1.36,1-2.3.73a1.19,1.19,0,0,0-.55.08l-8.34,2.35,1.55,1c-2.44,1.53-4.7,1.59-6.89,0,1.36-.61,1.67-2.85,3.82-1.77a.64.64,0,0,0,.54,0c1.55-1,3-2.07,4.64-3a7.33,7.33,0,0,1,3.3-1.25C-1188.48,1688.39-1187.68,1689.42-1186.54,1690.24Z" transform="translate(1806.37 -1599.33)"/><path class="cls-1" d="M-1380.22,1661.72a20,20,0,0,0,2.54-.31c1.35-.37,3.14-.1,3.5-2.12a.46.46,0,0,1,.24-.29c.79-.36,1.59-.7,2.39-1a7.43,7.43,0,0,1-.75,2.29C-1374.11,1662.6-1377,1663.22-1380.22,1661.72Z" transform="translate(1806.37 -1599.33)"/><path class="cls-1" d="M-1372,1656.28c2-2.72,4.74-3.21,7.57-3.2-1.37,1.09-2.74,2.21-4.15,3.29A2.58,2.58,0,0,1-1372,1656.28Z" transform="translate(1806.37 -1599.33)"/><path class="cls-1" d="M-1228.92,1656.2c-1.24,3.57-2.54,4.06-6.5,2.79Z" transform="translate(1806.37 -1599.33)"/><path class="cls-1" d="M-1177.09,1687.29l-5.23,3.22c-.32-1.4,0-2.13,1.48-2.4a14.7,14.7,0,0,0,3.35-1.4Z" transform="translate(1806.37 -1599.33)"/><path class="cls-1" d="M-1366.6,1651.83l-5.06,1.16C-1370.12,1651-1368,1650.66-1366.6,1651.83Z" transform="translate(1806.37 -1599.33)"/><path class="cls-1" d="M-1379.27,1664.63a14.56,14.56,0,0,1-2.15,1.64c-.37.19-1-.14-1.5-.23.23-.42.36-1,.72-1.21a19,19,0,0,1,2.63-.91Z" transform="translate(1806.37 -1599.33)"/><path class="cls-1" d="M-1224.72,1700.12l1.63-2.85,1.4,1.17-2.55,2.12Z" transform="translate(1806.37 -1599.33)"/><path class="cls-1" d="M-1069,1727.72l-3,3.8-.4-.36C-1071.74,1729.8-1071.39,1728.14-1069,1727.72Z" transform="translate(1806.37 -1599.33)"/><path class="cls-1" d="M-1159.93,1688.41c-1.28,1.72-2.3,1.73-3.29,0Z" transform="translate(1806.37 -1599.33)"/><path class="cls-1" d="M-1233.79,1662.49l2-1.87.64.65-1.91,2Z" transform="translate(1806.37 -1599.33)"/></svg>