<svg id="Layer_1" data-name="Layer 1" xmlns="http://www.w3.org/2000/svg" viewBox="0 0 613.72 86.73"><defs><style>.cls-1{fill:#9e9e9e;}</style></defs><title>studio</title><path class="cls-1" d="M-373.91-58.7c-.11,3.86-1.49,4.92-4.92,5a25.61,25.61,0,0,0-6.9,1c-1.29.38-2.35,1.59-3.47,2.49-.5.4-.82,1-1.32,1.42-3,2.4-4,5.75-3.93,9.32s2.14,8,6.51,9.3a64.83,64.83,0,0,1,11.22,4.6c2.65,1.39,5.27,3.1,6.43,6.3,1.24,3.41.81,6.42-1.56,9a27.5,27.5,0,0,1-8.92,6.65c-2.34,1.07-4.59,2.35-6.89,3.54a4.18,4.18,0,0,1-1.09.52c-3.66.64-7.31,1.4-11,1.78A6.65,6.65,0,0,1-405.38-.2c-1.64-1.82-1.31-3.2.75-4.49a5.94,5.94,0,0,1,6.34-.49,4.49,4.49,0,0,0,2.81,0A46.32,46.32,0,0,0-383-10.48a22.25,22.25,0,0,0,4-3.06c1.48-1.42,1.39-3-.07-4.43-1.76-1.69-3.53-3.39-6.16-3.62a2.49,2.49,0,0,1-.69-.21c-3.53-1.45-7.06-2.89-10.57-4.36a5.7,5.7,0,0,1-1.66-1c-2.67-2.47-5.71-4.58-7.14-7.81-1.07-3.11,1.65-9.11,3.23-11.73A40.31,40.31,0,0,1-393.2-57c2.11-1.75,4.79-1.92,7.32-2.4a26.65,26.65,0,0,1,6.29-.57A34.11,34.11,0,0,1-373.91-58.7Z" transform="translate(830.16 83.76)"/><path class="cls-1" d="M-687.73-15.72c0,2,.61,2.91,2,3.5,1.79.75,1.82,1.47,1.09,3.3-1.09,2.78-3.26,4.29-5.88,5.38-4.3,1.79-8.66,3.17-13.41,3-4-.16-7.44-1.44-10.07-4.56-.42-.5-.86-1-1.29-1.46a5.85,5.85,0,0,1-1.81-4.09,17.34,17.34,0,0,0-.7-3,4.82,4.82,0,0,1-.08-2.13,6.43,6.43,0,0,0-.23-4.29,2.7,2.7,0,0,1,.83-3.27A25.85,25.85,0,0,0-713.09-29a21.1,21.1,0,0,1,5.39-6.17,13.68,13.68,0,0,1,9.85-2.55c2.32.33,4.66.6,6.93,1.12,3.09.71,7,5.25,7.37,8.32a4.22,4.22,0,0,1-2,4.41,24.77,24.77,0,0,1-7.66,3.54,31.66,31.66,0,0,0-4.24,1.68,21.8,21.8,0,0,1-2.76.8c-1.73.42-3.51.67-5.19,1.21-2.73.87-3.66,2.85-2.66,5.51a3,3,0,0,0,1.36,1.57,8,8,0,0,0,6.13.53,30,30,0,0,0,9.69-4.91A24.45,24.45,0,0,1-687.73-15.72Zm-7.91-12.95c-1.08-1.53-2.15-1.7-3.24-1.06a27,27,0,0,0-3.52,2.49c-.4.33-.53,1-.78,1.48C-700.36-26.24-697.73-26.66-695.64-28.67Z" transform="translate(830.16 83.76)"/><path class="cls-1" d="M-700.92-47c-3.56,1.61-6.84,3.78-10.93,4.26-3,.35-5.92.3-8.86.65-2.19.26-3.92,1-4.88,3.07-.68,1.48-1.4,2.93-1.94,4.46-1.21,3.43-2.1,7-3.51,10.33-1.59,3.73-2.25,7.8-4.44,11.31a40.1,40.1,0,0,0-2.42,5.52,12.86,12.86,0,0,1-5.17,6.44,3.25,3.25,0,0,1-2.56-3,13.16,13.16,0,0,0-1-3.21,3.41,3.41,0,0,1,0-3.25c1.17-2.13,2.2-4.33,3.39-6.45A34,34,0,0,0-740.15-25c.45-1.71,1.3-3.32,1.89-5,.88-2.53,1.75-5.07,2.51-7.63.49-1.67,0-2.26-1.7-2.34a6.11,6.11,0,0,0-2.18.16c-3,1-5.38-.44-7.87-1.61-1.26-.59-1.27-1.83-1.08-3a2.62,2.62,0,0,1,2.16-2.34,13.75,13.75,0,0,1,1.7-.14c3.37-.25,6.74-.46,10.11-.77,2.76-.25,5-1,6.24-4.07,1.07-2.67,2.91-5,4.45-7.5a5.06,5.06,0,0,1,1.18-1.22,3.93,3.93,0,0,1,5-.23,4.65,4.65,0,0,1,.91,5.51c-.76,1.46-2.24,2.64-2,4.78a14.27,14.27,0,0,0,1.82.27c2,0,4-.08,6,0,1.51.11,3,.58,4.5.77a31.25,31.25,0,0,0,4.33.23C-701.19-49-700.37-47.22-700.92-47Z" transform="translate(830.16 83.76)"/><path class="cls-1" d="M-780.53-47.64l.39,7.69c2,1,4,.79,6,.58a4.41,4.41,0,0,1,2.32,0,48.05,48.05,0,0,1,5.14,3.22A3.89,3.89,0,0,1-765-32.27c-.5,3.84-.25,7.71-1.24,11.56-.8,3.13-1.5,6.29-2.48,9.37a5.61,5.61,0,0,1-5.63,4.11c-1.74,0-3.6.27-5.15-1.1a12.88,12.88,0,0,1,1.17-6.29,29.43,29.43,0,0,0,3-14.84A2,2,0,0,0-777-31.52a3,3,0,0,0-1.91,0c-2.64,1.31-5.48,2.3-7,5.25-2.81,5.47-5.81,10.84-8.7,16.27a15.74,15.74,0,0,0-1,2.71,4.49,4.49,0,0,1-6.83,2.48,3.19,3.19,0,0,1-1.64-3.47c.5-2.63,1-5.15,2.73-7.44s2.63-4.83,3.93-7.25a71.12,71.12,0,0,0,5.15-13A70.76,70.76,0,0,1-789-44.1a3.46,3.46,0,0,1,1.76-1.56C-785.24-46.51-783.66-48.82-780.53-47.64Z" transform="translate(830.16 83.76)"/><path class="cls-1" d="M-828.65-1.63c-1.76-2.73-2-5-.52-7.73a75.77,75.77,0,0,0,4.07-9.1c.81-2,1.32-4.13,2.06-6.17,1.45-4,3-7.88,4.46-11.83,1-2.81,2-5.65,3-8.47.82-2.28,1.69-4.54,2.56-6.8a104.28,104.28,0,0,0,3.75-9.76,101.28,101.28,0,0,1,3.64-11.05c.48-1.2,1-2.37,1.55-3.55.26-.59.81-1.21.74-1.75-.32-2.39,1.22-3.58,2.86-4.66s3.5-1.76,5.36-.78a7.77,7.77,0,0,0-.23,2.66,8.24,8.24,0,0,1-.78,7.21A29.13,29.13,0,0,0-798-69.2a31,31,0,0,0-2.12,8.48,7.7,7.7,0,0,1-.56,2.34c-3.1,6.36-5.18,13.09-7.31,19.82-.9,2.84-2.28,5.53-3.45,8.29s-2.54,5.79-3.66,8.75c-1,2.72-1.85,5.53-2.77,8.3s-2,5.32-2.64,8.06a4.16,4.16,0,0,1-3.76,3.24A32.84,32.84,0,0,1-828.65-1.63Z" transform="translate(830.16 83.76)"/><path class="cls-1" d="M-266.58-44.73a3.6,3.6,0,0,0,0,.73c.54,2.52-.56,4.87-.71,7.25s-1.6,4.5-1.65,7c0,1.5-1.16,2.94-1.59,4.46s-.24,3.11-.84,4.44a63.13,63.13,0,0,0-2.73,8.74,85.7,85.7,0,0,0-2.13,9.94c-.19,1.13-.59,1.91-1.58,2.14a34,34,0,0,1-4.51.61c-.71.06-1.55-.3-2.14,0a4.11,4.11,0,0,1-4.67-.69c-2.54-2-5.28-3.74-7.82-5.73a5.62,5.62,0,0,1-1.78-4.61c0-3.71.1-7.48,2-10.88,2.31-4.11,5.17-7.37,10.39-7.72a20.48,20.48,0,0,1,5.53,0c1.6.33,1.9.11,2.43-1.58.89-2.86,1.63-5.76,2.56-8.61.82-2.53,1.73-5,2.77-7.5.26-.6,1.14-1,1.81-1.36a3.41,3.41,0,0,1,1.44-.14C-267.18-48.23-266.45-47.42-266.58-44.73ZM-281-21c-.19-.25-.52-1-1.11-1.35a2.44,2.44,0,0,0-2,0c-2.88,1.44-5.26,2.91-5.79,6.85-.63,4.61-.45,5.91,4,7.28,1.73.52,2.56,0,2.86-1.82.15-.94.3-1.88.48-2.82C-282-15.46-281.57-18-281-21Z" transform="translate(830.16 83.76)"/><path class="cls-1" d="M-520-46.21a11.81,11.81,0,0,1-.67,1.76c-.7,1.09-1.47,2.13-2.21,3.2-1.67,2.42-4.34,2.64-6.89,3-3.53.48-7.09.75-10.62,1.2-2.34.29-2.86,1.07-3.28,3.45-.61,3.41-1.37,6.81-2.15,10.19-1.13,4.89-2.36,9.76-3.5,14.65-.4,1.74-.56,3.54-1,5.25-.75,2.81-5,4.49-7.3,3.05A2.77,2.77,0,0,1-559-3.09a12.51,12.51,0,0,1,.64-3.56,135.71,135.71,0,0,0,5.19-20.22c.64-3.23.82-6.56,1.24-10.13-.67-.67-1.82-.5-2.93-.45-1.54.05-3.07.19-4.61.2a2.15,2.15,0,0,1-2.2-1.89c-.29-1.15-.39-2.24.7-3.09a30.35,30.35,0,0,1,3-2.44,6,6,0,0,1,2.74-.7c1.45-.05,2.91.17,4.37.25s2-.2,2.5-1.69c.23-.69.31-1.43.47-2.14.59-2.5,2.48-3.92,4.5-5.14.92-.55,3.16.62,3.81,2a6,6,0,0,1,.57,2.56c0,5.39.33,4.81,4.38,4.5,4.44-.34,8.86-.88,13.3-1.32A8.89,8.89,0,0,1-520-46.21Z" transform="translate(830.16 83.76)"/><path class="cls-1" d="M-627.62-9.55A19.54,19.54,0,0,0-630-7.89a17.57,17.57,0,0,1-8.29,4.33c-5.29,1.33-11.67-2.38-10.62-9,.8-5.07,2.26-9.82,6.19-13.82,3.69-3.76,8.34-5.43,12.7-7.77a6.43,6.43,0,0,1,6.1-.25,2.59,2.59,0,0,0,.92.32c1.24.08,2.59-.37,3.43,1.1,1.27,2.24,2.68,4.31,1.61,7.19a28.29,28.29,0,0,0-1.53,7.11,13,13,0,0,0,.67,5.25c.8,2.38-.38,4.35-1.12,6.25-.89,2.27-5.28,2-6.68-.18A23.22,23.22,0,0,1-627.62-9.55Zm-10.87-.82A26.71,26.71,0,0,0-636-12.8c2.43-3.13,4.83-6.29,7.16-9.51a3.76,3.76,0,0,0,.08-4.91,12.41,12.41,0,0,0-2.91.88c-4.88,2.86-7.27,7.4-8.41,12.77C-640.42-12.19-640.08-11.2-638.49-10.37Z" transform="translate(830.16 83.76)"/><path class="cls-1" d="M-351-31.52c-2.76,0-5.25-.08-7.73,0-1.95.09-3.88.39-5.73-.56-1.4-.73-1.64-1.16-1.27-2.7a4.57,4.57,0,0,1,.32-.92c.26-.59.54-1.17.86-1.84,3.41-.56,6.76-1.5,10.29-1.17,1,.09,2-.28,2.91-.21a2.21,2.21,0,0,0,2.43-1.9,41.8,41.8,0,0,0,1.15-5,4.3,4.3,0,0,1,4.27-3.84,2.8,2.8,0,0,1,3.17,3.11c0,1.38-.13,2.76-.27,4.13-.22,2.06.21,2.62,2.32,2.63,1.85,0,3.7-.12,5.55,0a21.59,21.59,0,0,1,3.08.59,11,11,0,0,1-1.78,6c-1,1.54-1.45,1.77-3.27,1.15-2.23-.77-4.29-.26-6.44.21A2.32,2.32,0,0,0-343-29.68q-.92,5.25-1.86,10.48a10.85,10.85,0,0,1-.51,2.13c-1.51,3.64-1.62,7.56-2.37,11.36-.38,1.94-.65,4-2.14,5.49a8,8,0,0,1-3.27,1.91,3.33,3.33,0,0,1-4.26-3.12,34.15,34.15,0,0,1-.12-3.65,3.64,3.64,0,0,1,.41-1.62c2.9-5.09,4.05-10.7,5-16.38.37-2.15.79-4.3,1.15-6.46A14.05,14.05,0,0,0-351-31.52Z" transform="translate(830.16 83.76)"/><path class="cls-1" d="M-313.16-3.5a25.37,25.37,0,0,0-3.58.77c-5.32,2-11.86-2.18-13.34-7.34A24.45,24.45,0,0,1-328.51-28a2,2,0,0,1,2-1.44A9.42,9.42,0,0,1-323-29c2.47,1.21,3.14,4.66,1.41,7.39a4.49,4.49,0,0,0-.8,3.85,6.31,6.31,0,0,1-.26,2.4,6.22,6.22,0,0,0,1.33,5c1,1.32,1.49,1.35,2.84.45a6.79,6.79,0,0,0,1.33-1c3.19-3.7,6.23-7.47,6.69-12.65.14-1.68.7-3.33,1-5,.47-2.85,4.94-4.5,7-3,1.7,1.27,1.3,3,1.51,4.63a6.14,6.14,0,0,1-.76,2.75A11.57,11.57,0,0,0-303-19.3c.06,1.78-.64,3.58-.86,5.38-.31,2.48-.51,5-.72,7.46-.17,1.94-.2,3.89-.45,5.82s-2.72,3.76-4.86,3.6c-1.88-.13-3.27-1.89-3.26-4.13C-313.16-1.87-313.16-2.57-313.16-3.5Z" transform="translate(830.16 83.76)"/><path class="cls-1" d="M-587.69-31.66a18.19,18.19,0,0,0-2.26,2.37,22.2,22.2,0,0,0-3.11,15.18c.33,2.69,2.81,5,6.58,4a19.06,19.06,0,0,0,7.2-4,36.82,36.82,0,0,0,4-3.92c3.22-3.6,5-3.65,8.77.13-.47,1-.92,2-1.52,3.07-2.65,4.52-6.83,7.28-11.35,9.6-1.8.92-3.76,1.57-5.51,2.57a7.44,7.44,0,0,1-5.87.45c-1.57-.41-3.11-.91-4.66-1.39a2.16,2.16,0,0,1-.85-.44c-2.36-2.33-5-4.54-5.62-8a17.86,17.86,0,0,1-.29-4.32,45.3,45.3,0,0,1,.72-6c.35-1.82,1-3.6,1.49-5.39a5,5,0,0,1,.66-1.27c1.08-1.7,2.06-3.5,3.3-5.08a19.51,19.51,0,0,1,8.22-5.81c.93-.37,2.53.38,3.58,1a9.66,9.66,0,0,1,3.55,3.83c1,1.94.33,3.54-1.16,5-1,.95-2.5.85-4.28-.2A14.26,14.26,0,0,1-587.69-31.66Z" transform="translate(830.16 83.76)"/><path class="cls-1" d="M-463.88-30.74c1.39-.25,2.48-.54,3.59-.64A26.33,26.33,0,0,1-455-31.6c3.34.42,4.87,2.27,5.3,5.58a25.54,25.54,0,0,1-1.61,13.33c-1.28,3-2.06,6.42-4.67,8.83a6.31,6.31,0,0,1-6.51,1.34c-.88-.36-1.42-1-1.21-1.84a14.94,14.94,0,0,1,1.39-4.33,38.62,38.62,0,0,0,4.6-9.61A33.67,33.67,0,0,0-457-23c.13-1.09-.57-1.62-1.52-1.88a5.1,5.1,0,0,0-5.74,2.1c-2.87,4.78-6,9.46-6.65,15.23A2.5,2.5,0,0,1-473.06-5a13.79,13.79,0,0,1-3.33.47c-2.44-.2-3.63-1.87-3-4.2,1.28-4.68,2.66-9.33,4.08-14,.69-2.24,1.56-4.43,2.33-6.65a11.82,11.82,0,0,0,.59-2.09c.39-2.79,4.2-5,6.6-3.59A4.76,4.76,0,0,1-464.25-33,8.92,8.92,0,0,1-463.88-30.74Z" transform="translate(830.16 83.76)"/><path class="cls-1" d="M-216.44-16.42a23.89,23.89,0,0,1-2.7,10.13c-2.31,4.12-8.11,7.05-12.71,6.41-.64-.09-1.3,0-1.93-.15a3.56,3.56,0,0,1-1.81-.57c-2.87-2.74-5.82-5.24-7.68-9.07-2.48-5.1-.86-9.16,1.91-13.07a13.46,13.46,0,0,1,6.63-5.12,12,12,0,0,1,4.68-1c3.81.37,7.83.43,10.93,3.22A4.59,4.59,0,0,1-218-23.38C-217.34-20.81-216.82-18.2-216.44-16.42Zm-9.81,2.4a7.27,7.27,0,0,0-.08-.84c-.23-1-.48-2-.71-3.06-.34-1.54-2.32-3.57-3.86-3.58a3.48,3.48,0,0,0-3.26,2.43c-.12.29-.39.52-.54.8-2.12,3.95-.27,9.29,3.07,10.69,2.32,1,4.26.25,4.84-2.22A37.79,37.79,0,0,0-226.25-14Z" transform="translate(830.16 83.76)"/><path class="cls-1" d="M-506.07-15.63c.33-2.57.57-5.15,1.05-7.7.18-1,1.13-1.82,1.36-2.81.66-2.79,2.78-4.1,4.86-5.7,3.73-2.88,7.83-3.32,12.21-2.67,2,.3,3.54,2.41,4.17,4.42,1.3,4.12.31,8.11-.56,12-.59,2.63-2.15,5.06-3.41,7.52A13.93,13.93,0,0,1-497-2.95c-3,.52-6.19-.42-7.15-4.13C-504.87-9.89-506.31-12.55-506.07-15.63Zm16.53-7.88c0-3.74-1.8-5.17-4.65-3.86A6.07,6.07,0,0,0-496-25.8c-3.11,3.49-2.6,7.81-2.61,12a3.78,3.78,0,0,0,.59,1.58c.74,1.45,1.78,1.73,2.88.61A21.09,21.09,0,0,0-489.54-23.51Z" transform="translate(830.16 83.76)"/><path class="cls-1" d="M-677.66-6.54c0-1.09.06-2.14,0-3.18-.11-1.68,4-10.63,4.69-12.95.23-.77.28-1.59.51-2.35.41-1.37.88-2.72,1.36-4.07.13-.38,5.12-15.12,6.19-16.83a2.74,2.74,0,0,1,3.5-1.41,2.83,2.83,0,0,1,1.78,3.13c-.1,1.84-.26,3.67-.42,5.86,1.44,0,2.55.09,3.65,0,4-.4,4-.42,8,1.53v3.25a13,13,0,0,1-7.91,3.19,4.59,4.59,0,0,0-2.37,1c-4.49,3.58-7,8.36-8.39,13.86-.63,2.48-1,5-2.24,7.37-1.53,2.85-3.72,3.82-6.6,2.52C-676.52-5.94-677.07-6.25-677.66-6.54Z" transform="translate(830.16 83.76)"/><path class="cls-1" d="M-252.29-21.15c-.64,2.91-1.34,5.81-1.91,8.74a30.61,30.61,0,0,0-.84,6.2c0,2.14-.33,3.79-2.29,4.94-.94.56-1.57,1.75-2.9,1.42a17.14,17.14,0,0,1-3.42-1c-1.32-.64-1.35-1.23-.92-2.57.73-2.3,1.47-4.6,2-6.95.71-3.24,1.06-6.56,1.88-9.76A10.81,10.81,0,0,1-258.35-24c1.14-1.39,2.71-.85,4.06-.36S-252.48-22.58-252.29-21.15Z" transform="translate(830.16 83.76)"/><path class="cls-1" d="M-514.25-23.4c-.46,1.66-.94,3.78-1.64,5.81s-1.79,4.16-2.48,6.31c-.58,1.75-.8,3.62-1.22,5.43a5.31,5.31,0,0,1-4.7,3.45,3.33,3.33,0,0,1-3.23-3.78,20.7,20.7,0,0,1,1-4.24c1-2.91,2.07-5.78,3.11-8.67.69-1.89,1.33-3.81,2.11-5.67a7.08,7.08,0,0,1,3.63-3.44A1.87,1.87,0,0,1-514.8-27,21.9,21.9,0,0,1-514.25-23.4Z" transform="translate(830.16 83.76)"/><path class="cls-1" d="M-252.65-27.91a4.4,4.4,0,0,1-3.29-2.26,4.27,4.27,0,0,1,1.32-6.22c1.67-1.08,5.28-.33,6.27,1.4a2.53,2.53,0,0,1,.12,1.76c-.31,1.07-.82,2.08-1.23,3.13A3.34,3.34,0,0,1-252.65-27.91Z" transform="translate(830.16 83.76)"/><path class="cls-1" d="M-511.77-35.51c-1.91,0-3.27-1-3.28-2.53a4.29,4.29,0,0,1,4.17-4.27c1.81-.07,3.28,1.07,3.28,2.53A4.31,4.31,0,0,1-511.77-35.51Z" transform="translate(830.16 83.76)"/></svg>